<svg width="65" height="60" viewBox="0 0 65 60" fill="none" xmlns="http://www.w3.org/2000/svg">
<g clip-path="url(#clip0_1146_3294)">
<path d="M28.0864 7.52772C25.6588 2.43547 19.4795 1.54986 14.6243 2.87827C9.10707 4.64949 4.69327 9.29894 2.48638 14.3912C0.0587921 19.9262 -0.161897 26.3469 2.48638 31.882C5.13465 37.8598 9.98983 42.5093 15.2864 46.2731C18.1553 48.2657 21.0243 50.2583 24.114 52.251C27.645 54.6864 31.176 56.9004 34.7071 59.1144C35.3691 59.5572 36.2519 60 37.1347 59.7786C38.0174 59.5572 38.6795 58.6716 39.3415 58.2288C40.6657 57.1218 41.9898 55.7934 43.314 54.465C45.9622 51.8082 48.3898 49.1513 50.5967 46.2731C52.8036 43.3949 55.0105 40.5167 56.776 37.417C58.7622 34.3174 60.5278 31.2178 62.0726 27.8967C64.7209 21.6975 66.7071 14.1698 62.9553 7.97053C59.2036 2.43547 52.3622 -0.442759 46.1829 4.56385e-05C40.445 0.44285 34.9278 3.32108 31.8381 7.97053C31.176 9.07754 30.514 10.4059 30.0726 11.7344C29.8519 12.62 31.176 13.0628 31.6174 12.1772C33.1622 7.08492 37.7967 3.54248 42.6519 2.21407C48.1691 0.664252 54.1278 1.77126 58.5415 5.5351C60.7484 7.52772 62.2933 10.4059 62.7346 13.5056C63.176 16.8266 62.7346 19.9262 61.6312 23.0259C60.5278 26.1255 58.9829 29.2251 57.4381 32.1034C55.6726 35.203 53.9071 38.0812 51.9209 40.7381C47.9484 46.2731 43.314 51.5868 38.4588 56.2362C38.2381 56.4576 37.7967 56.9004 37.576 57.1218C37.3553 57.3432 36.914 57.786 36.4726 58.0074C36.0312 58.0074 35.8105 58.0074 35.5898 57.786C35.1484 57.5646 34.7071 57.3432 34.2657 56.9004C32.7209 55.7934 30.9553 54.6864 29.4105 53.5794C26.3209 51.5868 23.0105 49.3727 19.9209 47.3801C14.845 44.0591 9.76914 40.2952 6.01741 35.4244C4.25189 32.989 2.92776 30.3321 2.26569 27.4539C1.60362 24.7971 1.60362 21.9189 2.26569 19.262C3.36914 13.727 6.45879 8.63473 11.314 5.7565C15.2864 3.32108 21.245 2.43547 25.2174 5.3137C26.1002 5.9779 26.9829 6.86351 27.4243 7.74912C27.645 8.41333 28.5278 7.74912 28.3071 7.30632L28.0864 7.52772Z" fill="#51483F"/>
<path d="M27.4238 7.08508C27.4238 7.08508 28.3066 8.6349 28.5273 9.52051C28.5273 9.96331 28.748 10.4061 28.9687 10.8489C28.9687 11.2917 28.9687 11.7345 29.41 12.1773C29.6307 12.6201 30.2928 12.1773 30.2928 11.9559C30.2928 11.5131 30.2928 11.0703 30.0721 10.6275C30.0721 10.1847 29.8514 9.74191 29.6307 9.2991C29.1893 8.4135 28.748 7.52789 28.0859 6.86368C28.0859 6.64228 27.4238 6.86368 27.6445 7.08508H27.4238Z" fill="#51483F"/>
<path d="M4.25195 13.2839C6.23816 11.5127 8.44506 9.74147 10.4313 7.97025C11.5347 7.08464 12.6382 6.19903 13.7416 5.53482C14.4037 5.09202 14.8451 4.64921 15.5071 4.42781C15.9485 3.98501 16.6106 3.76361 17.052 3.3208C16.3899 3.5422 15.9485 3.98501 15.2864 4.42781C14.6244 4.87062 14.183 5.31342 13.5209 5.75622C12.4175 6.64183 11.314 7.30604 10.4313 8.19165C8.22437 9.96287 6.23816 11.7341 4.25195 13.5053V13.2839Z" fill="#51483F"/>
<path d="M3.14844 17.4907C5.13464 15.9409 6.90016 14.1697 8.88637 12.6199C9.76913 11.7343 10.8726 11.0701 11.976 10.1844C12.8588 9.52024 13.9622 8.85603 14.845 7.97043V7.74902C13.7415 8.41323 12.8588 9.07744 11.7553 9.96305C10.8726 10.6273 9.76913 11.5129 8.88637 12.1771C6.90016 13.7269 4.91395 15.4981 3.36913 17.2693H3.14844V17.4907Z" fill="#51483F"/>
<path d="M1.82422 22.8043C3.14836 21.4758 4.47249 20.1474 6.01732 18.819C7.56215 17.4906 9.10698 16.3836 10.4311 15.2766V15.0552C8.88629 15.9408 7.34146 17.2692 5.79663 18.5976C4.2518 19.926 2.92767 21.2544 1.82422 22.8043Z" fill="#51483F"/>
<path d="M2.04488 26.3469H1.38281C1.38281 26.5683 1.82419 26.7897 2.04488 26.5683C2.48626 26.5683 2.92764 25.6827 3.36902 25.4613C5.35523 23.4687 7.56212 21.4761 9.76902 19.7048C8.22419 20.5905 6.90005 21.6975 5.79661 22.8045C5.13454 23.4687 4.47247 23.9115 4.03109 24.5757C3.8104 24.7971 3.36902 25.2399 3.14833 25.6827C3.14833 25.6827 2.26557 26.7897 2.26557 26.3469H2.48626H2.04488Z" fill="#51483F"/>
<path d="M3.81044 28.5608C3.81044 28.5608 2.70699 29.8893 2.04492 30.5535C2.04492 30.5535 2.04492 30.9963 2.26561 30.7749C3.36906 29.6678 4.47251 28.7822 5.35527 27.6752C6.45871 26.5682 7.34147 25.6826 8.44492 24.3542C8.44492 24.3542 8.44492 23.9114 8.22423 24.1328C7.12078 25.0184 6.01734 26.1254 5.13458 27.2324C4.03113 28.3394 3.14837 29.4464 2.04492 30.3321H2.26561C2.26561 30.3321 3.36906 29.225 4.03113 28.5608H3.81044Z" fill="#51483F"/>
<path d="M4.47263 32.9887C4.47263 32.9887 6.23815 31.2175 7.12091 30.3319C8.00366 29.4463 8.88642 28.5607 9.54849 27.6751C9.54849 27.6751 9.54849 27.4537 9.3278 27.6751C8.44504 28.3393 7.56228 29.4463 6.67953 30.3319C5.79677 31.2175 4.91401 32.1031 4.03125 32.9887C4.03125 32.9887 4.03125 33.4315 4.25194 33.2101H4.47263V32.9887Z" fill="#51483F"/>
<path d="M7.34169 33.4318C7.34169 33.4318 6.23824 34.7602 5.57617 35.6459C5.57617 35.8673 5.57617 36.0887 5.79686 35.8673C6.90031 34.9816 8.00376 33.8746 8.88652 32.989C9.76928 32.1034 10.8727 30.9964 11.3141 29.668C11.3141 29.668 11.3141 29.2252 11.0934 29.668C10.2107 30.5536 9.3279 31.882 8.44514 32.7676C7.56238 33.8746 6.45893 34.7602 5.57617 35.6459H6.01755C6.01755 35.6459 7.121 34.5388 7.56238 33.6532C7.56238 33.6532 7.56238 33.2104 7.34169 33.6532V33.4318Z" fill="#51483F"/>
<path d="M8.88666 36.0888C8.88666 36.0888 8.2246 36.9744 8.00391 37.1958C8.00391 37.1958 8.00391 37.6386 8.44529 37.4172C10.4315 35.2032 12.4177 32.9892 14.6246 30.7752C12.197 32.5464 10.2108 34.7604 8.2246 37.1958C8.2246 37.1958 8.44529 37.1958 8.66598 37.4172L9.54873 36.0888C9.54873 36.0888 9.54873 35.646 9.10735 35.8674H8.88666V36.0888Z" fill="#51483F"/>
<path d="M11.0927 37.8597C11.0927 37.8597 10.4306 38.9667 9.98926 39.4095C9.98926 39.6309 9.98926 39.8523 10.4306 39.6309C11.0927 38.9667 11.7548 38.3025 12.4168 37.6383C13.0789 36.9741 13.741 36.5313 14.1824 35.6457C14.1824 35.6457 14.1824 35.2029 13.9617 35.4243C13.2996 35.8671 12.6375 36.7527 11.9755 37.1955C11.3134 37.8597 10.6513 38.5239 9.98926 39.1881C9.98926 39.1881 10.2099 39.1881 10.4306 39.4095C10.872 38.7453 11.0927 38.3025 11.5341 37.6383C11.5341 37.4169 11.5341 37.1955 11.0927 37.6383V37.8597Z" fill="#51483F"/>
<path d="M13.2997 39.1883C13.2997 39.1883 12.417 40.5167 11.9756 41.1809C11.9756 41.4023 11.9756 41.6237 12.417 41.4023C13.5204 40.2953 14.8446 39.1883 15.948 38.0812C15.948 38.0812 15.948 37.6384 15.7273 37.8598C14.6239 38.9669 13.2997 40.0739 12.1963 41.1809H12.6377C12.6377 41.1809 13.5204 40.0739 13.7411 39.4097C13.7411 39.4097 13.7411 38.9669 13.5204 39.4097L13.2997 39.1883Z" fill="#51483F"/>
<path d="M15.5068 41.4023C15.5068 41.4023 14.624 42.2879 14.4033 42.7307C14.4033 42.7307 14.4033 43.3949 14.624 43.1735C15.2861 42.7307 16.1688 42.0665 16.8309 41.6237C17.493 40.9595 18.155 40.2953 18.5964 39.6311C18.5964 39.6311 18.5964 39.1882 18.3757 39.4096C17.7137 40.0739 17.2723 40.7381 16.6102 41.1809C15.9481 41.8451 15.2861 42.2879 14.624 42.7307C14.624 42.7307 14.624 42.9521 14.8447 43.1735C15.2861 42.7307 15.5068 42.2879 15.9481 41.8451C15.9481 41.6237 15.9481 41.1809 15.5068 41.4023Z" fill="#51483F"/>
<path d="M17.2724 43.6163C17.2724 43.6163 16.3896 44.7233 15.9482 45.3876C15.9482 45.609 15.9482 46.0518 16.3896 45.8304C17.2724 44.9447 18.5965 44.2805 19.2586 43.1735C19.2586 43.1735 19.2586 42.7307 19.0379 42.9521C17.9344 43.6163 17.0517 44.7233 15.9482 45.609C15.9482 45.609 16.1689 45.609 16.3896 45.8304C16.831 45.1661 17.2724 44.7233 17.7138 44.0591C17.7138 44.0591 17.7138 43.6163 17.2724 43.8377V43.6163Z" fill="#51483F"/>
<path d="M19.4795 46.937C19.4795 46.937 20.8036 45.1658 21.4657 44.5016C21.9071 44.0588 22.1278 43.8374 22.5691 43.616C23.0105 43.3946 23.4519 42.9518 23.8933 42.7304V42.2876C23.0105 42.7304 22.1278 43.616 21.4657 44.2802C20.5829 44.9444 19.9209 45.83 19.2588 46.7156C19.2588 46.937 19.4795 47.1584 19.7002 46.937H19.4795Z" fill="#51483F"/>
<path d="M22.1276 47.3799C23.231 46.4943 24.3345 45.6087 25.4379 44.5017C25.4379 44.5017 25.4379 44.0589 25.4379 44.2803C24.3345 45.1659 23.0103 46.0515 21.9069 46.9371C21.6862 46.9371 21.9069 47.6013 22.3483 47.3799H22.1276Z" fill="#51483F"/>
<path d="M24.3349 48.4873C24.3349 48.4873 23.4521 49.3729 23.2314 49.8157C23.2314 49.8157 23.2314 50.2585 23.4521 50.2585C24.7763 49.3729 26.3211 48.0445 27.2039 46.4947C27.2039 46.4947 27.2039 46.0518 26.9832 46.4947C26.3211 47.1589 25.659 47.8231 25.2177 48.2659C24.5556 48.9301 23.8935 49.3729 23.2314 50.0371C23.2314 50.0371 23.4521 50.0371 23.6728 50.2585C24.1142 49.8157 24.3349 49.3729 24.7763 48.9301C24.7763 48.9301 24.7763 48.4873 24.5556 48.7087L24.3349 48.4873Z" fill="#51483F"/>
<path d="M27.6452 50.037C27.6452 50.037 28.3072 49.1514 28.7486 48.93C29.19 48.4872 29.4107 48.2657 29.8521 47.8229C29.8521 47.8229 29.8521 47.3801 29.6314 47.6015C29.19 47.8229 28.9693 48.2657 28.5279 48.7086C28.0865 49.1514 27.6452 49.3728 27.4245 49.8156C27.2038 50.037 27.4245 50.4798 27.8658 50.2584L27.6452 50.037Z" fill="#51483F"/>
<path d="M28.9694 52.6936C28.9694 52.6936 30.7349 50.9224 31.6177 50.0368C31.6177 50.0368 31.6177 49.594 31.397 49.8154C30.2935 50.4796 29.6314 51.5866 28.7487 52.4722C28.528 52.6936 28.7487 53.1364 29.1901 52.915L28.9694 52.6936Z" fill="#51483F"/>
<path d="M31.6168 53.1368C31.6168 53.1368 32.2789 52.4726 32.4996 52.2512C32.4996 52.2512 32.4996 51.8084 32.2789 52.0298C31.8375 52.2512 31.6168 52.694 31.3961 52.9154C31.1755 53.1368 31.3961 53.5796 31.8375 53.3582L31.6168 53.1368Z" fill="#51483F"/>
<path d="M33.3828 54.9076C33.3828 54.9076 34.0449 54.022 34.2655 53.5792C34.2655 53.3578 34.0449 53.1364 33.8242 53.3578C33.3828 53.8006 33.1621 54.2434 32.9414 54.6862C32.9414 54.9076 33.1621 55.3504 33.3828 54.9076Z" fill="#51483F"/>
<path d="M35.3691 55.7934C35.3691 55.7934 35.8105 55.3506 35.3691 55.3506C34.9277 55.3506 35.1484 55.7934 35.3691 55.7934Z" fill="#51483F"/>
<path d="M40.4453 52.6936C42.2108 51.1437 43.9763 49.3725 45.7419 47.6013C46.6246 46.7157 47.5074 45.8301 48.3901 45.1659C49.2729 44.2803 50.1557 43.3947 51.0384 42.509C50.1557 43.1733 49.2729 44.0589 48.3901 44.9445C47.5074 45.8301 46.6246 46.7157 45.7419 47.6013C43.9763 49.3725 42.2108 50.9223 40.666 52.6936H40.4453Z" fill="#51483F"/>
<path d="M43.9756 46.4943C47.7273 42.7304 51.6997 39.188 55.8928 35.867C51.479 38.9666 47.7273 42.509 43.9756 46.4943C43.9756 46.4943 43.9756 46.9371 44.1963 46.7157L43.9756 46.4943Z" fill="#51483F"/>
<path d="M49.0517 38.9666C50.8173 37.4168 52.3621 35.867 54.1276 34.3172C55.8931 32.7674 57.438 31.2176 58.9828 29.6677C57.2173 30.9962 55.4517 32.546 53.9069 34.0958C52.1414 35.6456 50.5966 37.1954 48.8311 38.7452C48.8311 38.7452 48.8311 39.188 49.0517 38.9666Z" fill="#51483F"/>
<path d="M51.0381 34.0958C52.3622 32.9888 53.6863 31.6604 55.0105 30.5534C56.3346 29.4464 57.6588 28.1179 58.9829 27.0109C58.9829 27.0109 58.9829 26.5681 58.7622 26.7895C57.4381 27.8965 56.1139 29.225 54.7898 30.332C53.4657 31.439 52.1415 32.7674 50.8174 33.8744C50.8174 33.8744 50.8174 34.3172 51.0381 34.0958Z" fill="#51483F"/>
<path d="M52.3619 29.2253C55.2309 27.0112 58.0999 24.5758 60.7481 22.1404C57.8792 24.3544 55.0102 26.7898 52.3619 29.0039C52.1412 29.0039 52.3619 29.4467 52.5826 29.2253H52.3619Z" fill="#51483F"/>
<path d="M53.2451 24.797C55.6727 22.583 57.8796 20.369 60.3072 18.155C60.3072 18.155 60.3072 17.7122 60.0865 17.9336C57.6589 19.9262 55.452 22.3616 53.0244 24.5756C53.0244 24.5756 53.0244 25.0184 53.4658 25.0184L53.2451 24.797Z" fill="#51483F"/>
<path d="M54.1279 20.3688C54.1279 20.3688 55.0107 18.3762 55.8934 17.4906C56.5555 16.605 57.4383 16.1622 58.5417 15.498V15.0552C56.3348 15.7194 54.5693 17.9334 53.9072 19.926C53.9072 20.1474 54.3486 20.3688 54.3486 19.926L54.1279 20.3688Z" fill="#51483F"/>
<path d="M53.6862 16.1622C53.6862 16.1622 55.0103 14.8338 55.6724 14.1696C56.3344 13.5054 56.9965 12.8412 57.6586 12.1769C57.6586 12.1769 57.6586 11.7341 57.4379 11.9555C56.7758 12.3984 56.1138 13.284 55.4517 13.9482C54.7896 14.6124 54.1276 15.2766 53.4655 15.9408C53.2448 16.1622 53.4655 16.605 53.9069 16.3836L53.6862 16.1622Z" fill="#51483F"/>
<path d="M54.1279 11.9558C54.3486 10.6274 55.2314 9.74176 56.1141 8.85615C56.1141 8.85615 56.1141 8.41334 56.1141 8.63475C54.79 9.07755 54.1279 10.6274 53.9072 11.7344C53.9072 11.9558 54.3486 12.1772 54.3486 11.7344L54.1279 11.9558Z" fill="#51483F"/>
<path d="M53.0243 8.63491C53.0243 8.63491 52.1416 8.85631 51.9209 9.07771C51.9209 9.07771 51.9209 9.07771 51.9209 9.29912C52.3623 8.85631 52.8036 8.41351 53.0243 7.9707C52.583 8.41351 52.1416 8.85631 51.7002 9.07771C51.7002 9.07771 51.7002 9.52052 51.7002 9.29912C52.1416 9.29912 52.583 9.07771 52.8036 8.85631C53.0243 8.85631 52.8036 8.41351 52.8036 8.41351L53.0243 8.63491Z" fill="#51483F"/>
<path d="M34.0449 10.8488C34.0449 10.8488 33.3828 11.513 33.1621 11.7344C33.8242 10.6274 34.7069 9.52035 35.369 8.41334C35.8104 7.97054 36.0311 7.30633 36.4724 6.86353C36.9138 6.19932 37.3552 5.75652 37.5759 5.09231C37.5759 5.09231 37.5759 4.64951 37.3552 5.09231C36.9138 5.53511 36.6931 6.19932 36.2518 6.64213C35.8104 7.30633 35.5897 7.74914 35.1483 8.41334C34.4862 9.52035 33.6035 10.6274 32.9414 11.9558C33.1621 11.7344 33.3828 11.2916 33.8242 11.0702L34.0449 10.8488Z" fill="#51483F"/>
<path d="M36.0312 10.6275C36.6933 9.29911 37.5761 7.74929 38.4588 6.64228C39.3416 5.31387 40.445 4.20686 41.3278 2.87844C41.3278 2.87844 41.3278 2.43564 41.1071 2.87844C40.0037 3.98545 39.1209 5.31387 38.2381 6.64228C37.3554 7.97069 36.4726 9.29911 35.8105 10.8489C35.8105 10.8489 35.8105 11.0703 36.0312 10.8489V10.6275Z" fill="#51483F"/>
<path d="M39.3418 8.85606C40.2246 7.52764 41.1073 6.19923 42.2108 4.87082C43.0935 3.76381 44.197 2.65679 45.0797 1.32838C43.7556 2.21399 42.8728 3.5424 41.9901 4.87082C41.1073 6.19923 40.0039 7.52764 39.3418 8.85606C39.3418 8.85606 39.3418 9.07746 39.5625 8.85606H39.3418Z" fill="#51483F"/>
<path d="M42.6514 8.41332C43.0927 7.08491 43.7548 5.9779 44.6376 4.87089C45.0789 4.42808 45.5203 3.98528 45.9617 3.54247C46.4031 3.09967 47.0651 2.65686 47.2858 2.21406C47.2858 2.21406 47.2858 1.77125 47.2858 1.99266C46.6238 2.21406 46.1824 2.65686 45.741 3.09967C45.2996 3.54247 44.8583 3.98528 44.4169 4.64948C43.5341 5.75649 42.872 7.08491 42.4307 8.41332C42.4307 8.41332 42.4307 8.41332 42.6514 8.41332Z" fill="#51483F"/>
<path d="M46.1826 6.86349C46.1826 6.86349 47.2861 5.75648 47.7274 5.09227C48.1688 4.42807 48.8309 3.98526 49.2723 3.32106C49.2723 3.32106 49.2723 3.09966 49.0516 3.32106C48.3895 3.76386 47.9481 4.42807 47.5067 5.09227C47.0654 5.75648 46.4033 6.19929 45.9619 6.86349C45.9619 6.86349 45.9619 7.3063 46.1826 7.08489V6.86349Z" fill="#51483F"/>
<path d="M49.7139 6.86327C49.7139 6.86327 50.5966 5.75626 51.038 5.09205C51.038 5.09205 51.038 4.87065 50.8173 5.09205C50.3759 5.53486 49.9345 6.19906 49.4932 6.86327C49.4932 7.08467 49.4932 7.30608 49.9345 7.08467L49.7139 6.86327Z" fill="#51483F"/>
<path d="M16.6104 7.30617C16.6104 7.30617 17.9345 6.19916 18.5966 5.75636C19.2586 5.31355 19.9207 4.87075 20.5828 4.20654C19.9207 4.64935 19.2586 5.31355 18.5966 5.75636C17.9345 6.19916 17.2724 6.86337 16.6104 7.30617Z" fill="#51483F"/>
<path d="M17.9346 8.19168C19.2587 7.30608 20.8035 6.19906 21.907 5.09205C20.5828 5.97766 19.2587 7.08467 17.9346 8.19168Z" fill="#51483F"/>
<path d="M21.0244 8.63471C21.0244 8.63471 21.9072 7.7491 22.3486 7.5277C22.7899 7.3063 23.2313 7.08489 23.6727 6.86349V6.64209C22.5692 6.64209 21.6865 7.7491 21.0244 8.63471C21.0244 8.63471 21.0244 9.07751 21.2451 8.85611L21.0244 8.63471Z" fill="#51483F"/>
<path d="M23.2314 9.07763C23.2314 9.07763 23.8935 8.63482 24.3349 8.41342C24.7763 8.19202 24.997 7.97062 25.4383 7.74921C25.4383 7.74921 25.4383 7.30641 25.4383 7.52781C24.997 7.52781 24.7763 7.97062 24.3349 8.19202C23.8935 8.41342 23.6728 8.63482 23.2314 9.07763C23.2314 9.07763 23.2314 9.52043 23.2314 9.29903V9.07763Z" fill="#51483F"/>
<path d="M24.9961 10.8489C24.9961 10.8489 25.8789 9.96331 26.3202 9.52051C25.8789 9.96331 25.4375 10.4061 24.9961 10.8489C24.9961 10.8489 24.9961 11.2917 25.2168 11.0703L24.9961 10.8489Z" fill="#51483F"/>
<path d="M25.2168 10.6274C25.2168 10.6274 25.8789 11.5131 26.3202 11.0702C26.0996 11.0702 25.6582 11.0702 25.6582 10.6274H25.4375H25.2168Z" fill="#51483F"/>
</g>
<defs>
<clipPath id="clip0_1146_3294">
<rect width="64" height="60" fill="white" transform="translate(0.5)"/>
</clipPath>
</defs>
</svg>
