<svg width="43" height="64" viewBox="0 0 43 64" fill="none" xmlns="http://www.w3.org/2000/svg">
<g clip-path="url(#clip0_1146_3343)">
<path d="M14.8366 59.1745C12.322 54.857 9.80737 50.7935 7.79567 46.2221C5.78397 41.6507 4.2752 37.0792 3.26935 32.2538C2.26351 27.6824 1.25766 22.603 2.26351 17.7776C3.01789 12.9523 6.03544 9.14273 9.80737 6.34908C13.5793 3.80939 17.8541 2.03162 22.3805 1.77765C26.9068 1.52368 31.936 2.28558 34.9536 5.84114C37.9711 9.14273 38.7255 13.7142 38.2226 18.0316C37.7196 23.111 35.708 28.1903 33.4448 32.7618C29.4214 41.6507 24.1407 50.2856 17.8541 57.9046C17.0998 58.9205 16.3454 59.6824 15.591 60.6983H16.0939C16.0939 60.6983 15.0881 60.1903 15.0881 59.6824C14.8366 58.6665 13.0764 59.1745 13.3278 60.1903C13.5793 61.4602 14.5851 62.2221 15.8425 62.2221C16.5968 62.2221 16.8483 61.7142 17.3512 61.2062C17.8541 60.6983 18.3571 60.1903 18.6085 59.6824C20.3688 57.6507 21.8775 55.6189 23.3863 53.3332C26.4039 49.0157 29.1699 44.4443 31.6846 39.6189C34.1992 34.7935 36.4623 29.7142 37.9711 24.6348C39.4799 19.8094 40.2343 14.2221 38.474 9.3967C37.7196 7.36495 36.4623 5.3332 34.7021 3.55543C32.9419 1.77765 30.4272 0.761775 27.9126 0.253838C23.1349 -0.762035 17.8541 -0.000129744 13.3278 1.77765C8.80152 3.80939 4.52666 6.85701 1.76058 11.4284C-0.251114 16.2538 -0.251114 21.8411 0.503272 27.1745C2.01204 37.8411 5.78397 47.9999 11.5676 56.8888C12.322 57.9046 13.0764 58.9205 13.8308 59.9364C14.3337 60.6983 15.3395 59.9364 15.0881 59.1745H14.8366Z" fill="#51483F"/>
<path d="M23.1344 12.1905C23.1344 12.1905 21.1227 10.9207 20.1169 10.9207C18.8596 10.9207 17.8537 11.9365 16.8479 12.9524C15.842 14.2222 15.3391 15.4921 14.8362 16.7619C14.0818 18.2857 13.5789 20.0635 13.3274 21.8413C12.8245 24.8889 13.3274 27.9365 15.0877 30.4762C16.5964 32.508 19.3625 33.7778 21.8771 33.0159C24.6432 32.254 26.152 29.7143 26.9064 27.1746C27.9122 23.873 28.1637 20.3175 27.6608 17.0159C27.6608 15.4921 26.9064 13.7143 26.4034 12.4445C25.9005 11.1746 24.8947 10.1588 23.3859 9.90479C21.8771 9.90479 20.6198 10.9207 19.8654 11.9365C18.8596 13.2064 18.1052 14.7302 17.6023 16.254C16.345 19.5556 15.5906 23.1111 15.842 26.6667C15.842 28.1905 16.345 29.7143 16.8479 30.9842C17.0993 31.4921 17.6023 32.254 18.1052 32.508C18.6081 33.0159 19.111 33.2699 19.8654 33.2699C20.3684 33.2699 20.3684 32.7619 20.1169 32.508C20.1169 32.508 19.8654 32 19.614 32C19.614 32 19.3625 31.7461 19.111 31.4921C18.6081 31.2381 18.3567 30.7302 18.1052 30.2222C17.6023 29.2064 17.3508 28.1905 17.0993 27.1746C16.8479 24.6349 17.0993 21.8413 17.8537 19.3016C18.1052 18.0318 18.6081 16.7619 19.3625 15.7461C19.8654 14.4762 20.6198 13.4603 21.3742 12.4445C22.1286 11.6826 23.1344 11.4286 23.8888 12.4445C24.6432 13.2064 24.8947 14.7302 25.1461 15.7461C25.9005 18.5397 25.9005 21.3334 25.6491 24.127C25.3976 26.4127 24.6432 29.2064 22.883 30.7302C21.3742 32.254 19.111 32 17.3508 30.7302C15.3391 29.4603 14.3333 27.1746 14.3333 24.8889C14.3333 23.3651 14.5847 21.5873 15.0877 20.0635C15.5906 18.5397 16.0935 17.0159 16.5964 15.7461C17.0993 14.4762 17.8537 13.2064 19.111 12.6984C20.1169 12.1905 21.6257 11.9365 22.6315 12.6984C22.6315 12.6984 23.1344 12.6984 22.883 12.4445L23.1344 12.1905Z" fill="#51483F"/>
<path d="M25.9002 1.52375C30.1751 0.507874 34.9528 2.79359 37.7189 6.09518C40.9879 9.9047 41.7423 15.238 41.2394 19.8095C40.7365 25.1428 38.2219 30.2222 35.9587 35.0476C33.4441 40.1269 30.678 44.9523 27.9119 49.5238C26.1517 52.3174 24.6429 54.8571 22.8827 57.3968C21.6254 59.1745 19.6137 61.9682 17.099 61.2063C16.0932 60.9523 15.5903 62.4761 16.5961 62.7301C19.1107 63.492 21.1224 61.7142 22.8827 59.9364C24.6429 57.6507 26.1517 55.111 27.6605 52.8253C30.9295 47.746 33.947 42.4126 36.7131 37.0793C39.4792 31.9999 41.9938 26.4126 42.7482 20.8253C43.5026 15.746 42.7482 10.1587 39.7306 5.84121C38.2219 3.80946 35.9587 2.03168 33.6955 1.01581C31.1809 -6.19888e-05 28.6663 -6.19888e-05 26.1517 1.01581C26.1517 1.01581 26.1517 1.52375 26.1517 1.26978L25.9002 1.52375Z" fill="#51483F"/>
<path d="M2.51465 17.0158C4.52634 15.746 6.28658 14.4761 8.04681 13.2063C9.80705 11.9364 11.5673 10.6666 13.579 9.39676C15.3392 8.12691 17.3509 7.11104 19.1111 5.8412C20.117 5.33326 21.1228 4.57136 21.8772 4.06342C22.6316 3.55549 23.6375 3.04755 24.3918 2.28564C23.386 2.79358 22.6316 3.30152 21.6258 3.80945C20.6199 4.31739 19.6141 5.0793 18.8597 5.58723C16.848 6.85707 15.0877 8.12691 13.3275 9.14279C11.5673 10.4126 9.55558 11.6825 7.79535 12.9523C6.03512 14.2222 4.27488 15.492 2.51465 16.7618V17.0158Z" fill="#51483F"/>
<path d="M2.01122 18.5396C2.01122 18.5396 1.25683 19.3015 0.753906 19.5555C4.52584 17.5237 8.0463 15.238 11.5668 12.9523C15.0872 10.6666 18.8592 8.38088 22.1282 5.84119C22.1282 5.84119 22.1282 5.33326 22.1282 5.58722C18.6077 7.87294 15.0872 10.1587 11.5668 12.4444C8.0463 14.7301 4.27437 17.0158 0.753906 19.3015C1.25683 19.0475 1.50829 18.5396 2.01122 18.2856V18.5396Z" fill="#51483F"/>
<path d="M1.50879 23.1109C4.77779 21.0791 8.0468 18.7934 11.0643 16.5077C11.0643 16.5077 11.0643 15.9998 11.0643 16.2537C7.79534 18.2855 4.77779 20.5712 1.50879 22.8569V23.1109Z" fill="#51483F"/>
<path d="M3.01758 37.3333C5.5322 36.0634 7.79536 34.2857 9.55559 32.2539C7.54389 34.2857 5.28074 35.8095 3.01758 37.0793V37.3333Z" fill="#51483F"/>
<path d="M3.52051 40.3811C3.52051 40.3811 5.5322 38.3494 6.78951 37.3335C7.29244 36.8256 8.04682 36.3176 8.54975 36.0637C9.30413 35.5557 9.80706 35.3018 10.5614 34.7938C10.5614 34.7938 10.5614 34.2859 10.5614 34.5399C9.30413 35.0478 7.79536 36.0637 6.78951 36.8256C5.5322 37.8414 4.52636 38.8573 3.52051 40.1272C3.52051 40.1272 3.52051 40.6351 3.77197 40.3811H3.52051Z" fill="#51483F"/>
<path d="M6.03466 42.4126C8.04636 41.1428 10.0581 39.8729 11.5668 37.8412C11.5668 37.8412 11.5668 37.3333 11.3154 37.5872C9.55513 39.111 7.7949 40.8888 5.7832 42.1587C5.7832 42.1587 5.7832 42.6666 5.7832 42.4126H6.03466Z" fill="#51483F"/>
<path d="M7.04096 45.4603C9.05265 44.4444 11.3158 42.6666 12.5731 40.8888C12.5731 40.8888 12.5731 40.3809 12.3217 40.8888C11.5673 41.6507 10.8129 42.6666 9.80704 43.4285C8.80119 44.1904 7.79534 44.9523 6.7895 45.4603C6.53803 45.4603 6.7895 45.9682 6.7895 45.9682H7.04096V45.4603Z" fill="#51483F"/>
<path d="M9.05224 47.4922C10.8125 45.7144 12.8242 44.1906 14.8359 42.9208C14.8359 42.9208 14.8359 42.4128 14.8359 42.6668C12.5727 43.6827 10.561 45.4605 8.80078 47.2382C8.80078 47.2382 8.80078 47.7462 9.05224 47.4922Z" fill="#51483F"/>
<path d="M11.064 50.0318C11.064 50.0318 13.5786 48.254 14.5844 47.4921C14.5844 47.4921 14.5844 46.9841 14.333 47.2381C13.0757 48 12.0698 49.0159 10.8125 49.7778V50.2857H11.064V50.0318Z" fill="#51483F"/>
<path d="M12.5732 53.0795C12.5732 53.0795 14.082 52.0637 14.5849 51.5557V51.3018C13.8306 51.8097 13.3276 52.3176 12.5732 52.8256C12.5732 52.8256 12.5732 53.3335 12.5732 53.0795Z" fill="#51483F"/>
<path d="M14.5851 55.111C14.5851 55.111 14.8365 54.603 14.5851 54.603C14.3336 54.603 14.3336 55.111 14.5851 55.111Z" fill="#51483F"/>
<path d="M3.52051 35.3014C3.52051 35.3014 5.78367 33.5236 6.53805 32.2538C6.53805 32.2538 6.53805 31.7459 6.53805 31.9998C5.28074 32.7617 4.27489 34.0316 3.52051 35.0474C3.52051 35.0474 3.52051 35.5554 3.77197 35.3014H3.52051Z" fill="#51483F"/>
<path d="M2.26318 33.2697C4.02341 31.9998 5.78365 30.73 7.04096 28.9522V28.6982C5.28072 29.9681 3.77195 31.4919 2.01172 32.7617C2.01172 32.7617 2.01172 33.2697 2.26318 33.0157V33.2697Z" fill="#51483F"/>
<path d="M2.01172 29.2061C2.01172 29.2061 4.27488 27.9363 5.53219 27.1744C4.27488 27.6823 3.26903 28.4442 2.01172 29.2061C2.01172 29.2061 2.01172 29.7141 2.01172 29.4601V29.2061Z" fill="#51483F"/>
<path d="M16.3447 64.0002C16.3447 64.0002 17.3506 63.2383 17.8535 62.9844C17.3506 63.2383 16.8477 63.7463 16.3447 64.0002Z" fill="#51483F"/>
<path d="M17.0991 62.7302C17.0991 62.7302 18.6079 61.7143 19.3623 61.4603C20.1167 60.9524 20.871 60.6984 21.374 60.1905V59.9365C20.6196 60.1905 19.8652 60.6984 19.1108 61.2064C18.3564 61.7143 17.602 62.2222 16.8477 62.7302C16.8477 62.7302 16.8477 63.2381 16.8477 62.9841L17.0991 62.7302Z" fill="#51483F"/>
<path d="M18.1055 60.1902C19.8657 59.9363 21.6259 58.9204 22.6318 57.6506C21.3745 58.6664 19.8657 59.6823 18.1055 60.1902C18.1055 60.1902 18.1055 60.6982 18.1055 60.4442V60.1902Z" fill="#51483F"/>
<path d="M19.8652 58.1586C21.1225 58.1586 22.8828 57.1428 23.6372 55.8729C23.6372 55.8729 23.6372 55.365 23.3857 55.619C22.8828 56.1269 22.3799 56.6348 21.8769 56.8888C21.374 57.1428 20.6196 57.3967 20.1167 57.6507V57.9047L19.8652 58.1586Z" fill="#51483F"/>
<path d="M21.626 55.6192C21.626 55.6192 23.1347 54.8573 23.8891 54.3493C24.6435 53.8414 25.1464 53.5874 25.9008 53.0795C25.9008 53.0795 25.9008 52.5715 25.9008 52.8255C24.3921 53.3334 23.1347 54.3493 21.8774 55.3652V55.8731L21.626 55.6192Z" fill="#51483F"/>
<path d="M23.1344 54.0952C23.1344 54.0952 24.6432 53.3333 25.1461 52.8254C25.9005 52.3175 26.4034 52.0635 27.1578 51.5555C27.1578 51.5555 27.1578 51.0476 27.1578 51.3016C26.4034 51.5555 25.9005 52.0635 25.1461 52.5714C24.3917 53.0794 23.6374 53.3333 23.1344 53.8413C22.883 53.8413 23.1344 54.3492 23.3859 54.3492L23.1344 54.0952Z" fill="#51483F"/>
<path d="M24.6437 51.5557C24.6437 51.5557 26.1525 50.7938 26.9069 50.2858C27.6613 49.7779 28.4156 49.5239 28.9186 49.016C28.9186 49.016 28.9186 48.5081 28.9186 48.762C28.1642 49.016 27.4098 49.5239 26.6554 50.0319C25.901 50.5398 25.1466 51.0477 24.3922 51.3017C24.1408 51.3017 24.3922 51.8096 24.6437 51.8096V51.5557Z" fill="#51483F"/>
<path d="M27.1584 49.0158C27.1584 49.0158 28.4157 48.2539 28.9186 47.746C29.4215 47.238 30.1759 46.9841 30.4274 46.4761V46.2222C29.673 46.2222 29.17 46.9841 28.6671 47.238C28.1642 47.746 27.4098 48.2539 26.9069 48.5079C26.6554 48.5079 26.9069 49.2698 27.1584 49.0158Z" fill="#51483F"/>
<path d="M28.4155 46.4761C28.4155 46.4761 29.9242 45.7142 30.1757 44.6983C30.1757 44.6983 29.9242 44.4444 29.9242 44.6983C29.6728 45.4602 29.1699 45.9682 28.4155 45.9682C28.164 45.9682 28.4155 46.4761 28.4155 46.4761Z" fill="#51483F"/>
<path d="M31.1813 42.9204C31.1813 42.9204 31.9357 42.6664 32.1872 42.4125C32.1872 42.4125 32.1872 41.9045 32.1872 42.1585C31.9357 42.1585 31.4328 42.4125 31.1813 42.6664C30.9298 42.6664 31.1813 43.1744 31.4328 43.1744L31.1813 42.9204Z" fill="#51483F"/>
<path d="M36.9648 29.2064C36.9648 29.2064 38.2222 28.4445 38.7251 28.1906C39.228 27.9366 39.9824 27.6826 40.4853 27.1747C40.4853 27.1747 40.4853 26.6668 40.4853 26.9207C39.9824 26.9207 39.228 27.4287 38.7251 27.9366C38.2222 28.1906 37.4678 28.6985 36.9648 28.9525C36.9648 28.9525 36.9648 29.4604 36.9648 29.2064Z" fill="#51483F"/>
<path d="M38.2227 26.9205C38.2227 26.9205 40.2344 25.6506 41.2402 24.8887V24.6348C40.2344 25.1427 39.2285 25.9046 38.2227 26.6665C38.2227 26.6665 38.2227 27.1744 38.2227 26.9205Z" fill="#51483F"/>
<path d="M38.7253 25.3967C38.7253 25.3967 40.4855 24.3809 41.2399 23.8729C41.2399 23.8729 41.2399 23.365 41.2399 23.619C40.234 23.8729 39.4796 24.6348 38.7253 25.1428C38.4738 25.1428 38.7253 25.6507 38.9767 25.6507L38.7253 25.3967Z" fill="#51483F"/>
<path d="M38.9766 23.6192C38.9766 23.6192 40.9883 22.3494 41.9941 21.5875V21.3335C40.9883 21.8414 39.9824 22.6033 38.9766 23.3652V23.8732V23.6192Z" fill="#51483F"/>
<path d="M39.731 21.5875C39.731 21.5875 40.7368 20.8256 41.2397 20.3177C41.7426 19.8098 42.2456 19.5558 42.497 19.0479C41.9941 19.3018 41.4912 19.8098 40.9883 20.3177C40.4853 20.8256 39.9824 21.3336 39.4795 21.5875C39.4795 21.5875 39.4795 22.0955 39.731 21.8415V21.5875Z" fill="#51483F"/>
<path d="M39.4795 20.0635C39.4795 20.0635 41.7427 18.7937 42.497 18.0318V17.7778C41.4912 18.2858 40.4853 19.0477 39.4795 19.8096V20.3175V20.0635Z" fill="#51483F"/>
<path d="M39.9829 18.5395C39.9829 18.5395 41.7431 17.0157 42.4975 16.2538C42.4975 16.2538 42.4975 15.7459 42.4975 15.9998C41.4917 16.7617 40.7373 17.5236 39.7314 18.2855C39.7314 18.2855 39.7314 18.7935 39.9829 18.5395Z" fill="#51483F"/>
<path d="M40.9883 15.9998C40.9883 15.9998 41.9941 15.2379 42.4971 14.9839V14.73C41.9941 14.73 41.4912 15.4919 40.9883 15.7459V16.2538V15.9998Z" fill="#51483F"/>
<path d="M40.7373 15.2381C40.7373 15.2381 41.4917 14.4762 41.7432 14.2222C41.4917 14.4762 40.9888 14.7302 40.7373 15.2381C40.7373 15.2381 40.7373 15.7461 40.9888 15.4921L40.7373 15.2381Z" fill="#51483F"/>
<path d="M40.4853 14.984C40.4853 14.984 40.4853 14.4761 40.4853 14.2221C40.4853 13.9681 40.9883 13.7142 41.2397 13.7142C41.7427 13.4602 41.9941 12.9523 41.9941 12.4443C41.9941 12.4443 41.9941 12.4443 41.7427 12.4443C41.4912 13.4602 40.2339 13.2062 39.9824 14.2221C39.9824 14.7301 39.9824 15.492 40.4853 15.492V15.238V14.984Z" fill="#51483F"/>
<path d="M39.9824 12.9525C39.9824 12.9525 40.9883 11.9366 41.4912 11.4287C40.9883 11.9366 40.4853 12.4446 39.9824 12.9525Z" fill="#51483F"/>
<path d="M40.9883 10.1587C40.9883 10.1587 40.4853 10.1587 40.4853 10.4127C40.4853 10.4127 40.2339 10.4127 39.9824 10.6666V10.9206H40.4853C40.4853 10.9206 40.9883 10.9206 40.9883 10.6666C41.2397 10.6666 40.9883 10.1587 40.7368 10.1587H40.9883Z" fill="#51483F"/>
<path d="M16.3447 16.5081C16.3447 16.5081 16.3447 16.5081 16.3447 16.2541C16.3447 16.2541 16.3447 16.2541 16.5962 16.2541C17.0991 15.7462 17.602 15.2382 18.105 14.7303C18.6079 14.2224 19.3623 14.2224 19.8652 13.7144V13.4604C18.6079 13.4604 17.0991 14.9843 16.3447 16.0001C16.3447 16.0001 16.3447 16.0001 16.3447 16.2541C16.3447 16.2541 16.3447 16.2541 16.3447 16.5081Z" fill="#51483F"/>
<path d="M17.0991 15.238C17.0991 15.238 19.3623 13.2063 20.871 12.4444V12.1904C19.3623 12.6984 17.8535 13.7142 16.8477 14.9841C16.8477 14.9841 16.8477 15.492 17.0991 15.238Z" fill="#51483F"/>
<path d="M15.5908 17.2696C15.5908 17.2696 18.1054 15.9998 19.1113 15.2379V14.9839C17.854 15.4918 16.5967 16.2537 15.5908 17.0156C15.5908 17.0156 15.5908 17.5236 15.5908 17.2696Z" fill="#51483F"/>
<path d="M14.0815 20.3176C14.0815 20.3176 15.3388 19.3017 15.8418 18.7938C16.5962 18.2858 17.0991 18.0319 17.8535 17.5239C16.3447 17.7779 14.8359 19.0477 13.8301 20.0636C13.8301 20.0636 13.8301 20.5715 14.0815 20.3176Z" fill="#51483F"/>
<path d="M13.5786 21.8413C13.5786 21.8413 15.0874 21.0794 15.5903 20.8254C16.0932 20.5715 16.8476 20.3175 17.3505 19.8096C16.5962 19.8096 16.0932 20.3175 15.3388 20.5715C14.5845 20.8254 13.8301 21.3334 13.3271 21.5873C13.3271 21.5873 13.3271 22.0953 13.3271 21.8413H13.5786Z" fill="#51483F"/>
<path d="M13.5786 23.3652C13.5786 23.3652 15.8418 22.3493 16.8476 21.8414C16.8476 21.8414 14.8359 23.6192 13.5786 24.3811V24.635C14.5845 24.1271 15.5903 23.8731 16.3447 23.1112C16.3447 23.1112 14.8359 24.1271 14.333 25.143C15.0874 24.889 15.5903 24.635 16.3447 24.3811C15.8418 25.3969 15.0874 26.1588 14.333 26.9207C15.3388 26.4128 16.3447 25.9049 17.3505 25.3969C16.8476 26.1588 16.3447 26.9207 15.8418 27.6826C16.0932 27.6826 16.5962 27.4287 16.8476 27.1747C17.0991 27.1747 17.602 26.6668 17.3505 27.1747C17.0991 27.9366 16.5962 28.4446 16.3447 29.2065C16.8476 28.4446 17.0991 27.4287 17.602 26.6668C17.0991 26.6668 16.3447 27.1747 15.8418 27.4287C16.3447 26.6668 16.8476 25.9049 17.3505 25.143C16.3447 25.6509 15.3388 26.1588 14.333 26.6668C15.0874 25.9049 15.8418 25.143 16.3447 24.1271C15.5903 24.1271 15.0874 24.635 14.333 24.889C14.5845 23.8731 15.3388 23.3652 16.0932 22.8573V22.6033C15.0874 22.8573 14.0815 23.3652 13.3271 23.8731C13.3271 23.8731 13.3271 23.8731 13.3271 24.1271C14.333 23.1112 15.5903 22.0953 16.5962 21.0795C16.5962 21.0795 16.5962 20.5715 16.5962 20.8255C15.5903 21.3334 14.333 21.8414 13.3271 22.3493C13.3271 22.3493 13.3271 22.8573 13.3271 22.6033L13.5786 23.3652Z" fill="#51483F"/>
<path d="M14.585 60.9522C16.5967 59.6824 18.6084 58.4126 20.62 56.8888C18.6084 58.1586 16.5967 59.4284 14.585 60.9522Z" fill="#51483F"/>
<path d="M17.0996 57.1429C17.0996 57.1429 19.3628 55.6191 20.6201 54.6032C21.6259 53.8413 22.8832 53.0794 23.8891 52.0636C22.6318 52.8255 21.6259 53.5874 20.6201 54.3493C19.6142 55.1112 18.3569 56.1271 17.3511 56.889C17.3511 56.889 17.3511 57.3969 17.3511 57.1429H17.0996Z" fill="#51483F"/>
<path d="M19.6143 53.0792C21.8774 51.8093 24.1406 50.5395 26.1523 49.0157V48.7617C23.8891 49.7776 21.626 51.3014 19.6143 52.5712C19.6143 52.5712 19.6143 53.0792 19.6143 52.8252V53.0792Z" fill="#51483F"/>
<path d="M22.6313 49.524C24.3915 48.5082 26.1518 46.9843 27.6605 45.4605C26.1518 46.9843 24.3915 48.2542 22.6313 49.2701C22.3798 49.2701 22.6313 49.778 22.6313 49.778V49.524Z" fill="#51483F"/>
<path d="M25.6494 43.4287C26.9067 42.6668 28.4155 41.6509 29.6728 40.889C29.6728 40.889 29.6728 40.3811 29.6728 40.6351C28.4155 41.397 26.9067 42.4129 25.6494 43.1748C25.6494 43.1748 25.6494 43.6827 25.6494 43.4287Z" fill="#51483F"/>
<path d="M27.1582 40.3808C28.9184 39.111 30.6787 38.0951 32.1874 36.8253C30.4272 37.8412 28.9184 39.111 27.1582 40.3808Z" fill="#51483F"/>
<path d="M28.4155 37.3336C30.1758 36.0638 31.936 34.7939 33.4448 33.2701C31.6845 34.5399 29.9243 35.8098 28.1641 37.0796V37.5876L28.4155 37.3336Z" fill="#51483F"/>
<path d="M32.1875 32.7618C32.1875 32.7618 34.4507 31.238 35.205 30.2222C33.9477 30.7301 33.1933 31.746 32.1875 32.7618C32.1875 32.7618 32.1875 33.2698 32.439 33.0158L32.1875 32.7618Z" fill="#51483F"/>
<path d="M31.9355 30.7303C33.1929 29.7144 34.7016 28.9525 35.9589 27.6827C34.4502 28.4446 33.1929 29.4605 31.9355 30.4764C31.9355 30.4764 31.9355 30.9843 31.9355 30.7303Z" fill="#51483F"/>
<path d="M34.1992 27.6826C34.1992 27.6826 35.4565 26.6667 36.2109 26.1588C35.4565 26.6667 34.9536 27.1746 34.1992 27.6826C34.1992 27.6826 34.1992 28.1905 34.1992 27.9366V27.6826Z" fill="#51483F"/>
<path d="M34.9531 25.1427C34.9531 25.1427 35.2046 24.8887 35.456 24.6348C35.456 24.6348 35.2046 24.8887 34.9531 25.1427Z" fill="#51483F"/>
</g>
<defs>
<clipPath id="clip0_1146_3343">
<rect width="43" height="64" fill="white"/>
</clipPath>
</defs>
</svg>
