<svg width="246" height="245" viewBox="0 0 246 245" fill="none" xmlns="http://www.w3.org/2000/svg">
<g clip-path="url(#clip0_735_1013)">
<path d="M177.545 92.6508C173.691 96.5742 169.547 100.137 165.581 103.942C164.973 104.525 165.826 105.431 166.471 104.898C170.683 101.412 174.813 97.4981 178.01 93.0354C178.207 92.7596 177.788 92.4116 177.55 92.6524L177.545 92.6508Z" fill="#978D84"/>
<path d="M185.704 91.4763C180.834 94.4453 175.99 98.0471 171.869 101.987C171.116 102.708 172.212 103.886 172.969 103.171C177.14 99.2353 181.984 95.9744 186.006 91.9085C186.21 91.7031 185.968 91.3174 185.702 91.4815L185.704 91.4763Z" fill="#978D84"/>
<path d="M192 91.1374C187.928 94.0856 183.663 96.9756 180.251 100.697C179.481 101.533 180.679 102.844 181.463 102.001C184.91 98.2954 188.924 95.2386 192.534 91.7077C192.905 91.3478 192.395 90.8474 192.002 91.1321L192 91.1374Z" fill="#978D84"/>
<path d="M199.578 90.0941C195.418 93.5613 190.602 96.4272 187.05 100.556C186.375 101.341 187.392 102.517 188.172 101.764C192.081 97.9763 196.348 94.6094 200.29 90.866C200.785 90.3959 200.09 89.6631 199.571 90.0978L199.578 90.0941Z" fill="#978D84"/>
<path d="M208.208 88.2485C203.676 91.5523 199.299 95.0222 195.247 98.9029C194.454 99.6638 195.614 100.912 196.412 100.153C200.464 96.3115 204.62 92.5759 208.918 89.0084C209.442 88.5753 208.739 87.8686 208.214 88.2501L208.208 88.2485Z" fill="#978D84"/>
<path d="M216.437 88.067C212.509 90.7857 208.818 93.8093 205.069 96.7639C204.292 97.3763 205.352 98.5205 206.122 97.8946C209.778 94.9116 213.264 91.7354 217.011 88.8651C217.454 88.5273 216.899 87.7458 216.437 88.067Z" fill="#978D84"/>
<path d="M226.108 86.3708C222.898 89.0108 219.452 91.3354 216.313 94.0594C215.703 94.5914 216.566 95.5225 217.173 94.9838C220.268 92.2352 223.611 89.7774 226.573 86.869C226.888 86.5606 226.447 86.0979 226.108 86.3708Z" fill="#978D84"/>
<path d="M222.018 96.5486C221.095 97.759 219.652 98.5399 218.503 99.5173C217.062 100.747 215.741 102.105 214.505 103.539C213.848 104.302 214.837 105.441 215.596 104.716C217.26 103.126 218.683 101.316 220.339 99.7135C221.233 98.8466 222.371 98.0192 222.566 96.7139C222.61 96.3977 222.176 96.3462 222.023 96.5502L222.018 96.5486Z" fill="#978D84"/>
<path d="M222.032 99.9742C218.573 102.852 215.568 106.19 212.768 109.693C212.017 110.637 213.607 111.611 214.352 110.688C217.097 107.311 219.637 103.798 222.712 100.702C223.162 100.247 222.525 99.5661 222.037 99.9758L222.032 99.9742Z" fill="#978D84"/>
<path d="M217.659 109.146C214.728 111.973 211.929 114.89 209.313 118.011C208.539 118.936 209.824 120.336 210.607 119.402C213.221 116.286 215.9 113.219 218.686 110.251C219.348 109.548 218.361 108.46 217.654 109.144L217.659 109.146Z" fill="#978D84"/>
<path d="M217.08 116.081C214.495 118.552 212.18 121.263 209.732 123.866C209.018 124.628 210.154 125.823 210.832 125.05C213.198 122.36 215.419 119.547 217.891 116.957C218.423 116.401 217.636 115.538 217.074 116.079L217.08 116.081Z" fill="#978D84"/>
<path d="M212.985 129.304C210.395 132.529 207.803 135.759 205.075 138.874C204.543 139.487 205.416 140.216 205.936 139.589C208.602 136.375 211.084 133.038 213.482 129.619C213.703 129.299 213.214 129.015 212.985 129.304Z" fill="#978D84"/>
<path d="M209.094 140.235C206.163 143.59 203.134 146.853 199.898 149.917C199.23 150.546 200.206 151.596 200.87 150.961C204.096 147.871 207.061 144.555 209.923 141.127C210.414 140.537 209.613 139.647 209.094 140.235Z" fill="#978D84"/>
<path d="M202.308 158.38C200.97 159.908 199.641 161.445 198.315 162.989C198 163.354 198.516 163.908 198.826 163.541C200.137 161.987 201.454 160.435 202.779 158.892C203.068 158.558 202.601 158.048 202.306 158.385L202.308 158.38Z" fill="#978D84"/>
<path d="M170.504 93.9873C167.234 97.4845 163.819 100.841 160.452 104.247C159.804 104.903 160.806 105.956 161.423 105.29C164.702 101.727 167.915 98.1333 170.863 94.2888C171.024 94.076 170.687 93.798 170.503 93.9925L170.504 93.9873Z" fill="#978D84"/>
<path d="M164.404 93.6801C159.766 97.3157 155.667 101.637 152.174 106.38C151.624 107.129 152.842 107.883 153.395 107.146C156.868 102.505 160.716 98.2049 164.748 94.0509C164.972 93.8174 164.655 93.4889 164.408 93.6869L164.404 93.6801Z" fill="#978D84"/>
<path d="M159.852 90.6129C166.573 89.4132 173.454 88.9665 180.227 88.0838C187.355 87.155 194.482 86.2142 201.586 85.0847C202.464 84.9463 202.134 83.6076 201.262 83.7424C194.17 84.8698 187.057 85.8998 179.954 86.9329C173.237 87.9121 166.346 88.5433 159.737 90.1065C159.412 90.1845 159.535 90.6649 159.859 90.6092L159.852 90.6129Z" fill="#978D84"/>
<path d="M212.345 78.2383C210.981 76.5535 208.779 75.6445 206.905 74.6298C204.033 73.0752 201.053 71.7439 198.23 70.1019C192.904 66.9997 187.923 63.2854 182.381 60.5612C179.913 59.3446 177.374 58.6637 174.714 58.0087C171.494 57.2127 168.585 55.9087 165.674 54.3311C163.278 53.0281 159.079 49.3451 156.176 50.7593C155.776 50.9513 156.024 51.6571 156.459 51.4985C158.385 50.7953 160.52 52.6616 162.073 53.625C164.175 54.9242 166.383 56.1136 168.625 57.154C173.649 59.483 179.063 60.009 183.97 62.7459C188.634 65.3415 193.04 68.3594 197.683 70.9883C200.076 72.3413 202.559 73.5057 205.028 74.6999C207.224 75.7605 210.266 76.8094 211.986 78.579C212.208 78.8051 212.537 78.4894 212.342 78.2487L212.345 78.2383Z" fill="#978D84"/>
<path d="M157.278 52.7858C159.379 54.8011 161.945 55.9391 164.552 57.1638C167.569 58.5801 170.551 60.0714 173.459 61.6991C176.338 63.3069 179.18 65.0001 181.995 66.7251C184.564 68.302 187.592 69.7558 189.54 72.1112L189.832 71.1423C186.778 71.9083 183.406 70.3849 180.729 69.0142C177.717 67.4686 174.736 65.6709 172.179 63.4497L171.911 64.3352C175.287 63.939 179.002 67.1915 181.564 69.0561C181.984 69.3645 182.38 68.694 181.99 68.383C179.209 66.1458 175.508 62.8292 171.662 63.2938C171.279 63.3373 171.105 63.9327 171.395 64.1793C174.35 66.725 177.83 68.8496 181.347 70.5307C184.018 71.8086 187.118 73.0057 190.107 72.288C190.561 72.1806 190.675 71.6523 190.4 71.3192C188.906 69.4761 186.845 68.3652 184.845 67.1475C181.705 65.2337 178.565 63.3199 175.35 61.5425C172.429 59.9221 169.432 58.4433 166.397 57.0499C163.371 55.6649 160.194 54.5354 157.563 52.4455C157.361 52.2824 157.09 52.6154 157.276 52.791L157.278 52.7858Z" fill="#978D84"/>
<path d="M167.315 62.7035C171.154 66.5791 175.849 69.2066 180.637 71.7316C186.026 74.5686 190.825 77.8698 195.857 81.2642C196.481 81.6856 197.069 80.7205 196.471 80.2846C191.814 76.9123 187.077 73.9709 181.944 71.3816C176.89 68.833 171.875 66.2283 167.702 62.3431C167.453 62.1143 167.07 62.459 167.315 62.7035Z" fill="#978D84"/>
<path d="M194.523 75.7408C197.639 77.7723 200.379 80.3326 203.651 82.1273C204.374 82.5219 205.058 81.4267 204.33 81.0478C201.025 79.34 198.091 77.0279 194.802 75.2905C194.502 75.1319 194.228 75.5494 194.518 75.7392L194.523 75.7408Z" fill="#978D84"/>
<path d="M164.951 59.0514C160.923 57.5516 157.512 54.3113 153.763 52.2304C149.94 50.1103 145.932 48.3552 141.917 46.6262C141.468 46.4339 141.11 47.2067 141.561 47.4109C145.965 49.4165 150.359 51.4758 154.562 53.8813C157.926 55.806 161.025 58.5145 164.792 59.5947C165.147 59.7018 165.301 59.1741 164.959 59.0425L164.951 59.0514Z" fill="#978D84"/>
<path d="M133.461 42.6136C131.155 40.6557 128.782 38.7857 126.365 36.9652C126.078 36.7478 125.787 37.2225 126.069 37.4384C128.442 39.2687 130.849 41.0637 133.175 42.9591C133.371 43.1205 133.661 42.7818 133.461 42.6136Z" fill="#978D84"/>
<path d="M143.246 52.8416C147.591 54.8747 151.978 56.898 155.954 59.6043C159.903 62.2907 163.025 65.7337 166.39 69.0683C172.804 75.4314 181.332 78.6535 188.218 84.4145C188.813 84.9125 189.69 84.1768 189.127 83.5695C186.197 80.3603 182.184 78.2628 178.454 76.1366C173.986 73.5888 169.963 70.8856 166.287 67.2584C163.064 64.0747 159.866 61.035 156.004 58.6302C152.025 56.1564 147.709 54.3136 143.419 52.4563C143.203 52.3625 143.027 52.7358 143.246 52.8416Z" fill="#978D84"/>
<path d="M195.116 64.7288C204.415 70.2067 214.422 74.3581 223.951 79.4164C224.368 79.6388 224.763 79.0251 224.345 78.7907C214.931 73.483 204.736 69.7294 195.345 64.366C195.107 64.2315 194.881 64.5839 195.118 64.7236L195.116 64.7288Z" fill="#978D84"/>
<path d="M112.921 43.9216C106.29 40.221 99.2407 37.6614 92.4451 34.3373C89.2309 32.7647 86.1197 31.0016 83.0478 29.1651C81.3705 28.1587 79.805 27.0837 78.2255 25.942C77.4084 25.3487 77.0209 25.067 76.0299 24.9554C75.447 24.8875 75.2856 25.8561 75.8668 25.986C77.2809 26.2992 78.4385 27.575 79.627 28.3713C81.081 29.3444 82.6112 30.2155 84.1311 31.0834C87.1024 32.7816 90.1276 34.3767 93.2444 35.8005C99.6929 38.747 106.361 41.0608 112.677 44.3313C112.943 44.4684 113.196 44.0843 112.928 43.9352L112.921 43.9216Z" fill="#978D84"/>
<path d="M85.2308 24.8908C87.9739 26.7417 91.086 28.1243 94.0503 29.5817C94.9126 30.0068 99.9426 31.9569 99.7052 33.1583C99.3402 35.0089 92.2736 30.9039 91.5148 30.4191C89.5018 29.1295 87.5135 27.6258 85.1651 27.0136C84.505 26.8428 84.2356 27.7731 84.8616 28.0189C89.8536 29.9632 94.6833 35.6323 100.48 34.1763C100.683 34.1241 100.908 33.9078 100.88 33.6779C100.656 31.5185 98.2994 30.4038 96.5535 29.587C92.8713 27.8675 89.1646 26.1917 85.4646 24.5123C85.2043 24.394 84.9727 24.7276 85.2224 24.8996L85.2308 24.8908Z" fill="#978D84"/>
<path d="M91.0087 25.2878C97.1474 27.1292 100.786 31.4839 104.958 35.994C108.56 39.8832 113.38 42.2645 117.669 45.2753C118.054 45.545 118.424 44.9407 118.053 44.6636C113.042 40.9346 107.896 37.9892 103.723 33.2399C100.278 29.3187 96.2561 26.1782 91.1434 24.8226C90.8429 24.7433 90.7009 25.1949 91.0035 25.2862L91.0087 25.2878Z" fill="#978D84"/>
<path d="M112.664 47.4131C108.959 46.0334 105.706 43.6476 102.192 41.8597C98.6579 40.0655 95.1549 38.2239 91.655 36.3718C84.9479 32.83 77.9793 29.6639 72.2464 24.5917C71.7881 24.1863 71.0827 24.8259 71.5415 25.2486C77.2382 30.4973 84.3012 33.709 91.131 37.2026C94.8146 39.0873 98.508 40.958 102.219 42.7886C105.668 44.4888 108.847 46.6873 112.516 47.9027C112.832 48.0092 112.973 47.5232 112.666 47.4079L112.664 47.4131Z" fill="#978D84"/>
<path d="M70.173 28.0071C79.5508 33.2814 88.3325 39.5125 96.8094 46.1119C105.015 52.4986 113.303 57.9499 123.25 61.2422C123.949 61.4756 124.269 60.3958 123.579 60.1535C113.462 56.5372 105.14 50.8769 96.6423 44.4588C88.3351 38.1834 79.6693 32.4363 70.5438 27.42C70.1531 27.2054 69.7839 27.7874 70.173 28.0071Z" fill="#978D84"/>
<path d="M89.9554 45.7314C87.5596 42.428 84.2043 40.1536 80.6016 38.3217C78.8939 37.4539 77.1375 36.6908 75.357 35.9885C73.8013 35.3713 71.7928 34.2365 70.1097 34.0979C68.4664 33.9599 68.2298 35.3094 68.9657 36.6057C70.2907 38.9493 73.51 40.1653 75.7973 41.282C76.1102 41.4333 76.4005 40.9809 76.0906 40.8192C74.2546 39.8672 72.3225 38.9885 70.7239 37.6649C70.3599 37.3618 69.3811 36.6629 69.3244 36.1342C69.0632 33.7366 70.29 34.7832 71.0352 34.9171C72.1633 35.1212 73.4094 35.8213 74.4851 36.2369C80.0561 38.4128 85.8946 41.1923 89.5692 46.0866C89.7772 46.3596 90.1544 45.9961 89.9569 45.7262L89.9554 45.7314Z" fill="#978D84"/>
<path d="M114.205 86.2871C113.71 87.9279 111.283 89.6506 110.075 90.7692C108.534 92.1967 106.943 93.5808 105.555 95.1624C105.009 95.782 105.861 96.7324 106.445 96.1186C108.241 94.2226 110.208 92.4973 111.988 90.5793C112.85 89.6461 115.064 87.7796 114.73 86.3033C114.667 86.04 114.282 86.0319 114.205 86.2871Z" fill="#978D84"/>
<path d="M118.375 88.8586C112.826 92.7419 106.824 96.9151 103.309 102.845C102.802 103.698 104.064 104.494 104.616 103.665C108.391 98.0417 113.706 93.8034 118.74 89.3665C119.004 89.1336 118.673 88.6471 118.377 88.8534L118.375 88.8586Z" fill="#978D84"/>
<path d="M115.618 97.2444C110.916 102.242 106.119 107.177 100.927 111.668C100.11 112.376 101.254 113.602 102.071 112.894C107.28 108.368 111.909 103.292 116.314 97.9944C116.724 97.5043 116.078 96.7581 115.618 97.2444Z" fill="#978D84"/>
<path d="M112.553 106.305C107.4 111.326 102.137 116.261 97.7276 121.967C97.1494 122.713 98.3825 123.739 99.0066 123.029C103.722 117.684 108.546 112.433 113.356 107.173C113.866 106.616 113.103 105.766 112.548 106.304L112.553 106.305Z" fill="#978D84"/>
<path d="M109.923 116.225C104.864 121.461 98.9415 126.033 94.9793 132.22C94.5374 132.911 95.5588 133.827 96.1222 133.168C100.83 127.66 106.109 122.712 110.953 117.337C111.596 116.622 110.607 115.522 109.921 116.23L109.923 116.225Z" fill="#978D84"/>
<path d="M101.511 131.895C99.5686 133.992 97.5901 136.077 95.5578 138.095C94.8257 138.823 95.8703 139.946 96.6503 139.266C98.8291 137.366 100.765 135.308 102.662 133.135C103.366 132.33 102.254 131.091 101.511 131.895Z" fill="#978D84"/>
<path d="M109.106 90.5677C110.166 89.4498 111.447 88.6373 112.672 87.7283C113.524 87.0932 114.803 86.1947 114.475 84.9816C114.333 84.4502 113.521 84.239 113.233 84.7773C112.1 86.8905 109.408 87.9992 108.597 90.2549C108.495 90.5367 108.895 90.7939 109.104 90.5729L109.106 90.5677Z" fill="#978D84"/>
<path d="M110.785 86.1353C110.891 86.0876 111.146 86.0339 111.229 86.0247C111.241 86.0227 111.406 86.0215 111.477 86.0315C111.603 86.0469 111.388 86.0047 111.514 86.0425C111.581 86.063 111.644 86.0819 111.712 86.1024C112.163 86.2498 112.636 85.9266 112.711 85.4717C112.789 84.984 112.43 84.6085 111.96 84.5632C111.186 84.4886 110.314 84.7369 110.072 85.5563C109.943 85.9834 110.401 86.3149 110.78 86.1338L110.785 86.1353Z" fill="#978D84"/>
<path d="M55.1543 42.5136C57.8995 42.2453 60.5145 41.2954 63.2931 41.4066C64.018 41.4378 64.0444 40.3319 63.319 40.2834C60.457 40.0902 57.8462 41.4222 55.0939 41.9782C54.7974 42.0365 54.838 42.5432 55.1543 42.5136Z" fill="#978D84"/>
<path d="M57.3568 46.4578C61.2745 45.492 65.1867 44.8086 69.239 44.7927C70.0302 44.7928 70.0615 43.5576 69.2687 43.5627C65.1371 43.5774 61.1013 44.5758 57.2504 45.9995C56.9741 46.1036 57.0556 46.5317 57.362 46.4594L57.3568 46.4578Z" fill="#978D84"/>
<path d="M63.8704 49.7935C67.1596 49.3256 70.499 49.2764 73.8032 48.9097C74.5455 48.8269 74.276 47.6827 73.5322 47.7708C70.2425 48.1646 66.9597 48.4412 63.7208 49.1573C63.3063 49.2482 63.4668 49.8479 63.8719 49.7883L63.8704 49.7935Z" fill="#978D84"/>
<path d="M73.9917 53.9624C76.5097 53.3527 79.0586 53.0933 81.65 53.1082C82.3655 53.1139 82.3935 52.0027 81.678 51.997C78.9796 51.9782 76.3794 52.3699 73.7954 53.1416C73.2827 53.2937 73.4629 54.0926 73.9917 53.9624Z" fill="#978D84"/>
<path d="M82.1339 56.3344C83.8549 56.1207 85.5723 55.957 87.2825 55.6661C88.1882 55.5133 87.8554 54.0886 86.947 54.2691C85.2571 54.6058 83.5434 54.8331 81.8457 55.1391C81.0516 55.2803 81.3644 56.4318 82.1339 56.3344Z" fill="#978D84"/>
<path d="M134.316 86.0086C140.695 90.2018 147.462 93.7162 154.338 97.0191C155.099 97.3851 155.82 96.2785 155.048 95.8922C148.222 92.4794 141.259 89.3149 134.672 85.4512C134.304 85.2377 133.959 85.7759 134.319 86.0154L134.316 86.0086Z" fill="#978D84"/>
<path d="M148.554 87.1004C151.356 88.6622 154.181 90.2027 156.873 91.9415C157.677 92.4628 158.45 91.224 157.662 90.6849C154.994 88.868 152.188 87.3562 149.325 85.8668C148.502 85.4423 147.727 86.6348 148.55 87.0937L148.554 87.1004Z" fill="#978D84"/>
<path d="M197.068 93.0019C207.864 90.0314 218.983 91.5347 229.991 90.6173C230.61 90.5654 230.667 89.6221 230.017 89.6249C219.09 89.6914 207.478 89.1195 196.955 92.5248C196.665 92.619 196.765 93.081 197.069 92.9967L197.068 93.0019Z" fill="#978D84"/>
<path d="M207.258 86.5863C217.122 84.9487 226.816 82.3673 236.824 81.688C237.533 81.6405 237.562 80.5241 236.852 80.5768C226.763 81.3341 217.04 84.2021 207.134 86.0716C206.796 86.1345 206.922 86.644 207.258 86.5863Z" fill="#978D84"/>
<path d="M188.276 201.726C186.585 206.308 186.969 211.732 189.557 215.906C189.941 216.522 190.917 216.021 190.562 215.368C188.369 211.319 187.544 206.358 188.855 201.901C188.968 201.526 188.408 201.362 188.276 201.726Z" fill="#978D84"/>
<path d="M127.181 194.858C125.748 199.228 124.31 203.596 122.677 207.895C121.17 211.85 119.742 216.148 117.389 219.683C116.753 220.639 118.194 221.483 118.872 220.614C121.306 217.512 122.345 212.955 123.598 209.275C125.194 204.591 126.547 199.827 127.887 195.065C128.013 194.609 127.325 194.401 127.177 194.851L127.181 194.858Z" fill="#978D84"/>
<path d="M100.296 140.201C99.0155 143.651 97.1155 146.778 94.6278 149.494C94.0514 150.121 94.9862 150.909 95.534 150.244C97.9615 147.294 99.7087 144.014 100.75 140.338C100.838 140.047 100.403 139.921 100.301 140.203L100.296 140.201Z" fill="#978D84"/>
<path d="M16.2125 152.146C24.6153 151.466 33.0216 150.962 41.4554 151.348C42.2477 151.383 42.2695 150.179 41.4851 150.118C33.0469 149.464 24.6345 150.232 16.2409 151.052C15.555 151.118 15.5057 152.206 16.2125 152.146Z" fill="#978D84"/>
<path d="M17.0659 154.183C24.9295 153.987 32.8022 153.573 40.6747 153.857C41.3615 153.883 41.3878 152.834 40.7005 152.791C32.8012 152.294 24.9552 153.035 17.0827 153.637C16.7388 153.663 16.711 154.189 17.0711 154.184L17.0659 154.183Z" fill="#978D84"/>
<path d="M24.879 157.609C30.2624 157.427 35.649 157.592 41.0329 157.842C41.8753 157.88 41.9014 156.586 41.0622 156.538C35.6747 156.224 30.3069 156.054 24.9109 156.278C24.0586 156.31 24.0162 157.639 24.879 157.609Z" fill="#978D84"/>
<path d="M81.6502 151.88C89.5855 152.428 97.5377 152.731 105.47 153.403C106.208 153.466 106.238 152.31 105.5 152.247C97.5683 151.592 89.6169 151.494 81.6688 151.215C81.2408 151.199 81.227 151.849 81.6502 151.88Z" fill="#978D84"/>
<path d="M89.9369 155.154C98.2089 155.547 106.48 155.776 114.704 156.837C115.202 156.903 115.348 156.043 114.845 155.954C106.618 154.505 98.2742 154.652 89.9539 154.494C89.5243 154.483 89.5089 155.138 89.9353 155.159L89.9369 155.154Z" fill="#978D84"/>
<path d="M98.9946 212.727C104.079 213.761 109.279 213.62 114.421 214.183C115.131 214.261 115.131 213.187 114.449 213.089C109.394 212.371 104.272 212.802 99.2263 211.979C98.743 211.901 98.4953 212.627 98.9999 212.729L98.9946 212.727Z" fill="#978D84"/>
<path d="M106.887 217.553C109.659 217.969 112.463 217.957 115.24 218.301C115.953 218.391 115.993 217.238 115.266 217.178C112.478 216.944 109.689 217.131 106.901 216.995C106.532 216.974 106.544 217.5 106.887 217.553Z" fill="#978D84"/>
<path d="M93.6676 208.744C100.771 209.2 107.851 209.223 114.964 208.988C115.711 208.964 115.75 207.816 114.992 207.82C107.896 207.866 100.783 207.896 93.693 207.547C92.9196 207.506 92.8957 208.698 93.666 208.749L93.6676 208.744Z" fill="#978D84"/>
<path d="M169.354 206.905C174.035 207.448 178.751 207.57 183.425 208.23C184.074 208.324 184.099 207.297 183.448 207.209C178.774 206.588 174.063 206.581 169.37 206.211C168.919 206.177 168.915 206.852 169.354 206.905Z" fill="#978D84"/>
<path d="M174.096 211.66C178.414 211.611 182.708 212.077 186.982 212.628C187.523 212.701 187.681 211.765 187.133 211.674C182.787 210.947 178.512 210.72 174.109 211.011C173.702 211.041 173.668 211.662 174.096 211.66Z" fill="#978D84"/>
<path d="M186.153 216.3C189.391 215.964 192.632 216.431 195.876 216.057C196.455 215.987 196.352 215.007 195.768 215.036C192.52 215.18 189.28 214.805 186.039 215.208C185.424 215.284 185.53 216.367 186.159 216.301L186.153 216.3Z" fill="#978D84"/>
<path d="M179.387 204.92C177.91 204.514 176.445 204.123 174.925 203.897C174.326 203.807 174.273 204.814 174.903 204.857C176.379 204.966 177.84 205.237 179.301 205.468C179.617 205.518 179.686 205.004 179.387 204.92Z" fill="#978D84"/>
<path d="M50.6095 26.0018C53.67 29.5171 57.7203 31.5069 61.636 33.905C65.9272 36.5301 70.06 39.3972 74.4548 41.849C83.5791 46.9445 92.8286 51.7765 101.855 57.047C120.022 67.6569 137.928 78.665 156.409 88.7445C157.851 89.532 159.221 87.3707 157.772 86.5869C139.443 76.6047 121.684 65.6975 103.644 55.2114C94.743 50.0355 85.6779 45.1966 76.5986 40.3477C72.1615 37.9798 67.9587 35.1938 63.6199 32.651C59.4636 30.22 54.9554 28.3138 51.0429 25.4903C50.7206 25.2567 50.3688 25.7245 50.6132 26.0086L50.6095 26.0018Z" fill="#978D84"/>
<path d="M47.9366 30.5942C51.0058 34.2315 55.1286 36.2829 59.1037 38.7671C63.446 41.4872 67.6318 44.4613 72.086 46.9992C81.2801 52.2408 90.6092 57.2049 99.7019 62.6318C118.163 73.6484 136.329 85.0933 155.123 95.5513C156.556 96.3476 157.924 94.1916 156.486 93.3937C137.841 83.0262 119.814 71.6858 101.486 60.7946C92.5221 55.4691 83.3945 50.4976 74.2439 45.5078C69.7422 43.0522 65.4967 40.1624 61.1001 37.5282C56.8928 35.0023 52.3069 33.0328 48.3663 30.0759C48.0456 29.837 47.6974 30.3117 47.9366 30.5942Z" fill="#978D84"/>
<path d="M127.842 22.9243C143.413 32.7672 159.867 41.1891 176.209 49.6623C184.262 53.8377 192.313 58.0182 200.36 62.2144C207.516 65.9485 214.636 69.9504 222.006 73.2602C224.316 74.2987 226.653 75.271 228.956 76.3355C230.109 76.8712 231.261 77.412 232.383 78.0123C232.869 78.2723 233.351 78.634 233.849 78.8525C234.392 79.0902 234.447 79.6637 234.385 78.9062C234.5 80.356 236.788 80.4328 236.674 78.9606C236.57 77.6448 235.236 76.992 234.207 76.403C232.049 75.1777 229.748 74.182 227.485 73.1749C221.281 70.4159 215.257 67.3644 209.225 64.2478C191.99 55.3348 174.733 46.4604 157.516 37.5126C147.757 32.4418 138.05 27.2783 128.274 22.2476C127.826 22.0158 127.409 22.6456 127.849 22.9207L127.842 22.9243Z" fill="#978D84"/>
<path d="M49.6682 25.7404C62.6367 26.4549 75.7166 24.8386 88.7002 24.7677C95.0223 24.7378 101.316 24.5004 107.63 24.2522C113.932 24.006 120.241 24.097 126.533 23.5808C128.045 23.4573 128.115 21.0744 126.59 21.2052C120.466 21.7269 114.323 21.6743 108.188 21.9141C101.707 22.1688 95.2459 22.4694 88.7561 22.5453C75.6545 22.7057 62.7482 24.4255 49.682 25.091C49.2707 25.1146 49.2433 25.7145 49.6682 25.7404Z" fill="#978D84"/>
<path d="M157.318 88.2402C172.371 86.0485 187.495 84.6003 202.627 83.0521C209.892 82.3122 217.14 81.59 224.428 81.0957C227.234 80.9083 230.043 80.6933 232.845 80.4422C234.155 80.3262 235.976 80.4437 237.161 79.7613C238.271 79.1189 237.646 77.3444 236.354 77.6424C234.843 77.9931 232.903 77.9306 231.295 78.0705C228.19 78.3438 225.079 78.5812 221.969 78.8133C214.91 79.3425 207.885 80.172 200.85 80.9415C186.22 82.5445 171.535 84.3299 157.192 87.6963C156.836 87.782 156.973 88.2895 157.324 88.2417L157.318 88.2402Z" fill="#978D84"/>
<path d="M155.632 94.4266C161.997 94.9895 168.434 94.3349 174.756 93.5717C181.549 92.7521 188.368 92.1333 195.16 91.3018C201.799 90.4866 208.362 89.1881 214.986 88.2889C221.878 87.3513 228.966 86.99 235.797 85.7097C237.064 85.4727 236.851 83.442 235.555 83.4544C229.048 83.5308 222.357 84.8984 215.914 85.7614C209.294 86.6449 202.727 87.9022 196.127 88.9281C189.719 89.921 183.265 90.576 176.849 91.5382C169.795 92.5974 162.774 93.5301 155.641 93.9065C155.311 93.9261 155.295 94.3931 155.629 94.4198L155.632 94.4266Z" fill="#978D84"/>
<path d="M154.752 94.1551C150.343 104.424 147.514 115.42 144.253 126.093C141.088 136.464 137.951 146.839 134.849 157.23C128.541 178.355 122.15 199.455 116.136 220.663C115.834 221.72 117.436 222.204 117.769 221.156C124.493 200.162 130.842 179.049 137.275 157.962C140.44 147.59 143.566 137.212 146.668 126.822C149.862 116.129 153.583 105.402 155.592 94.4086C155.694 93.8428 154.969 93.6239 154.741 94.152L154.752 94.1551Z" fill="#978D84"/>
<path d="M158.448 104.869C151.711 124.245 145.877 143.934 139.929 163.565C137.018 173.172 134.118 182.782 131.236 192.404C129.808 197.174 128.331 201.934 126.66 206.624C124.954 211.406 123.489 216.846 119.994 220.673C119.227 221.516 120.405 222.821 121.22 221.987C124.18 218.953 125.732 215.13 127.309 211.264C129.323 206.325 130.953 201.225 132.529 196.136C135.598 186.213 138.521 176.246 141.512 166.299C147.626 145.967 153.892 125.659 159.182 105.096C159.304 104.616 158.61 104.407 158.446 104.874L158.448 104.869Z" fill="#978D84"/>
<path d="M144.968 103.375C138.291 123.48 132.04 143.719 125.871 163.988C122.861 173.884 120.007 183.832 116.992 193.726C115.541 198.494 113.64 203.115 112.784 208.046C112.185 211.502 111.532 215.852 112.547 219.278C112.931 220.571 114.962 220.104 114.596 218.789C113.487 214.788 114.692 209.304 115.72 205.448C116.984 200.692 118.873 196.113 120.233 191.38C123.003 181.77 125.867 172.188 128.732 162.601C134.598 142.996 140.366 123.356 145.74 103.609C145.875 103.104 145.124 102.877 144.963 103.374L144.968 103.375Z" fill="#978D84"/>
<path d="M215.747 97.6514C208.535 119.095 202.062 140.767 195.469 162.403C192.283 172.865 188.572 183.276 185.869 193.873C184.855 197.835 183.556 202.496 184.046 206.627C184.23 208.166 184.506 212.006 186.014 212.911C187.278 213.667 188.499 211.734 187.235 210.977C187.688 211.25 187.144 210.092 187.058 209.736C186.872 208.975 186.712 208.205 186.569 207.434C186.273 205.793 186.358 204.228 186.593 202.582C187.301 197.653 188.7 192.846 190.181 188.11C193.272 178.245 196.28 168.354 199.242 158.449C205.255 138.338 211.339 118.253 216.777 97.9736C216.958 97.3006 215.961 96.9998 215.739 97.6603L215.747 97.6514Z" fill="#978D84"/>
<path d="M229.758 87.3136C222.221 108.21 216.118 129.676 209.668 150.934C203.211 172.213 196.744 193.489 190.532 214.843C190.167 216.091 192.076 216.667 192.468 215.427C199.107 194.203 205.491 172.901 211.885 151.603C218.271 130.331 225.063 109.074 230.347 87.4916C230.441 87.105 229.888 86.9381 229.753 87.312L229.758 87.3136Z" fill="#978D84"/>
<path d="M159.037 104.82C161.076 105.362 163.282 104.994 165.356 104.761C168.248 104.441 171.116 103.993 173.989 103.565C179.646 102.72 185.345 102.116 191.025 101.46C201.711 100.23 212.437 99.1136 222.966 96.915C224.302 96.6364 223.939 94.8217 222.725 94.6769C220.616 94.4212 218.482 95.1182 216.44 95.5647C213.754 96.1465 211.015 96.5248 208.291 96.9131C202.71 97.7123 197.104 98.3503 191.507 99.0312C186 99.6992 180.453 100.253 174.977 101.158C172.119 101.631 169.274 102.175 166.426 102.708C163.981 103.17 161.251 103.295 158.977 104.319C158.76 104.418 158.804 104.761 159.026 104.817L159.037 104.82Z" fill="#978D84"/>
<path d="M58.4842 48.7987C63.6202 54.5659 70.5517 58.1755 77.1086 62.0641C84.7759 66.6119 92.5123 71.0441 100.032 75.837C107.488 80.5938 114.796 85.5562 122.347 90.171C125.96 92.3813 129.549 94.6578 133.302 96.6318C136.716 98.4294 140.303 100.086 143.259 102.609C144.625 103.778 146.251 101.842 144.841 100.706C141.946 98.3769 138.63 96.728 135.336 95.0406C131.772 93.2145 128.353 91.1485 124.925 89.0793C117.19 84.4146 109.688 79.4336 102.071 74.5883C94.6781 69.8848 87.045 65.5633 79.4945 61.119C72.5229 57.0199 65.3719 53.2134 58.9526 48.2466C58.6209 47.9874 58.2325 48.501 58.4962 48.7966L58.4842 48.7987Z" fill="#978D84"/>
<path d="M109.579 81.6402C106.953 87.3211 105.263 93.5456 103.367 99.5038C101.311 105.959 99.1804 112.414 97.3535 118.939C95.6529 125.007 93.4756 130.863 91.6352 136.866C90.5002 140.57 88.91 147.234 91.9296 150.47C92.9544 151.564 94.6124 150.012 93.6283 148.897C91.8812 146.915 92.9452 142.013 93.4724 139.813C94.0474 137.418 94.9411 135.136 95.8171 132.837C97.9467 127.234 99.253 121.359 100.925 115.612C102.577 109.933 104.242 104.263 105.868 98.5762C107.436 93.0764 109.259 87.4714 110.13 81.8123C110.177 81.5252 109.692 81.3787 109.572 81.6438L109.579 81.6402Z" fill="#978D84"/>
<path d="M52.9467 34.4592C48.84 45.2173 45.6223 56.312 42.2539 67.3214C38.8839 78.336 35.5259 89.3485 32.1871 100.373C28.8657 111.339 25.2541 122.287 22.3204 133.365C21.6649 135.838 21.2839 138.383 20.5435 140.836C19.8831 143.024 18.8513 145.122 18.5213 147.404C17.9023 151.662 20.2831 151.431 23.6567 151.966C24.6075 152.117 24.8704 150.491 23.9249 150.285C23.316 150.153 22.0576 150.211 21.5683 149.927C19.7277 148.877 20.9662 146.358 21.4365 145.045C22.1907 142.942 22.9573 140.911 23.4746 138.726C24.5879 134.038 25.963 129.463 27.3752 124.859C30.4324 114.881 33.4426 104.889 36.4476 94.8952C42.447 74.9613 49.1756 55.0259 53.7486 34.7069C53.8677 34.1802 53.1336 33.9529 52.9399 34.4628L52.9467 34.4592Z" fill="#978D84"/>
<path d="M58.3804 48.6142C52.4648 65.7431 47.2879 83.1404 41.9586 100.458C39.3192 109.033 36.7162 117.619 34.1117 126.211C32.8288 130.461 31.6774 134.785 30.2448 138.985C29.5319 141.083 28.4247 142.903 27.2043 144.74C26.0863 146.425 25.0115 149.119 23.3613 150.286C22.3547 151 23.2304 152.719 24.2872 152.009C25.5774 151.148 26.264 150.099 27.074 148.792C28.2036 146.974 29.5653 145.31 30.6599 143.475C32.8283 139.856 33.6781 135.474 34.8991 131.467C37.6598 122.377 40.3891 113.277 43.0872 104.168C48.5347 85.7616 54.1898 67.3834 59.0081 48.798C59.115 48.387 58.5114 48.1991 58.3716 48.6059L58.3804 48.6142Z" fill="#978D84"/>
<path d="M49.5252 25.2316C49.2134 25.4727 49.1141 25.9713 48.9571 26.3218C48.708 26.8831 48.462 27.4341 48.239 28.0033C47.8782 28.9345 47.3118 30.2639 48.1245 31.1173C48.7682 31.7947 50.167 31.4042 50.104 30.3679C50.0642 29.6511 50.226 28.8133 50.4463 27.9136C50.6225 27.2166 51.0882 25.8624 50.4897 25.2612C50.2093 24.9833 49.8251 24.9924 49.5216 25.2248L49.5252 25.2316Z" fill="#978D84"/>
<path d="M158.156 88.4988C158.267 88.3219 158.372 88.1433 158.48 87.9715C158.315 87.7455 158.155 87.521 157.99 87.295C157.224 88.3426 156.624 89.6902 156.079 90.8728C155.578 91.9663 155.124 93.1136 155.928 94.1462C156.297 94.6213 157.086 94.4786 157.381 94.0107C157.7 93.499 157.676 93.0882 157.75 92.5025C157.833 91.8512 158.027 91.2277 158.231 90.6073C158.556 89.6083 159.035 88.4913 158.803 87.4322C158.695 86.9395 157.911 87.0097 157.914 87.5278C157.911 87.8223 157.857 88.113 157.767 88.3927C157.704 88.6407 158.058 88.7478 158.148 88.5077L158.156 88.4988Z" fill="#978D84"/>
<path d="M236.738 78.6163C236.371 79.6251 236.107 80.6706 235.745 81.681C235.364 82.7367 234.857 83.7374 234.482 84.7895C233.999 86.1442 236.219 86.8254 236.632 85.4383C237.233 83.4089 237.763 80.7101 237.225 78.6267C237.162 78.3805 236.826 78.3814 236.74 78.611L236.738 78.6163Z" fill="#978D84"/>
<path d="M112.694 218.658C113.721 219.821 114.019 221.889 115.594 222.517C117.127 223.134 119.208 222.5 120.601 221.807C121.915 221.152 120.847 219.335 119.548 219.846C118.288 220.341 116.467 220.962 115.255 220.017C114.463 219.397 114.004 218.468 112.957 218.238C112.711 218.186 112.516 218.457 112.694 218.658Z" fill="#978D84"/>
<path d="M187.676 213.196C187.657 213.748 188.184 214.151 188.57 214.478C189.098 214.933 189.637 215.374 190.159 215.833C190.577 216.203 191.105 216.34 191.617 216.074C191.651 216.056 191.684 216.043 191.713 216.023C192.304 215.724 192.525 214.933 192.216 214.356C192.143 214.22 192.048 214.101 191.953 213.981C192.058 214.257 192.166 214.54 192.27 214.816C192.271 214.776 192.273 214.731 192.274 214.692C192.282 213.495 190.83 213.193 190.161 214.054C189.965 214.308 189.901 214.595 189.903 214.908C190.036 214.619 190.163 214.328 190.296 214.038C190.271 214.065 190.246 214.091 190.226 214.119C190.618 214.027 191.009 213.941 191.401 213.849C190.741 213.604 190.067 213.384 189.403 213.149C188.919 212.98 188.328 212.694 187.831 212.947C187.737 212.993 187.685 213.091 187.677 213.191L187.676 213.196Z" fill="#978D84"/>
<path d="M118.956 89.1817C114.206 99.9614 111.412 111.707 107.747 122.888C106.083 127.967 104.86 133.134 103.343 138.251C102.496 141.116 101.336 143.772 99.8475 146.363C99.2455 147.415 98.2629 150.614 96.9485 150.819C95.9566 150.975 96.1279 152.595 97.1358 152.575C98.4829 152.544 99.3405 151.627 100.047 150.55C101.186 148.813 102.231 146.821 103.175 144.975C105.932 139.595 107.005 133.684 108.801 127.958C110.742 121.774 112.571 115.563 114.349 109.331C116.233 102.75 118.39 96.1148 119.558 89.3576C119.629 88.9527 119.118 88.7984 118.953 89.1749L118.956 89.1817Z" fill="#978D84"/>
<path d="M92.2649 150.833C93.5936 151.41 96.0281 153.736 97.4952 152.497C98.3045 151.814 97.5175 150.537 96.5584 150.753C96.8941 150.678 96.1653 150.868 96.1256 150.867C96.2994 150.857 95.73 150.839 95.9456 150.841C95.5385 150.832 95.1341 150.738 94.7339 150.669C93.9715 150.535 93.1782 150.466 92.4206 150.317C92.072 150.246 91.9405 150.701 92.2634 150.838L92.2649 150.833Z" fill="#978D84"/>
<path d="M99.2095 140.817C102.215 131.727 105.18 122.62 108.102 113.505C111.013 104.426 114.109 95.261 116.384 86.0073C116.663 84.8753 115.046 84.3871 114.652 85.4845C111.426 94.4568 108.94 103.806 106.339 112.972C103.728 122.187 101.161 131.409 98.6356 140.644C98.5344 141.017 99.0911 141.191 99.2147 140.819L99.2095 140.817Z" fill="#978D84"/>
<path d="M195.681 190.333C201.049 174.715 205.814 158.91 210.659 143.123C213.08 135.232 215.491 127.338 217.902 119.444C219.054 115.666 220.209 111.894 221.361 108.116C222.49 104.415 224.359 100.353 224.544 96.4763C224.584 95.6643 223.426 95.3147 223.01 96.0133C221.105 99.2122 220.438 103.404 219.378 106.954C218.197 110.906 217.019 114.864 215.836 118.821C213.477 126.731 211.118 134.64 208.77 142.553C204.071 158.384 199.291 174.185 195.128 190.166C195.037 190.525 195.558 190.682 195.681 190.333Z" fill="#978D84"/>
<path d="M37.3696 130.467C41.9774 117.502 45.9821 104.366 49.9148 91.185C53.8464 78.0267 58.0776 64.9134 61.5678 51.6334C61.8006 50.7488 60.5015 50.3567 60.2061 51.2223C55.7663 64.2158 52.036 77.4803 48.0313 90.6165C44.0204 103.774 40.0888 116.932 36.7488 130.28C36.6486 130.687 37.2329 130.864 37.3696 130.467Z" fill="#978D84"/>
<path d="M37.1859 129.128C34.4025 136.784 31.7095 145.122 25.1268 150.41C24.6602 150.786 25.2204 151.552 25.7359 151.259C32.9342 147.1 35.7412 136.762 37.6398 129.265C37.7174 128.97 37.2948 128.842 37.1911 129.129L37.1859 129.128Z" fill="#978D84"/>
</g>
<defs>
<clipPath id="clip0_735_1013">
<rect width="197" height="196" fill="white" transform="translate(56.6348) rotate(16.7951)"/>
</clipPath>
</defs>
</svg>
