<svg width="24" height="25" viewBox="0 0 24 25" fill="none" xmlns="http://www.w3.org/2000/svg">
<path d="M16.3572 13.5628C16.3642 13.6211 16.4438 13.6574 16.4778 13.5955C16.5573 13.4501 16.5803 13.2769 16.6231 13.1179C16.6665 12.9562 16.7146 12.7962 16.7659 12.6372C16.8799 12.2837 17.0124 11.9364 17.1321 11.5851C17.3681 10.8932 17.5908 10.1964 17.8682 9.51955C17.9023 9.43693 17.7582 9.37551 17.7233 9.45858C17.4397 10.1266 17.209 10.8137 16.9665 11.4972C16.8472 11.8339 16.7195 12.1679 16.6064 12.5064C16.5016 12.8192 16.3161 13.2297 16.3572 13.5632V13.5628ZM15.2618 14.2697C15.2672 14.3338 15.3467 14.3422 15.3705 14.2843C15.527 13.9017 15.5981 13.4789 15.7377 13.0878C15.8707 12.7158 15.9997 12.3477 16.1212 11.9722C16.374 11.1915 16.7115 10.4408 16.936 9.65077C16.9625 9.55755 16.8189 9.51822 16.791 9.61101C16.552 10.4121 16.195 11.1698 15.9317 11.962C15.8031 12.3486 15.6644 12.7282 15.5274 13.1126C15.3997 13.4709 15.2292 13.8836 15.2618 14.2702V14.2697ZM17.3553 12.9442C17.3486 13.0423 17.4922 13.0498 17.517 12.9659C17.517 12.9659 17.5174 12.9659 17.5179 12.9659C17.6164 12.6725 17.6942 12.3778 17.8117 12.0902C17.9261 11.8096 18.0423 11.5295 18.1572 11.2489C18.4161 10.6149 18.6746 9.98083 18.96 9.35784C18.9989 9.273 18.8743 9.19833 18.8332 9.28361C18.5367 9.9013 18.261 10.5291 17.9964 11.161C17.874 11.4539 17.7503 11.746 17.6283 12.0389C17.5086 12.3261 17.3765 12.6296 17.3562 12.9433L17.3553 12.9442ZM18.6909 12.3257C18.6932 12.3928 18.7935 12.4304 18.8261 12.3623C18.9432 12.1176 18.9954 11.837 19.0913 11.582C19.1915 11.3147 19.3078 11.054 19.416 10.7898C19.64 10.2442 19.8587 9.69496 20.1614 9.18685C20.2166 9.09406 20.073 9.01055 20.0169 9.10246C19.7032 9.61278 19.4743 10.1664 19.2406 10.716C19.1359 10.9621 19.0232 11.2047 18.9247 11.4535C18.8186 11.7203 18.6821 12.0349 18.6909 12.3261V12.3257ZM11.2305 15.3562C11.2204 15.4159 11.2959 15.4804 11.3445 15.4225C11.4934 15.2453 11.5243 14.9838 11.5747 14.7646C11.6379 14.4915 11.7033 14.218 11.785 13.9499C11.9582 13.3786 12.1469 12.8143 12.3121 12.2404C12.4871 11.632 12.6864 11.0311 12.8795 10.4284C12.9634 10.166 13.0761 9.91455 13.16 9.65166C13.2413 9.39672 13.358 9.1515 13.4296 8.89523C13.4499 8.82233 13.3385 8.79184 13.3164 8.86386C13.2427 9.10643 13.1238 9.3384 13.0412 9.58008C12.9524 9.84032 12.834 10.0869 12.7443 10.3462C12.5419 10.9312 12.3493 11.5197 12.1716 12.1127C12.0073 12.6619 11.8341 13.2067 11.66 13.7528C11.5743 14.0219 11.5054 14.2945 11.4373 14.5684C11.3732 14.8273 11.2756 15.096 11.231 15.3567L11.2305 15.3562ZM7.2213 16.7692C7.12719 17.1686 7.01673 17.5632 6.9721 17.9723C6.9394 18.2732 6.82718 18.6059 6.97033 18.8945C6.98226 18.9183 7.01673 18.9099 7.02424 18.8874C7.1696 18.4367 7.23279 17.9551 7.35341 17.4965C7.35473 17.4912 7.34678 17.489 7.34501 17.4943C7.28095 17.7223 7.21644 17.9507 7.16165 18.1809C7.12188 18.3483 7.10023 18.5313 7.04412 18.6978C7.07461 18.4557 7.12498 18.2153 7.15016 17.9728C7.19081 17.5787 7.28095 17.1956 7.35959 16.8077C7.37771 16.718 7.24251 16.6791 7.2213 16.7697V16.7692ZM20.2272 20.4762C19.9785 20.7846 19.769 21.1191 19.5521 21.45C19.3837 21.7067 19.127 21.9811 19.0943 22.2966C19.0904 22.3368 19.1447 22.3421 19.1633 22.3152C19.5614 21.7456 19.8994 21.1266 20.3333 20.5823C20.3929 20.5076 20.2877 20.4007 20.2272 20.4762ZM23.9948 11.7469C23.9815 11.1124 23.9378 10.4664 23.8092 9.84342C23.7703 9.65519 23.6788 9.33795 23.5286 9.10069C23.5264 9.04369 23.5074 8.98537 23.4654 8.93146C22.3692 7.52465 20.8882 6.50887 19.4836 5.43786C18.7625 4.88821 18.0755 4.29969 17.3279 3.78539C16.548 3.249 15.7382 2.759 14.9349 2.25928C14.1506 1.77149 13.3673 1.1675 12.4787 0.884284C11.6065 0.606368 10.7754 0.898865 10.0689 1.43039C9.73314 1.68313 9.4243 1.96767 9.10264 2.23763C8.74829 2.53455 8.36786 2.80097 7.99363 3.07226C7.58139 3.37094 7.16695 3.66653 6.75648 3.96742C6.36104 4.25727 6.0058 4.57451 5.64217 4.90235C4.83273 5.63315 3.99324 6.31535 3.11884 6.96617C2.67965 7.29313 2.24268 7.6223 1.82072 7.97135C1.62676 8.1313 1.42793 8.28992 1.2481 8.46577C1.06827 8.64162 0.893748 8.82763 0.674597 8.95532C0.59595 9.00083 0.604345 9.10334 0.658249 9.15459C0.657365 9.15548 0.656482 9.1568 0.655598 9.15768C0.597275 9.16652 0.560161 9.22705 0.56944 9.2814C0.425401 9.52927 0.381659 9.84828 0.360451 10.1235C0.305663 10.838 0.230992 11.5432 0.22569 12.2611C0.214645 13.7351 0.287106 15.2073 0.260154 16.6813C0.246899 17.409 0.197413 18.1243 0.121417 18.8481C0.0458627 19.5696 -0.0208547 20.2951 0.00609741 21.0215C0.039677 21.9202 0.180181 22.894 0.912747 23.5033C1.50481 23.9955 2.28067 24.1572 3.03136 24.2053C3.84389 24.2575 4.6582 24.1753 5.46676 24.1028C8.03472 23.8731 10.6181 24.0335 13.1896 23.8713C14.6455 23.7794 16.0881 23.714 17.5475 23.7688C19.006 23.8231 20.4632 23.9323 21.9234 23.927C22.1952 23.9261 22.4673 23.9208 22.7391 23.9111C23.0585 23.9597 23.4522 23.9146 23.6629 23.6623C23.8976 23.3813 23.8498 22.9116 23.8339 22.5723C23.7827 21.4606 23.8317 20.3534 23.8551 19.2409C23.8817 17.9745 23.8573 16.7078 23.8909 15.4411C23.9236 14.2092 24.0217 12.9796 23.9956 11.7464L23.9948 11.7469ZM1.00995 9.13559C1.03823 9.11217 1.04707 9.08346 1.04353 9.05606C1.28433 8.916 1.48669 8.71585 1.70894 8.54176C2.09908 8.2369 2.49585 7.94175 2.89571 7.65014C3.66142 7.0921 4.43596 6.54996 5.15792 5.93537C5.51271 5.63315 5.86 5.32254 6.20463 5.00928C6.57312 4.67436 6.96061 4.38143 7.36401 4.09025C8.11337 3.549 8.88747 3.03029 9.58954 2.42762C10.1971 1.90625 10.8894 1.23024 11.7475 1.22892C12.6572 1.22715 13.4463 1.91023 14.1679 2.38167C14.9504 2.89243 15.7549 3.36829 16.5348 3.88303C17.2886 4.38054 17.9858 4.93372 18.6918 5.49441C20.2109 6.70107 21.8722 7.77164 23.0726 9.32382C23.0771 9.33 23.0819 9.33486 23.0868 9.3406C23.0735 9.34856 23.0603 9.35828 23.0475 9.36977C22.5477 9.81823 22.0251 10.2393 21.4865 10.6396C21.6941 10.2627 21.8426 9.83458 22.0162 9.45106C22.0595 9.35474 21.9177 9.27035 21.8731 9.36756C21.6583 9.83723 21.3702 10.3219 21.2368 10.823C20.8829 11.0797 20.5228 11.328 20.1583 11.5692C20.111 11.4756 20.259 11.1795 20.29 11.1027C20.3735 10.8941 20.4662 10.6887 20.5586 10.4845C20.7702 10.0179 21.0084 9.56373 21.2174 9.09583C21.2585 9.00393 21.1241 8.92263 21.0804 9.01585C20.8506 9.50409 20.5833 9.97464 20.3606 10.4664C20.2016 10.8172 19.9975 11.187 19.9542 11.5745C19.9511 11.6041 19.9732 11.6395 19.9988 11.6527C20.0054 11.6563 20.0116 11.6594 20.0178 11.662C19.5941 11.9399 19.1646 12.2099 18.7325 12.4732C17.992 12.9248 17.2333 13.3392 16.4778 13.7638C15.7284 14.1849 15.0113 14.6572 14.2863 15.1176C14.2642 15.1318 14.2421 15.1459 14.2196 15.16C14.2257 15.1287 14.2324 15.0977 14.2394 15.0673C14.3035 14.7796 14.3649 14.4915 14.4277 14.2039C14.5505 13.6419 14.6601 13.0785 14.8076 12.5223C14.9548 11.9669 15.1169 11.4155 15.2755 10.8632C15.4395 10.2928 15.5831 9.70689 15.861 9.17889C15.9012 9.10246 15.7868 9.03485 15.7448 9.11085C15.477 9.5951 15.3246 10.1266 15.1611 10.6524C14.9817 11.229 14.809 11.8074 14.6481 12.3893C14.4944 12.9451 14.3786 13.5062 14.2553 14.0691C14.1922 14.3572 14.1277 14.6444 14.0658 14.9329C14.0397 15.0544 14.007 15.1808 13.981 15.3089C13.5634 15.5626 13.1234 15.7919 12.6506 15.8802C12.7208 15.6439 12.7354 15.3845 12.7876 15.1446C12.849 14.8622 12.9259 14.583 13.0067 14.3055C13.1627 13.7683 13.3178 13.2305 13.4914 12.6986C13.8475 11.6099 14.2474 10.5358 14.5456 9.42897C14.5695 9.34105 14.4338 9.30349 14.4091 9.39142C14.0914 10.5216 13.6642 11.6156 13.2988 12.7304C13.1203 13.2752 12.9586 13.8266 12.7995 14.3775C12.7195 14.6546 12.6444 14.9334 12.587 15.2162C12.5419 15.4371 12.4876 15.6752 12.5202 15.9014C12.3828 15.9191 12.2428 15.9244 12.1001 15.9147C11.3785 15.8639 10.7158 15.4839 10.1273 15.0907C10.0773 15.0571 10.0278 15.0231 9.9788 14.9891C9.98013 14.9815 9.9819 14.974 9.98322 14.967C10.0385 14.7111 10.1175 14.458 10.1865 14.2052C10.3376 13.6516 10.4984 13.1028 10.695 12.5638C10.8832 12.0486 11.0701 11.5326 11.2398 11.0107C11.4095 10.4898 11.5933 9.95785 11.6512 9.41086C11.6565 9.3596 11.5716 9.34856 11.5615 9.39849C11.4541 9.91985 11.2725 10.4249 11.1033 10.929C10.9332 11.4362 10.7529 11.9399 10.5678 12.4419C10.3844 12.9394 10.2249 13.4426 10.0813 13.9529C10.0075 14.2145 9.93815 14.4774 9.86746 14.7399C9.85421 14.7885 9.8436 14.8379 9.833 14.8879C9.50913 14.6594 9.19233 14.4208 8.87023 14.1898C8.97274 13.846 9.10441 13.5133 9.2321 13.1758C9.4 12.7308 9.53962 12.281 9.68189 11.8281C9.82372 11.377 9.96025 10.9241 10.1065 10.4744C10.2572 10.0113 10.4745 9.57301 10.6221 9.11041C10.6358 9.06711 10.5717 9.05208 10.5554 9.09185C10.4573 9.33442 10.3058 9.54959 10.2028 9.78995C10.1122 10.0007 10.0318 10.2163 9.9545 10.4324C9.78616 10.9034 9.6355 11.3837 9.48925 11.8617C9.35051 12.3151 9.19763 12.7591 9.03018 13.2027C8.94623 13.4254 8.86493 13.649 8.77921 13.8712C8.7527 13.9397 8.72796 14.0073 8.70808 14.0744C8.5636 13.9728 8.41735 13.8734 8.26845 13.7775C8.0926 13.6649 7.91763 13.5504 7.74355 13.4356C7.83059 13.227 7.84252 12.9641 7.90747 12.7635C8.03428 12.3725 8.17478 11.9903 8.31882 11.6055C8.60867 10.8305 8.93209 10.0506 9.12738 9.24473C9.13799 9.20054 9.06994 9.16652 9.05006 9.21203C8.89454 9.57478 8.78275 9.95476 8.64136 10.3233C8.49379 10.7076 8.3418 11.0894 8.19864 11.4751C7.96889 12.0941 7.74267 12.6981 7.59818 13.3388C7.36048 13.1806 7.12409 13.0207 6.88815 12.8598C6.92085 12.7176 6.97122 12.5682 6.98801 12.5099C7.10819 12.0893 7.26062 11.6784 7.41129 11.2679C7.66137 10.5866 7.98744 9.90792 8.17213 9.20452C8.19157 9.13029 8.07935 9.09936 8.05725 9.17271C7.8898 9.72986 7.61674 10.2649 7.40157 10.8049C7.15104 11.4323 6.86429 12.0831 6.72732 12.7498C6.58814 12.6544 6.44897 12.5589 6.30979 12.4635C6.36458 12.2567 6.39506 12.0371 6.46045 11.8374C6.55457 11.5493 6.66193 11.2652 6.7609 10.9785C6.95796 10.4072 7.20627 9.85667 7.42498 9.29377C7.45105 9.22705 7.33662 9.17801 7.30834 9.24473C7.06754 9.80719 6.79492 10.3542 6.58638 10.9303C6.47857 11.2286 6.35971 11.5233 6.26074 11.8246C6.21082 11.9775 6.14631 12.1533 6.11317 12.3288C6.06059 12.2925 6.00801 12.2567 5.95588 12.2205C5.82112 12.1282 5.6868 12.0358 5.55248 11.9439C5.59004 11.8105 5.61831 11.6713 5.66161 11.552C5.75307 11.301 5.85735 11.0545 5.94616 10.8026C6.13438 10.2707 6.42069 9.75947 6.52717 9.20187C6.5391 9.14001 6.45294 9.11527 6.43218 9.1758C6.24263 9.72854 5.96736 10.2455 5.76235 10.7925C5.66868 11.043 5.55999 11.2873 5.46941 11.5387C5.43848 11.6249 5.40004 11.7203 5.36867 11.8184C5.21447 11.7128 5.05939 11.6072 4.90475 11.5021C4.94893 11.3426 4.9909 11.1831 5.05983 11.028C5.14731 10.8314 5.24231 10.6458 5.3214 10.4456C5.49769 9.9985 5.73098 9.5761 5.88253 9.1188C5.91037 9.03485 5.78047 9.00083 5.75086 9.08257C5.58164 9.55004 5.32096 9.97508 5.13804 10.4364C5.0183 10.7381 4.81505 11.0527 4.72713 11.3815C4.7152 11.3735 4.70327 11.3651 4.69134 11.3572C4.542 11.256 4.39221 11.1592 4.24155 11.0638C4.27866 10.9745 4.30561 10.8795 4.34096 10.7912C4.42712 10.576 4.523 10.3652 4.62064 10.1549C4.79959 9.76919 4.99046 9.38921 5.16896 9.00304C5.20519 8.92439 5.08988 8.85458 5.05099 8.93412C4.86012 9.32823 4.65555 9.71572 4.46512 10.1098C4.37719 10.2919 4.29413 10.4766 4.21592 10.6635C4.17616 10.7589 4.12358 10.8619 4.08735 10.9666C3.87836 10.8367 3.66672 10.7103 3.45243 10.5857C3.45994 10.5636 3.46745 10.5415 3.47629 10.5203C3.5567 10.321 3.64728 10.1244 3.74581 9.93355C3.93756 9.56197 4.09663 9.1758 4.31975 8.82056C4.35908 8.75782 4.26187 8.70259 4.22122 8.76312C3.96717 9.13957 3.76657 9.55313 3.55935 9.95697C3.47275 10.1257 3.39234 10.3016 3.31943 10.477C3.3159 10.485 3.31236 10.4934 3.30883 10.5018C3.16965 10.4205 3.03091 10.3378 2.89262 10.2548C2.91118 10.1956 2.93062 10.1368 2.95713 10.0798C3.02252 9.93974 3.07775 9.7926 3.14668 9.65519C3.2103 9.52839 3.28718 9.40776 3.34727 9.27919C3.41266 9.13957 3.45419 8.99288 3.55538 8.87182C3.59691 8.82233 3.52798 8.75075 3.48336 8.7998C3.37731 8.91644 3.32739 9.05385 3.25625 9.19215C3.18114 9.3384 3.08526 9.47271 3.00882 9.61808C2.9315 9.76477 2.8639 9.92074 2.79541 10.0718C2.78039 10.1045 2.76581 10.1377 2.75256 10.1708C2.64254 10.105 2.53208 10.0392 2.42074 9.97464C2.45432 9.88186 2.49541 9.79172 2.5365 9.70247C2.62575 9.50806 2.71765 9.32205 2.75698 9.10997C2.76493 9.06667 2.7044 9.04899 2.69026 9.09141C2.6094 9.33972 2.46492 9.55799 2.35667 9.79349C2.34032 9.82839 2.32265 9.86728 2.30498 9.90748C2.22324 9.86065 2.1415 9.8147 2.05843 9.76963C1.68552 9.56683 1.32012 9.36358 0.920258 9.22838C0.945885 9.1948 0.974604 9.16387 1.00818 9.13603L1.00995 9.13559ZM0.620693 21.9944C0.344986 20.6534 0.626437 19.2837 0.72585 17.9419C0.842495 16.3702 0.734687 14.7938 0.703758 13.2221C0.688294 12.437 0.658249 11.6505 0.687852 10.8654C0.700224 10.5353 0.700665 10.1991 0.731152 9.87037C0.743524 9.7387 0.761197 9.59466 0.803613 9.46255C1.13057 9.66712 1.44516 9.8929 1.77521 10.0931C2.17287 10.3339 2.56168 10.5892 2.95492 10.8376C3.03887 10.8906 3.12282 10.9431 3.20677 10.9953C3.20809 11.001 3.20942 11.0068 3.21074 11.0125C3.21958 11.043 3.25272 11.0518 3.27658 11.039C3.57172 11.2224 3.86643 11.4049 4.15362 11.6024C4.55172 11.8759 4.9476 12.1529 5.34305 12.4304C6.1167 12.9729 6.89169 13.5133 7.68302 14.0294C8.00909 14.2423 8.33738 14.4474 8.65329 14.6745C8.44209 14.8954 8.23752 15.1234 8.01395 15.3319C7.74487 15.5829 7.46873 15.8268 7.19346 16.0711C6.62217 16.5775 6.16 17.1757 5.66691 17.755C5.14334 18.37 4.60916 18.9762 4.0657 19.5736C3.54521 20.1457 2.99115 20.6861 2.46846 21.2565C2.18215 21.5689 1.92897 21.9153 1.63073 22.2149C1.42174 22.4247 1.18183 22.6364 1.0453 22.9037C0.834984 22.6518 0.691387 22.3439 0.619809 21.9948L0.620693 21.9944ZM2.47685 21.8468C2.43929 21.906 2.40218 21.9652 2.36418 22.024C2.27051 22.1693 2.18347 22.3143 2.10747 22.4627C2.13045 22.3726 2.15254 22.2833 2.17066 22.1932C2.27449 22.0792 2.37479 21.9626 2.47685 21.8468ZM14.5028 23.2739C13.0964 23.3561 11.6975 23.4498 10.2881 23.4511C8.96125 23.4524 7.63221 23.456 6.30669 23.5267C5.55778 23.5664 4.81329 23.6654 4.06393 23.6985C3.32739 23.7312 2.55506 23.7264 1.85519 23.4666C1.61527 23.3778 1.4076 23.2514 1.2322 23.095C1.44604 22.8988 1.65106 22.6934 1.86712 22.4994C1.92146 22.4508 1.97316 22.4 2.02441 22.3479C1.93958 22.651 1.83574 22.951 1.83486 23.2686H1.83619C1.83928 23.3009 1.88391 23.323 1.90202 23.2868C2.01115 23.068 2.02176 22.814 2.07876 22.578C2.08538 22.5502 2.09245 22.5228 2.09952 22.495C2.1658 22.3699 2.24091 22.2493 2.31381 22.1336C2.40395 21.9904 2.50778 21.8561 2.59703 21.7129C2.60454 21.705 2.61161 21.697 2.61868 21.6891C2.70175 21.5998 2.78614 21.5115 2.87053 21.4235C2.85683 21.4545 2.83341 21.4867 2.82546 21.5057C2.79762 21.5733 2.77421 21.6436 2.75079 21.7125C2.69379 21.8795 2.64607 22.0487 2.59482 22.2175C2.49099 22.5586 2.32177 22.8763 2.30939 23.2386C2.30718 23.3027 2.39334 23.3199 2.42516 23.27C2.5122 23.1339 2.50955 22.9607 2.55594 22.8087C2.61249 22.6231 2.69026 22.4455 2.73753 22.2568C2.81044 21.963 2.89571 21.6595 2.93327 21.3586C3.05566 21.2327 3.17893 21.1072 3.30309 20.983C3.24035 21.2468 3.17672 21.5101 3.12061 21.7752C3.05301 22.0947 2.96641 22.4389 2.98894 22.7676C2.99424 22.8423 3.08968 22.8409 3.10603 22.7826C3.10647 22.7826 3.10691 22.7831 3.10735 22.7835C3.16479 22.5639 3.19528 22.3364 3.2293 22.1097C3.2399 22.0735 3.25007 22.039 3.25802 22.0068C3.30883 21.7995 3.36008 21.5928 3.41929 21.3877C3.45022 21.2813 3.48336 21.1743 3.51959 21.0687C3.49043 21.1496 3.46259 21.2313 3.43696 21.3148C3.37422 21.5185 3.31899 21.7249 3.26553 21.9312C3.25581 21.9692 3.24653 22.0112 3.23769 22.0554C3.25183 21.9617 3.2673 21.8685 3.28585 21.7766C3.35301 21.4447 3.43122 21.1151 3.50501 20.7846C3.50501 20.7833 3.50501 20.7824 3.50501 20.7811C3.57968 20.7064 3.65435 20.6318 3.72858 20.5571C3.65788 20.7029 3.59602 20.8531 3.54168 21.006C3.60088 20.8474 3.66849 20.6941 3.74271 20.5429C3.79883 20.4868 3.8545 20.4307 3.91017 20.3742C3.85141 20.6105 3.78469 20.8447 3.74227 21.0846C3.69986 21.3246 3.61679 21.6657 3.7109 21.8963C3.72372 21.9281 3.77806 21.9489 3.79618 21.9073C3.90222 21.6639 3.86422 21.3493 3.90929 21.0877C3.96231 20.7789 4.05288 20.478 4.11032 20.1705C4.15362 20.1259 4.19736 20.0812 4.24022 20.0366C4.29678 19.9778 4.35157 19.9177 4.40768 19.8581C4.3604 20.0671 4.31313 20.2756 4.27292 20.4859C4.22211 20.7541 4.1439 21.0705 4.19162 21.3422C4.20355 21.4107 4.30385 21.4014 4.32152 21.3422C4.40503 21.0608 4.40105 20.7431 4.45275 20.4524C4.50091 20.1811 4.55835 19.912 4.61092 19.6416C4.80931 19.4269 5.00416 19.2086 5.19813 18.9894C5.11859 19.2886 5.05276 19.5917 5.00504 19.897C4.98074 20.0529 4.96572 20.2085 4.95202 20.3653C4.93833 20.5191 4.88133 20.6888 4.94142 20.8381C4.96086 20.8863 5.03465 20.8885 5.04481 20.8372C5.14599 20.5885 5.14555 20.3101 5.17073 20.0432C5.21094 19.8519 5.25424 19.6615 5.28959 19.4693C5.28959 19.4671 5.28649 19.4662 5.28605 19.4684C5.25468 19.6288 5.21845 19.7878 5.18134 19.9465C5.1831 19.9332 5.18487 19.9195 5.18664 19.9063C5.24275 19.5174 5.31742 19.1322 5.41772 18.7517C5.41904 18.7469 5.41949 18.7425 5.41993 18.738C5.54718 18.5922 5.67354 18.4464 5.79991 18.3002C5.81537 18.2825 5.83039 18.2644 5.84586 18.2463C5.76544 18.5379 5.70049 18.833 5.65499 19.1322C5.60506 19.4609 5.53436 19.832 5.63599 20.155C5.64703 20.1904 5.6974 20.1877 5.7058 20.155C5.76677 19.969 5.78665 19.7697 5.80123 19.57C5.80212 19.566 5.803 19.5625 5.80344 19.5585C5.83658 19.3809 5.8706 19.2037 5.9086 19.027C5.90948 19.0239 5.90418 19.0226 5.90374 19.0257C5.86972 19.1702 5.83923 19.3151 5.80874 19.46C5.81714 19.3381 5.82553 19.2166 5.84277 19.0981C5.89446 18.742 5.97311 18.3916 6.07252 18.0461C6.07959 18.0218 6.07561 18.0006 6.06545 17.9843C6.18475 17.8407 6.30316 17.6957 6.42334 17.5517C6.35795 17.9626 6.28549 18.3753 6.21303 18.784C6.17061 19.0239 6.08754 19.3398 6.27179 19.544C6.28328 19.5568 6.3089 19.551 6.312 19.5333C6.35574 19.3054 6.43615 19.0752 6.49757 18.8503C6.49845 18.8472 6.49359 18.8458 6.49271 18.8489C6.46045 18.9616 6.43129 19.0747 6.39727 19.1869C6.3796 19.2448 6.36413 19.3049 6.34116 19.3606C6.32172 19.4074 6.31465 19.4874 6.29653 19.403C6.26428 19.2541 6.36192 19.0071 6.3902 18.8573C6.43262 18.632 6.44234 18.4014 6.47945 18.1747C6.52143 17.9184 6.56915 17.6635 6.60228 17.4059C6.60493 17.386 6.59831 17.3697 6.58726 17.3569C6.82099 17.0829 7.06268 16.8165 7.32645 16.5748C7.50717 16.4096 7.68876 16.2448 7.87124 16.0808C7.79436 16.3906 7.7166 16.6998 7.67992 17.0175C7.64104 17.3542 7.52042 17.7002 7.65253 18.0302C7.65872 18.0452 7.67595 18.0514 7.68876 18.0399C7.78508 17.9516 7.78773 17.8031 7.81468 17.6816C7.86682 17.4492 7.91984 17.219 7.99893 16.9941C7.99981 16.9919 7.99628 16.991 7.9954 16.9932C7.90394 17.2429 7.84738 17.5 7.78464 17.7576C7.76166 17.8513 7.66976 18.0722 7.71439 17.8446C7.73957 17.7178 7.77536 17.5928 7.80099 17.4655C7.85092 17.2177 7.86417 16.9672 7.90394 16.718C7.94724 16.4458 8.01086 16.1776 8.06476 15.9072C8.11646 15.8612 8.16815 15.8144 8.22029 15.7685C8.35373 15.6505 8.47965 15.525 8.60292 15.3969C8.60115 15.4013 8.59939 15.4057 8.59806 15.411C8.44784 16.0322 8.12574 16.7348 8.26933 17.3825C8.27287 17.3984 8.29717 17.4063 8.30822 17.3926C8.42442 17.2495 8.45977 17.0732 8.53046 16.9066C8.53223 16.9026 8.52648 16.8991 8.52427 16.9031C8.48937 16.9769 8.4041 17.3056 8.3334 17.3065C8.35594 17.3065 8.44254 16.7639 8.45314 16.7118C8.53576 16.2885 8.65727 15.8741 8.75138 15.4534C8.76773 15.3801 8.68952 15.3381 8.63783 15.3606C8.76817 15.2241 8.89586 15.0845 9.02664 14.9484C9.12341 15.0204 9.22017 15.092 9.31737 15.1631C9.20647 15.6518 8.99262 16.14 8.97716 16.6398C8.97583 16.6875 9.05095 16.7127 9.07215 16.6654C9.26435 16.2324 9.3757 15.7353 9.45567 15.2621C9.52459 15.3116 9.59308 15.3615 9.66245 15.4101C10.2647 15.8294 10.9257 16.2288 11.6534 16.3782C12.454 16.543 13.1786 16.3322 13.8816 15.9447C14.4157 15.65 14.923 15.305 15.4337 14.9687C15.4474 14.9793 15.4607 14.9908 15.4739 15.0019C15.4041 15.1711 15.287 15.3173 15.192 15.4729C15.0895 15.6403 14.9906 15.7994 14.9199 15.9832C14.9093 16.011 14.9517 16.0358 14.9702 16.0128C15.1103 15.8409 15.223 15.658 15.3334 15.4658C15.4103 15.3319 15.4938 15.2056 15.542 15.0624C15.6401 15.1547 15.7289 15.2581 15.8141 15.3549C15.5614 15.6955 15.3295 16.087 15.1828 16.4833C15.1713 16.5143 15.2163 16.539 15.2375 16.5152C15.5168 16.205 15.6648 15.7928 15.8924 15.4424C15.979 15.5396 16.066 15.6363 16.1539 15.7327C15.8875 16.1162 15.6109 16.5143 15.447 16.9543C15.4324 16.9928 15.4876 17.0087 15.5084 16.9804C15.7784 16.615 15.9909 16.209 16.2427 15.8303C16.3373 15.9337 16.4318 16.0366 16.5259 16.1405C16.3603 16.3738 16.2277 16.6256 16.0965 16.8801C15.9573 17.1505 15.7868 17.409 15.6564 17.6825C15.6396 17.7178 15.6794 17.7474 15.7094 17.7231C15.9374 17.5371 16.0713 17.2407 16.2008 16.9835C16.3289 16.7281 16.4561 16.4745 16.6161 16.2386C16.6218 16.2452 16.6276 16.2514 16.6333 16.2576C16.7287 16.3632 16.8242 16.4683 16.9205 16.5739C16.7473 16.8267 16.5988 17.094 16.4495 17.3622C16.2931 17.6436 16.0916 17.9202 15.9728 18.2193C15.9608 18.2494 16.0037 18.2834 16.0298 18.2631C16.2816 18.0718 16.4318 17.7527 16.5772 17.4806C16.7204 17.2128 16.8622 16.9451 17.027 16.6906C17.1308 16.8046 17.2347 16.9181 17.3385 17.0321C17.198 17.2636 17.0698 17.5031 16.943 17.7417C16.7813 18.0457 16.5905 18.3457 16.5299 18.6899C16.5224 18.7336 16.5816 18.7654 16.6055 18.7217C16.8922 18.2025 17.1423 17.6591 17.4423 17.1461C17.5784 17.2959 17.7136 17.4461 17.8479 17.5977C17.7017 17.8345 17.5351 18.0581 17.3937 18.2997C17.2099 18.613 16.9934 18.9819 16.9152 19.3385C16.9055 19.3836 16.9603 19.4026 16.9863 19.3685C17.2254 19.0557 17.3509 18.681 17.5532 18.3483C17.6831 18.1349 17.8249 17.9304 17.9531 17.717C18.0481 17.8252 18.1426 17.9335 18.2363 18.0426C18.269 18.0806 18.3008 18.1195 18.3331 18.1579C18.1815 18.4 18.0397 18.6483 17.9009 18.8984C17.7335 19.2002 17.4838 19.5276 17.4109 19.8674C17.4017 19.9098 17.4516 19.9416 17.4843 19.9102C17.733 19.6703 17.8842 19.2855 18.0441 18.9819C18.1691 18.7442 18.2968 18.5083 18.4338 18.2776C18.5354 18.3987 18.6375 18.5193 18.7387 18.6408C18.417 19.1666 17.9465 19.654 17.8462 20.2774C17.8373 20.3326 17.9067 20.368 17.9394 20.3167C18.1205 20.0322 18.2469 19.7149 18.4121 19.4216C18.5407 19.1931 18.7051 18.9886 18.8456 18.7681C18.8937 18.8255 18.9415 18.883 18.9896 18.9404C19.0294 18.9872 19.0692 19.0332 19.1094 19.0787C19.063 19.1472 19.0117 19.2148 18.9848 19.2607C18.9021 19.4004 18.8169 19.5382 18.7294 19.6747C18.5694 19.9239 18.3755 20.1877 18.3313 20.4877C18.3255 20.5284 18.3746 20.5531 18.3989 20.5164C18.5836 20.2407 18.7409 19.9376 18.9079 19.6509C18.9914 19.5077 19.0696 19.3637 19.1443 19.2161C19.1544 19.1962 19.1664 19.1763 19.1783 19.1569C19.3011 19.2934 19.427 19.4251 19.5556 19.5554C19.1712 19.9818 18.7873 20.4859 18.5946 21.0175C18.5823 21.0519 18.6344 21.0838 18.6583 21.0546C19.0175 20.6039 19.2812 20.094 19.6475 19.6478C19.6979 19.6977 19.7483 19.7481 19.7995 19.798C19.8437 19.8413 19.8874 19.8859 19.9312 19.9297C19.72 20.2094 19.4982 20.4811 19.2874 20.7612C19.0904 21.0228 18.85 21.3122 18.7722 21.6365C18.7638 21.671 18.808 21.701 18.8341 21.6727C19.0621 21.4271 19.2247 21.1116 19.4235 20.8412C19.6232 20.5695 19.8331 20.3048 20.0341 20.0339C20.2749 20.2805 20.5078 20.5345 20.7327 20.7952C20.4844 21.1271 20.2687 21.4805 20.0443 21.8287C19.8636 22.1097 19.5786 22.4168 19.5684 22.7658C19.5676 22.8025 19.6144 22.8096 19.6329 22.7831C20.0589 22.176 20.3903 21.5044 20.8233 20.9C20.9655 21.067 21.1043 21.2366 21.2403 21.4085C21.0512 21.6568 20.8621 21.9047 20.681 22.1587C20.4875 22.43 20.2144 22.7446 20.1481 23.0773C20.1393 23.1215 20.1901 23.1542 20.2246 23.1219C20.4742 22.8869 20.6311 22.5255 20.8281 22.2449C20.9956 22.0068 21.1701 21.7735 21.3446 21.5406C21.3539 21.5525 21.3632 21.564 21.3725 21.576C21.4785 21.7125 21.5863 21.8477 21.6954 21.982C21.5505 22.1751 21.4082 22.3704 21.2607 22.5617C21.1127 22.7535 20.9116 22.9571 20.8856 23.2072C20.8811 23.2479 20.9337 23.2594 20.9593 23.2377C21.1471 23.0778 21.2806 22.825 21.4295 22.6284C21.5571 22.4596 21.6813 22.2882 21.8072 22.1181C21.9331 22.2714 22.0604 22.4234 22.189 22.5745C21.9893 22.8308 21.6738 23.0928 21.6018 23.4061C19.2353 23.3937 16.8719 23.133 14.5032 23.2713L14.5028 23.2739ZM3.22046 22.1389C3.19351 22.2741 3.16258 22.4221 3.11221 22.5462C3.13342 22.4115 3.18158 22.2666 3.22046 22.1389ZM22.8721 23.3826C22.8478 23.3826 22.8252 23.3857 22.804 23.391C22.4514 23.4043 22.0988 23.41 21.7467 23.4096C21.8412 23.2828 21.9248 23.1471 22.0259 23.0243C22.1156 22.9156 22.2058 22.8087 22.2893 22.6956C22.4846 22.9249 22.6812 23.1533 22.8765 23.3822H22.8721V23.3826ZM23.3727 15.1092C23.3347 16.2629 23.3431 17.4169 23.3369 18.571C23.3307 19.7061 23.2379 20.846 23.2724 21.9811C23.2834 22.3452 23.3333 22.7106 23.3086 23.0756C23.1995 22.9404 23.089 22.8065 22.9768 22.6735C22.7059 22.3532 22.4329 22.0346 22.1669 21.7103C21.6212 21.044 21.1087 20.3587 20.506 19.7406C20.2087 19.4353 19.8826 19.16 19.5998 18.841C19.3241 18.5299 19.0572 18.2109 18.7859 17.8959C18.2301 17.2508 17.6389 16.6349 17.061 16.0097C16.7451 15.6682 16.4208 15.324 16.0669 15.0213C15.9754 14.9431 15.8663 14.8446 15.7474 14.7668C15.865 14.6913 15.9829 14.6166 16.1018 14.5437C16.864 14.0789 17.6606 13.6733 18.4263 13.2138C20.1168 12.198 21.7807 11.1102 23.2458 9.78288C23.2618 9.77361 23.2772 9.76168 23.2922 9.74665C23.3042 9.73472 23.3161 9.72279 23.328 9.71131C23.3634 9.8633 23.3864 10.0193 23.4031 10.1726C23.4615 10.6944 23.4796 11.2219 23.4862 11.7469C23.5003 12.8696 23.4093 13.9883 23.3722 15.1092H23.3727Z" fill="#444444"/>
</svg>
