<svg width="65" height="52" viewBox="0 0 65 52" fill="none" xmlns="http://www.w3.org/2000/svg">
<g clip-path="url(#clip0_1146_3233)">
<path d="M1.47972 13.0464H1.15319C1.15319 13.0464 1.64299 12.8835 1.80625 12.8835C2.45931 12.8835 3.11237 13.3723 3.76544 13.5352C5.23482 14.187 6.70421 14.6758 8.1736 15.1646C11.1124 16.1423 14.2144 17.1199 17.1532 17.7717C18.6226 18.0975 19.9287 18.4234 21.3981 17.7717C22.0511 17.4458 22.5409 16.957 23.194 16.4682C23.8471 15.9793 24.5001 15.4905 24.9899 15.0017C27.6022 12.8835 30.0511 10.7653 32.6634 8.81001C35.4389 6.52886 38.3777 4.08477 41.1532 1.80362C40.9899 1.80362 40.8267 1.80362 40.6634 1.80362C46.5409 3.92183 52.5818 5.71416 58.6226 7.01767C60.2552 7.34355 62.0512 7.66943 63.8471 7.83237C64.3369 7.83237 64.5001 7.01767 63.8471 6.85474C61.3981 6.36592 58.9491 5.8771 56.3369 5.38828C53.8879 4.89946 51.4389 4.24771 49.1532 3.59595C46.7042 2.94419 44.2552 2.1295 41.9695 1.3148C41.643 1.3148 41.3165 1.15186 41.1532 0.988921C40.8267 0.988921 40.6634 0.825982 40.5001 0.988921C40.1736 0.988921 40.0103 1.47774 39.8471 1.64068C39.5205 1.80362 39.194 2.1295 39.0307 2.29244C38.0511 3.10713 37.0716 3.92183 36.092 4.73652C32.0103 7.99531 28.092 11.417 24.0103 14.6758C23.0307 15.4905 22.2144 16.3052 21.0716 16.957C19.9287 17.6087 18.7858 17.2829 17.4797 16.957C15.0307 16.3052 12.745 15.6535 10.296 15.0017C8.98993 14.5129 7.6838 14.187 6.37768 13.6982C5.07156 13.2094 3.76544 12.7206 2.62258 12.2317C2.13278 12.2317 1.64299 11.9059 1.15319 12.2317C0.82666 12.3947 0.500129 12.7205 0.82666 13.2094C0.82666 13.5352 1.80625 14.0241 1.96952 13.5352C1.96952 13.5352 1.96952 13.3723 1.80625 13.5352H1.47972V13.0464Z" fill="#51483F"/>
<path d="M40.8265 1.47741C40.8265 1.47741 40.8265 2.12917 40.8265 2.29211C40.8265 2.45504 40.8265 2.78092 40.9898 2.94386C41.1531 3.59562 41.3163 4.08444 41.4796 4.73619C41.8061 5.87677 41.9694 7.01734 42.1327 8.15792C42.4592 10.602 42.6224 12.8832 42.7857 15.3272C42.949 20.2154 43.1122 25.1036 43.1122 29.9918C43.1122 31.2953 43.1122 32.7618 43.1122 34.0653V36.1835C43.1122 36.1835 43.1122 37.6499 43.4388 38.3017C43.4388 38.7905 44.2551 38.7905 44.4184 38.3017C44.7449 36.9982 44.4184 35.5317 44.4184 34.0653C44.4184 32.7618 44.4184 31.2953 44.4184 29.9918C44.4184 27.2218 44.2551 24.4518 44.0918 21.6819C43.9286 16.3049 43.9286 10.7649 42.6224 5.55089C42.4592 4.89913 42.2959 4.08444 41.9694 3.43268C41.9694 3.1068 41.8061 2.78092 41.6429 2.29211C41.6429 1.96623 41.6429 1.64035 41.3163 1.47741C41.1531 1.31447 40.5 0.988591 40.5 1.47741C40.5 1.64035 40.6633 1.96623 40.8265 1.80329V1.64035V1.47741Z" fill="#51483F"/>
<path d="M19.7656 18.5862C19.7656 18.5862 20.0922 18.0974 20.4187 17.9345C20.2554 17.9345 19.9289 17.9345 19.7656 17.7715C21.235 25.5926 22.5411 33.5767 23.5207 41.5607C23.5207 42.7013 23.8473 43.8418 23.8473 44.8195C23.8473 45.96 23.8473 47.1006 24.3371 48.2412C24.5003 48.73 25.1534 48.5671 25.3166 48.2412C25.3166 47.2636 25.3166 46.2859 25.1534 45.3083C25.1534 44.3306 24.9901 43.353 24.8269 42.3754C24.6636 40.4201 24.3371 38.3019 24.0105 36.3466C23.5207 32.4361 22.8677 28.5255 22.0513 24.615C21.5615 22.3338 21.235 20.0527 20.7452 17.9345C20.7452 17.4457 19.9289 17.6086 19.9289 17.9345C19.9289 18.2604 19.9289 18.5862 19.9289 18.7492L19.7656 18.5862Z" fill="#51483F"/>
<path d="M0.826531 12.5576C0.826531 12.5576 0.663265 13.2094 0.663265 13.6982C0.663265 14.187 0.663265 14.6758 0.663265 15.1646C0.663265 15.9793 0.663265 16.957 0.663265 17.7717C0.663265 19.564 0.826531 21.3563 0.989796 22.9857C1.31633 26.5704 1.80612 29.9921 2.29592 33.5768C2.78571 36.9985 3.43878 40.5832 4.2551 44.0049C4.41837 44.6567 4.7449 45.3084 5.39796 45.7972C6.05102 46.1231 6.86735 46.2861 7.68367 46.6119C9.47959 47.1007 11.1122 47.5896 12.9082 48.0784C16.8265 49.219 20.7449 50.3595 24.6633 51.5001C24.9898 51.5001 25.3163 51.5001 25.3163 51.1742C25.6429 50.3595 25.4796 49.3819 24.8265 48.5672C24.6633 48.4043 24.1735 48.5672 24.3367 48.8931C24.3367 49.5448 24.5 50.1966 24.3367 50.8484C24.5 50.8484 24.8265 50.5225 24.9898 50.5225C21.5612 49.5448 18.1327 48.5672 14.8673 47.5896C13.2347 47.1007 11.4388 46.6119 9.80612 46.1231L7.19388 45.3084C7.19388 45.3084 5.72449 44.9825 5.39796 44.3308C5.07143 43.5161 5.07143 42.7014 4.90816 41.8867C4.7449 41.072 4.58163 40.2573 4.41837 39.2797C4.09184 37.6503 3.76531 35.8579 3.43878 34.2285C2.78571 30.8068 2.45918 27.3851 1.96939 23.9634C1.80612 22.0081 1.47959 20.0528 1.31633 18.0976C1.31633 17.1199 1.31633 16.1423 1.15306 15.3276C1.15306 14.8388 1.15306 14.3499 1.15306 13.8611C1.15306 13.6982 1.15306 13.3723 1.15306 13.2094C1.15306 13.0464 0.989796 12.7206 0.826531 12.5576C0.826531 12.5576 0.663265 12.5576 0.5 12.5576H0.826531Z" fill="#51483F"/>
<path d="M25.3163 50.8482C26.6224 50.0335 27.7653 49.0559 28.9081 48.2412C30.2142 47.4265 31.3571 46.4489 32.6632 45.6342C35.1122 43.8418 37.5612 42.0495 40.0102 40.2572C40.6632 39.7684 41.3163 39.2795 41.9693 38.7907C42.2959 38.4648 42.6224 38.3019 42.9489 37.976C43.2755 37.8131 43.602 37.4872 43.602 37.1613C43.602 37.1613 43.602 36.8354 43.4387 36.8354C42.7857 36.8354 42.1326 37.4872 41.6428 37.8131C40.9897 38.3019 40.5 38.6278 39.8469 39.1166C38.5408 39.9313 37.3979 40.9089 36.0918 41.7236C33.6428 43.516 31.1938 45.3083 28.9081 47.1006C27.602 48.0783 26.1326 49.0559 24.9897 50.1965C24.6632 50.3594 24.9897 50.8482 25.3163 50.6853V50.8482Z" fill="#51483F"/>
<path d="M43.7656 37.4872C46.3779 38.3019 48.9901 39.1166 51.6024 39.7683C54.2146 40.583 56.8268 41.3977 59.4391 42.3753C60.9085 42.8642 62.3779 43.353 63.8473 44.0047C64.1738 44.0047 64.5003 43.8418 64.5003 43.5159C63.684 34.0654 63.3575 24.6149 63.5207 15.1645C63.5207 13.861 63.5207 12.5574 63.5207 11.091C63.5207 9.78747 63.684 8.48396 63.5207 7.18044C63.5207 6.85457 62.8677 6.85457 62.8677 7.18044C62.5411 8.32102 62.5411 9.62453 62.5411 10.7651C62.5411 11.9057 62.5411 13.0463 62.5411 14.3498C62.5411 16.7939 62.5411 19.075 62.5411 21.5191C62.5411 26.2443 62.5411 30.9696 63.0309 35.6948C63.1942 38.3019 63.3575 41.0718 63.684 43.6788C63.8473 43.5159 64.1738 43.353 64.3371 43.19C59.2758 41.2348 54.0513 39.4424 48.6636 38.1389C47.1942 37.813 45.7248 37.3242 44.0922 37.1613C43.7656 37.1613 43.6024 37.6501 44.0922 37.813L43.7656 37.4872Z" fill="#51483F"/>
<path d="M2.13281 13.6981C2.13281 14.6757 2.29608 15.4904 2.45934 16.4681C2.45934 17.4457 2.78587 18.4233 2.94914 19.238C3.27567 21.1933 3.6022 22.9856 3.92873 24.9409C4.58179 28.6885 5.23485 32.4361 6.05118 36.1837C6.54098 38.3019 6.86751 40.4201 7.3573 42.5383C7.03077 40.5831 6.54098 38.7907 6.21445 36.8355C5.88791 34.8802 5.39812 33.0879 5.07159 31.1326C4.41853 27.385 3.76547 23.6374 3.1124 19.8898C2.94914 18.9122 2.78587 17.7716 2.62261 16.7939C2.45934 15.6534 2.29608 14.6757 2.13281 13.5352V13.6981Z" fill="#51483F"/>
<path d="M4.0918 12.3945C5.07139 20.2156 6.21425 28.0367 7.52037 35.8578C7.8469 38.1389 8.17343 40.2571 8.66323 42.5383H8.82649C8.66323 40.583 8.33669 38.6278 8.01016 36.8354C7.68363 34.8802 7.3571 32.9249 7.03057 30.9696C6.37751 27.0591 5.88772 23.1485 5.23465 19.238C4.90812 16.9568 4.58159 14.8386 4.25506 12.5575H4.0918V12.3945Z" fill="#51483F"/>
<path d="M6.21405 14.6758C6.86711 20.3787 7.68343 25.9186 8.49976 31.6215C8.66303 33.2509 8.98956 34.8803 9.31609 36.5096C9.15282 33.7397 8.49976 30.8068 8.17323 28.0368C7.68343 25.2668 7.3569 22.3339 6.86711 19.564C6.70384 17.9346 6.37731 16.3052 6.05078 14.6758H6.21405Z" fill="#51483F"/>
<path d="M8.50018 15.9794C8.50018 15.9794 8.50018 15.1647 8.50018 14.8389H8.33691C8.33691 15.9794 8.66344 17.12 8.82671 18.2606C8.98998 19.4012 9.15324 20.5417 9.47977 21.6823C9.8063 22.8229 9.8063 23.9635 10.1328 25.104C10.1328 25.5929 10.2961 26.2446 10.4594 26.7334C10.4594 27.3852 10.6226 28.037 10.7859 28.5258H10.9492C10.9492 27.3852 10.6226 26.2446 10.4594 25.104C10.2961 23.9635 10.1328 22.8229 9.8063 21.6823C9.64304 20.5417 9.47977 19.4012 9.15324 18.2606C8.98997 17.12 8.82671 15.9794 8.50018 14.8389H8.33691C8.33691 15.1647 8.33691 15.6536 8.33691 15.9794H8.50018Z" fill="#51483F"/>
<path d="M10.6221 16.3052C10.7853 17.9346 11.1119 19.401 11.2751 21.0304C11.6017 22.6598 11.7649 24.2892 12.0915 25.7557C12.0915 25.7557 12.418 25.7557 12.2547 25.7557C12.0915 24.1263 11.7649 22.6598 11.6017 21.0304C11.2751 19.401 11.1119 17.7716 10.7853 16.3052H10.6221Z" fill="#51483F"/>
<path d="M13.398 18.2603C13.398 18.2603 13.398 17.1197 13.2347 16.6309H12.9082C12.9082 17.7714 13.2347 18.912 13.398 20.0526C13.398 21.1932 13.5613 22.3337 13.8878 23.3114H14.2143C14.2143 22.1708 13.8878 21.0302 13.7245 19.8896C13.7245 18.7491 13.5613 17.6085 13.2347 16.6309C13.2347 16.6309 13.0715 16.6309 12.9082 16.6309C13.2347 17.1197 13.2347 17.6085 13.2347 18.0973C13.2347 18.0973 13.2347 18.0973 13.398 18.0973V18.2603Z" fill="#51483F"/>
<path d="M15.1935 17.2827C15.3568 19.075 15.5201 20.7044 15.8466 22.4968H16.0099C16.0099 20.7044 15.6833 19.075 15.3568 17.2827H15.0303H15.1935Z" fill="#51483F"/>
<path d="M21.3984 15.6532C22.7046 21.356 23.8474 27.0589 24.827 32.7618C25.1535 34.3912 25.3168 36.0206 25.6433 37.65H25.8066C25.1535 31.7842 23.8474 26.0813 22.7046 20.3784C22.378 18.749 21.8882 17.1196 21.5617 15.4902L21.3984 15.6532Z" fill="#51483F"/>
<path d="M24.1734 15.9794C24.1734 15.9794 24.1734 15.3277 23.8469 15.0018H23.6836C23.6836 15.6536 23.8469 16.3053 24.0101 16.9571C24.0101 17.6088 24.3367 18.2606 24.3367 18.9123C24.6632 20.2159 24.8265 21.6823 25.153 22.9858C25.6428 25.7558 26.1326 28.3628 26.6224 31.1328C26.9489 32.5993 27.1122 34.2286 27.602 35.6951H27.7652C27.4387 33.0881 26.7856 30.3181 26.2958 27.7111C25.806 24.9411 25.3162 22.3341 24.8265 19.5641C24.8265 18.7494 24.4999 18.0977 24.3367 17.283C24.3367 16.4683 24.1734 15.6536 23.8469 14.8389C24.1734 15.0018 24.1734 15.3277 24.1734 15.6536V15.9794Z" fill="#51483F"/>
<path d="M26.2955 14.3501C26.2955 14.3501 25.9689 13.3725 25.9689 12.8836H25.8057C25.8057 13.3725 25.8057 14.0242 25.8057 14.513C25.8057 15.0019 25.8057 15.4907 25.9689 16.1424C25.9689 17.1201 26.2955 18.0977 26.2955 19.0753C26.2955 20.053 26.622 21.1935 26.7853 22.1712C26.9485 23.1488 27.1118 24.2894 27.4383 25.267H27.7648C27.7648 24.2894 27.4383 23.3118 27.2751 22.1712C27.1118 21.1935 26.9485 20.053 26.7853 19.0753C26.7853 17.9348 26.4587 16.9571 26.2955 15.8165C26.2955 15.3277 26.2955 14.8389 26.1322 14.1872C26.1322 13.6983 26.1322 13.2095 25.9689 12.7207C25.9689 12.7207 25.9689 12.7207 25.8057 12.7207C25.9689 13.2095 26.1322 13.6983 26.2955 14.1872V14.3501Z" fill="#51483F"/>
<path d="M27.7648 12.0687C27.9281 13.861 28.2546 15.8163 28.4179 17.6086C28.5812 19.401 28.9077 21.1933 29.2342 22.9856C29.2342 22.9856 29.5607 22.9856 29.3975 22.9856C29.2342 21.1933 28.9077 19.401 28.7444 17.4457C28.4179 15.6534 28.2546 13.6981 27.9281 11.9058H27.6016L27.7648 12.0687Z" fill="#51483F"/>
<path d="M30.5408 10.7653C30.5408 10.7653 30.2142 9.46182 30.051 8.81006H29.8877C29.8877 9.78769 30.051 10.6024 30.2142 11.58C30.2142 12.5577 30.5408 13.5353 30.704 14.5129C31.0306 16.4682 31.1938 18.2605 31.6836 20.2158C31.6836 20.2158 32.0101 20.2158 31.8469 20.2158C31.6836 18.2605 31.3571 16.4682 31.0306 14.6759C31.0306 13.6982 30.704 12.8835 30.5408 11.9059C30.5408 11.4171 30.5408 10.9283 30.3775 10.4395C30.3775 9.95063 30.3775 9.46182 30.051 8.973C30.051 8.973 30.051 8.973 29.8877 8.973C30.2142 9.62475 30.3775 10.2765 30.5408 10.7653Z" fill="#51483F"/>
<path d="M32.0098 8.48389C32.0098 9.62446 32.3363 10.765 32.4996 11.9056C32.6628 13.0462 32.8261 14.1868 33.1526 15.3273H33.4792C33.4792 14.1868 33.1526 13.0462 32.9894 11.9056C32.8261 10.765 32.6628 9.62446 32.4996 8.48389H32.173H32.0098Z" fill="#51483F"/>
<path d="M33.9689 6.85449C33.9689 8.48389 34.4587 10.1133 34.622 11.9056C34.7853 13.535 35.1118 15.3273 35.4383 16.9567H35.6016C35.4383 15.3273 35.2751 13.6979 34.9485 11.9056C34.7853 10.2762 34.4587 8.48389 34.1322 6.85449H33.8057H33.9689Z" fill="#51483F"/>
<path d="M36.0922 6.85489C36.0922 6.85489 36.0922 6.20313 36.0922 6.04019C36.0922 6.04019 35.9289 6.04019 35.7656 6.04019C35.7656 6.69195 35.9289 7.50664 36.0922 8.1584C36.0922 8.81016 36.2554 9.62486 36.4187 10.2766C36.582 11.7431 36.9085 13.2095 37.0717 14.8389C37.3983 17.7718 37.8881 20.7047 38.3779 23.6376C38.7044 25.267 38.8677 27.0594 39.1942 28.6888H39.3575C38.7044 22.8229 37.7248 16.9571 36.9085 11.0913C36.9085 10.2766 36.7452 9.46192 36.582 8.64722C36.582 7.83252 36.582 6.85489 36.2554 6.04019C36.2554 5.87725 35.9289 6.04019 35.9289 6.04019C35.9289 6.36607 35.9289 6.52901 35.9289 6.85489H36.0922Z" fill="#51483F"/>
<path d="M38.2144 3.92156C38.2144 3.92156 38.5409 3.59568 38.2144 3.43274C37.7246 3.10686 37.7246 4.0845 37.7246 4.24743C37.8879 6.03977 38.2144 7.8321 38.3777 9.62443C38.8675 13.2091 39.194 16.6308 39.6838 20.2155C40.0103 22.1708 40.1736 24.126 40.5001 26.2442H40.6634C40.3369 23.3113 40.0103 20.3784 39.6838 17.4455C39.3573 14.5126 39.0307 11.5797 38.5409 8.6468L38.2144 6.20271C38.2144 6.20271 38.2144 5.38801 38.2144 4.89919C38.2144 4.89919 38.0511 3.59568 38.2144 3.59568C38.2144 3.59568 38.0511 3.75862 38.2144 3.75862V3.92156Z" fill="#51483F"/>
<path d="M40.0105 4.4106C40.0105 4.4106 40.0105 3.5959 40.0105 3.27002H39.684C40.0105 6.36587 40.5003 9.46172 40.8268 12.5576C41.1533 15.6534 41.4799 18.7493 41.8064 21.8451C41.9697 23.6374 42.1329 25.4298 42.2962 27.0592C42.2962 27.0592 42.6227 27.0592 42.4595 27.0592C42.1329 20.8675 41.3166 14.5128 40.5003 8.32114C40.337 6.52881 40.0105 4.89942 39.684 3.10709C39.684 2.94415 39.3574 3.10709 39.3574 3.10709C39.3574 3.43296 39.3574 3.92178 39.5207 4.24766L40.0105 4.4106Z" fill="#51483F"/>
<path d="M43.6023 1.96655C43.6023 1.96655 43.2757 1.47773 43.2757 1.15186H42.9492C43.1125 3.27007 43.6023 5.22534 43.9288 7.34355C44.2553 9.46176 44.5819 11.58 44.9084 13.6982C44.9084 13.6982 45.2349 13.6982 45.0717 13.6982C44.7451 11.58 44.4186 9.46176 44.2553 7.50649C43.9288 5.38828 43.7655 3.27007 43.2757 1.31479C43.2757 1.31479 43.2757 1.31479 43.1125 1.31479C43.1125 1.64067 43.439 1.80361 43.6023 2.12949V1.96655Z" fill="#51483F"/>
<path d="M45.5611 5.06221C45.5611 5.06221 45.5611 3.75869 45.5611 3.10693H45.2346C45.2346 3.59575 45.2346 4.24751 45.2346 4.73633C45.2346 5.22514 45.2346 5.71396 45.3978 6.20278C45.3978 7.18042 45.5611 8.32099 45.7243 9.29863C45.8876 11.4168 46.2141 13.3721 46.5407 15.4903C46.5407 15.4903 46.8672 15.4903 46.7039 15.4903C46.7039 13.3721 46.2141 11.2539 46.0509 9.29863C46.0509 8.32099 45.8876 7.34335 45.7243 6.20278C45.7243 5.71396 45.7243 5.06221 45.5611 4.57339C45.5611 4.08457 45.5611 3.59575 45.3978 3.10693C45.3978 3.10693 45.2346 3.10693 45.0713 3.10693C45.3978 3.59575 45.5611 4.24751 45.3978 5.06221H45.5611Z" fill="#51483F"/>
<path d="M47.8474 5.0623C47.8474 5.0623 47.8474 4.08467 47.5209 3.75879H47.1943C47.3576 6.36582 47.8474 8.80991 48.1739 11.4169C48.5005 13.861 48.827 16.4681 49.1535 18.9121H49.3168C49.1535 16.3051 48.827 13.861 48.5005 11.254C48.1739 8.80991 47.8474 6.20288 47.5209 3.75879C47.5209 3.75879 47.5209 3.75879 47.3576 3.92173C47.6841 4.08467 47.8474 4.57349 47.6841 5.0623C47.6841 5.0623 47.6841 5.0623 47.8474 5.0623Z" fill="#51483F"/>
<path d="M49.9697 5.0625C49.9697 7.18071 50.2963 9.29892 50.4595 11.4171C50.6228 13.5353 50.7861 15.6536 50.9493 17.7718C50.9493 17.9347 51.2758 17.9347 51.2758 17.7718C51.2758 15.6536 50.9493 13.5353 50.7861 11.4171C50.6228 9.29892 50.4595 7.18071 50.2963 5.0625H50.133H49.9697Z" fill="#51483F"/>
<path d="M52.2548 7.18066C52.2548 7.18066 52.0915 6.20303 51.9283 5.55127H51.6017C51.6017 7.18066 51.9283 8.81006 52.0915 10.2765C52.0915 11.9059 52.4181 13.5353 52.4181 15.1647C52.5813 18.4235 52.7446 21.6823 52.5813 24.941H52.7446C52.7446 21.6823 52.7446 18.4235 52.7446 15.1647C52.7446 13.5353 52.5813 11.9059 52.4181 10.4394C52.4181 8.81006 52.0915 7.18066 51.765 5.55127C51.765 5.55127 51.6017 5.55127 51.4385 5.55127C51.6017 6.04009 51.765 6.52891 51.9283 7.01772L52.2548 7.18066Z" fill="#51483F"/>
<path d="M54.3775 7.50633C54.3775 7.50633 54.3775 6.20282 54.3775 5.714H54.051C54.051 7.34339 54.3775 9.13573 54.3775 10.7651C54.3775 12.3945 54.704 14.1868 54.704 15.8162C54.8673 19.238 55.1938 22.6597 55.3571 26.0814C55.3571 28.0367 55.5204 29.992 55.6836 31.7843H55.8469C55.6836 24.9408 55.1938 18.2603 54.704 11.4169C54.704 9.46161 54.5408 7.50633 54.2142 5.714C54.2142 5.55106 53.8877 5.55106 53.8877 5.714C53.8877 6.36576 53.8877 7.01752 53.8877 7.50633H54.3775Z" fill="#51483F"/>
<path d="M56.9898 8.48399C56.9898 8.48399 56.6633 7.66929 56.9898 7.34341C56.9898 7.34341 56.9898 7.34341 56.8266 7.34341C57.4796 13.698 57.8062 19.8897 57.9694 26.2444C57.9694 28.0367 57.9694 29.829 57.9694 31.6214H58.1327C58.1327 25.2667 57.8062 19.075 57.3164 12.7204C57.3164 10.9281 56.9898 9.13575 56.8266 7.34341C56.8266 7.34341 56.6633 7.18047 56.5 7.34341C56.1735 7.83223 56.3368 8.32105 56.5 8.64693L56.9898 8.48399Z" fill="#51483F"/>
<path d="M58.9492 8.48389C59.2757 11.5797 59.6023 14.5126 59.9288 17.6085C60.0921 20.5414 60.2553 23.6372 60.4186 26.7331C60.4186 28.5254 60.4186 30.1548 60.4186 31.9471H60.5819C60.7451 25.7554 60.5819 19.7267 59.9288 13.6979C59.7655 12.0686 59.6023 10.2762 59.2757 8.64683H58.9492V8.48389Z" fill="#51483F"/>
<path d="M60.7453 7.83203C61.3984 14.0237 61.8882 20.0525 62.2147 26.2442C62.2147 28.0365 62.3779 29.8288 62.5412 31.4582H62.7045C62.7045 28.3624 62.3779 25.2665 62.2147 22.1707C62.0514 19.0748 61.7249 15.979 61.3984 13.0461C61.2351 11.2538 61.0718 9.46142 60.7453 7.83203Z" fill="#51483F"/>
<path d="M45.398 29.5031C45.398 29.5031 45.7245 29.6661 45.7245 29.9919C45.7245 30.1549 45.7245 30.4808 45.7245 30.6437C45.7245 30.9696 45.7245 31.2955 45.7245 31.7843C45.7245 32.599 45.7245 33.4137 45.7245 34.0654C45.7245 35.6948 45.2347 37.1613 44.9082 38.7907C44.9082 38.7907 44.9082 39.1165 45.2347 38.7907C45.398 38.6277 45.5613 38.3018 45.7245 38.1389C45.5613 38.3018 45.398 38.4648 45.0715 38.7907C45.0715 38.7907 45.2347 38.7907 45.398 38.7907C46.0511 36.5095 46.3776 34.0654 46.2143 31.6213C46.2143 30.9696 46.2143 30.4808 46.2143 29.829C46.2143 29.6661 46.2143 29.1772 45.8878 29.1772C45.5613 29.1772 45.5613 29.6661 45.8878 29.6661L45.398 29.5031Z" fill="#51483F"/>
<path d="M47.684 28.3625C47.3575 30.8066 47.0309 33.4136 46.7044 35.8577C46.7044 36.3465 46.5411 36.9983 46.7044 37.3242C46.7044 37.4871 46.8677 37.813 47.1942 37.65C47.5207 37.65 47.1942 36.8353 47.1942 37.1612C47.1942 37.1612 47.1942 36.9983 47.1942 36.8353C47.1942 36.6724 47.1942 36.5095 47.1942 36.1836C47.1942 35.8577 47.1942 35.3689 47.1942 35.043C47.1942 34.2283 47.3575 33.4136 47.5207 32.7619C47.684 31.1325 47.8473 29.666 48.0105 28.0366H47.8473L47.684 28.3625Z" fill="#51483F"/>
<path d="M49.3163 30.6436C49.3163 31.9471 48.9898 33.2506 48.8265 34.5541C48.8265 35.8576 48.5 37.1611 48.5 38.4646C48.8265 37.1611 48.8265 35.8576 48.9898 34.717C48.9898 33.4135 49.1531 32.11 49.3163 30.8065H49.1531L49.3163 30.6436Z" fill="#51483F"/>
<path d="M51.6017 31.2954C51.1119 32.436 50.7853 33.5766 50.6221 34.7171C50.6221 35.206 50.6221 35.8577 50.6221 36.3465C50.6221 36.8353 50.6221 37.4871 50.6221 38.1389H50.7853C50.7853 37.65 50.7853 36.9983 50.7853 36.5095C50.7853 36.0207 50.7853 35.3689 50.7853 34.8801C50.7853 33.7395 51.2751 32.5989 51.6017 31.4583C51.6017 31.4583 51.6017 31.2954 51.4384 31.4583L51.6017 31.2954Z" fill="#51483F"/>
<path d="M53.3982 32.2731C53.0716 33.2507 52.9084 34.2284 52.7451 35.3689C52.7451 35.8578 52.7451 36.3466 52.7451 36.9983C52.7451 37.4872 52.7451 37.976 52.7451 38.4648C52.7451 38.4648 52.7451 38.4648 52.9084 38.4648C52.9084 37.976 52.9084 37.4872 52.9084 36.9983C52.9084 36.5095 52.9084 35.8578 52.9084 35.3689C52.9084 34.2284 53.2349 33.2507 53.5614 32.2731C53.5614 32.2731 53.3982 32.1102 53.3982 32.2731Z" fill="#51483F"/>
<path d="M55.1941 33.4137C54.8675 34.2284 54.7043 35.2061 54.541 36.1837C54.541 35.2061 54.8675 34.2284 55.1941 33.4137C55.1941 33.4137 55.1941 33.2508 55.0308 33.4137H55.1941Z" fill="#51483F"/>
<path d="M56.4997 33.7394C56.1732 34.88 56.0099 35.8576 55.8467 36.9982C55.8467 37.487 55.8467 38.1388 55.8467 38.6276C55.8467 39.1164 55.8467 39.7682 55.8467 40.257H56.0099C56.0099 39.7682 56.0099 39.2793 56.0099 38.7905C56.0099 38.3017 56.0099 37.65 56.0099 37.1611C56.0099 36.0206 56.3365 34.88 56.4997 33.7394C56.4997 33.7394 56.3365 33.5765 56.3365 33.7394H56.4997Z" fill="#51483F"/>
<path d="M57.9691 34.0654C57.6426 35.206 57.4793 36.1836 57.316 37.3242C57.316 38.4648 56.9895 39.6054 57.316 40.583H57.4793C57.4793 39.6054 57.4793 38.4648 57.4793 37.4872C57.4793 36.3466 57.8058 35.206 57.9691 34.2284C57.9691 34.2284 57.8058 34.0654 57.6426 34.2284L57.9691 34.0654Z" fill="#51483F"/>
<path d="M59.1119 34.3913C58.7853 35.5318 58.6221 36.8354 58.6221 37.9759C58.6221 38.6277 58.6221 39.2794 58.6221 39.7683C58.6221 40.2571 58.6221 41.0718 58.9486 41.5606C58.9486 41.5606 59.1119 41.5606 59.2751 41.5606C59.2751 41.0718 59.2751 40.42 59.1119 39.7683C59.1119 39.1165 59.1119 38.6277 59.1119 37.9759C59.1119 36.8354 59.1119 35.5318 59.4384 34.3913C59.4384 34.3913 59.2751 34.2283 59.2751 34.3913H59.1119Z" fill="#51483F"/>
<path d="M60.418 34.5542C60.418 36.9983 60.7445 39.4424 60.9078 41.8865C60.9078 42.2124 60.9078 42.7012 61.2343 43.0271C61.2343 43.0271 61.5608 43.353 61.7241 43.0271C61.8874 42.8642 61.7241 42.2124 61.3976 42.5383C61.3976 42.5383 61.3976 42.5383 61.2343 42.5383C61.2343 42.5383 61.2343 42.3753 61.2343 42.2124C61.2343 42.2124 61.2343 41.8865 61.2343 41.7236C61.2343 41.3977 61.2343 40.9089 61.2343 40.583C61.2343 39.9312 61.2343 39.1165 61.071 38.4648C61.071 36.9983 60.7445 35.5319 60.7445 34.0654C60.7445 34.0654 60.418 34.0654 60.5812 34.0654L60.418 34.5542Z" fill="#51483F"/>
<path d="M61.7243 38.9534C61.7243 38.9534 61.2346 39.7681 61.0713 40.2569C61.0713 40.2569 61.0713 40.4199 61.2346 40.2569C61.5611 39.7681 61.7243 39.4422 61.8876 38.9534C61.8876 38.9534 61.8876 38.6276 61.7243 38.9534Z" fill="#51483F"/>
<path d="M25.1533 40.2573C25.3166 43.0273 25.4799 45.6343 25.6431 48.4043H25.8064C25.6431 45.6343 25.3166 43.0273 25.1533 40.2573Z" fill="#51483F"/>
<path d="M26.6223 39.6055C26.6223 41.0719 26.6223 42.5384 26.6223 44.0048C26.6223 44.6566 26.7856 45.3083 26.9488 45.9601C26.9488 46.6119 27.1121 47.4266 27.6019 47.9154C27.6019 47.2636 27.2754 46.6119 27.1121 45.9601C27.1121 45.3083 26.7856 44.4936 26.7856 43.8419C26.6223 42.3754 26.459 41.0719 26.6223 39.6055Z" fill="#51483F"/>
<path d="M28.0918 40.9092C28.0918 41.8868 28.0918 42.8645 28.0918 44.005C28.0918 44.9827 28.0918 45.9603 28.5816 46.9379H28.7449C28.7449 45.9603 28.5816 44.9827 28.4183 44.005C28.4183 43.0274 28.4183 42.0498 28.4183 41.0721H28.2551L28.0918 40.9092Z" fill="#51483F"/>
<path d="M29.3984 40.583C29.3984 41.5606 29.3984 42.3753 29.3984 43.353C29.3984 43.6789 29.3984 44.1677 29.5617 44.4936C29.5617 44.9824 29.725 45.4712 30.0515 45.7971C30.0515 45.7971 30.378 45.7971 30.2148 45.7971C30.2148 45.4712 30.0515 44.9824 29.8882 44.6565C29.8882 44.1677 29.725 43.6789 29.5617 43.19C29.5617 42.3753 29.5617 41.3977 29.5617 40.583H29.3984Z" fill="#51483F"/>
<path d="M31.1939 40.2573C30.8674 41.072 30.7041 42.0497 30.7041 43.0273C30.7041 43.842 30.8674 44.8196 31.3572 45.6343C31.1939 44.8196 30.8674 44.0049 30.8674 43.0273C30.8674 42.2126 30.8674 41.235 31.3572 40.4203C31.3572 40.4203 31.1939 40.2573 31.1939 40.4203V40.2573Z" fill="#51483F"/>
<path d="M32.5004 40.9092C32.1739 41.7239 32.3372 43.0274 33.1535 43.6791H33.3168C33.1535 43.3533 32.827 43.0274 32.6637 42.5386C32.6637 42.0498 32.6637 41.5609 32.6637 41.2351C32.6637 41.2351 32.5004 41.0721 32.5004 41.2351V40.9092Z" fill="#51483F"/>
<path d="M34.2959 40.2573C34.2959 40.2573 34.2959 41.8867 34.2959 42.5385H34.4592C34.4592 41.7238 34.4592 41.072 34.4592 40.2573H34.2959Z" fill="#51483F"/>
<path d="M21.0713 32.9248C21.3978 35.8577 21.7244 38.9536 22.0509 41.8865C22.2141 43.3529 22.3774 44.8194 22.5407 46.4488C22.5407 47.2635 22.7039 47.9152 22.8672 48.7299C22.8672 49.3817 22.8672 50.1964 23.1937 50.8481H23.357C23.357 50.0334 23.357 49.3817 23.1937 48.567C23.1937 47.7523 23.0305 47.1005 22.8672 46.2858C22.7039 44.8194 22.5407 43.3529 22.3774 41.8865C22.0509 38.9536 21.7244 35.8577 21.2346 32.9248H21.0713Z" fill="#51483F"/>
<path d="M19.7656 38.6279C19.9289 42.0497 20.0922 45.6343 20.582 49.056C20.582 49.219 20.9085 49.219 20.9085 49.056C20.7452 45.6343 20.2554 42.0497 19.9289 38.6279H19.7656Z" fill="#51483F"/>
<path d="M18.2959 39.9312C18.4592 41.2347 18.6224 42.5382 18.6224 43.8417C18.6224 44.4935 18.6224 45.1452 18.6224 45.797C18.6224 46.4487 18.6224 47.1005 18.6224 47.7522C18.6224 47.7522 18.7857 47.9152 18.7857 47.7522C18.949 46.4487 18.7857 45.1452 18.7857 43.8417C18.7857 42.5382 18.6224 41.2347 18.4592 39.9312H18.2959Z" fill="#51483F"/>
<path d="M16.5 41.2349C16.5 42.3754 16.6633 43.516 16.8265 44.6566C16.8265 45.7972 16.8265 46.9377 16.8265 48.0783H16.9898C17.3163 46.9377 17.1531 45.7972 16.9898 44.6566C16.9898 43.516 16.8265 42.3754 16.6633 41.2349H16.5Z" fill="#51483F"/>
<path d="M15.0303 42.2124C15.0303 42.2124 15.0303 43.8418 15.0303 44.6565C15.0303 45.4712 15.0303 46.2859 15.0303 47.1006C15.0303 47.2635 15.3568 47.2635 15.3568 47.1006C15.3568 46.2859 15.3568 45.4712 15.3568 44.6565C15.3568 43.8418 15.3568 43.0271 15.3568 42.2124H15.1935H15.0303Z" fill="#51483F"/>
<path d="M13.5617 44.4938C13.5617 44.4938 13.5617 45.1455 13.5617 45.4714H13.725C13.725 45.1455 13.725 44.8197 13.725 44.4938C13.725 44.3308 13.3984 44.3308 13.3984 44.4938H13.5617Z" fill="#51483F"/>
</g>
<defs>
<clipPath id="clip0_1146_3233">
<rect width="64" height="51" fill="white" transform="translate(0.5 0.5)"/>
</clipPath>
</defs>
</svg>
