<svg width="20" height="26" viewBox="0 0 20 26" fill="none" xmlns="http://www.w3.org/2000/svg">
<path d="M7.21624 4.42438C6.74835 5.30781 6.02706 6.0392 5.77931 7.03359C5.73472 7.21157 5.98813 7.33191 6.07731 7.16113C6.12332 7.07394 6.16792 6.98603 6.20756 6.89596C6.22384 6.85849 6.2111 6.8239 6.18561 6.80589C6.46663 5.9902 7.0414 5.31574 7.41727 4.54256C7.4831 4.40709 7.28844 4.28819 7.21695 4.42294L7.21624 4.42438ZM16.6589 17.0993C16.3991 17.995 15.6821 18.6666 15.4492 19.5738C15.3919 19.7676 15.6906 19.8505 15.7465 19.6574C16.0013 18.7689 16.644 18.0591 16.8727 17.1599C16.9081 17.0194 16.7 16.961 16.6596 17.1001L16.6589 17.0993ZM18.0406 18.7062C18.1199 18.5643 17.9082 18.4389 17.8254 18.5787C17.5543 19.0362 17.2308 19.4599 16.9746 19.9262C16.7955 20.2526 16.5138 20.7815 16.6582 21.1583C16.6893 21.2391 16.8153 21.2816 16.8606 21.185C16.9434 21.0085 16.9442 20.8175 17.0008 20.6302C17.0758 20.3816 17.1926 20.1467 17.3165 19.9197C17.5423 19.5053 17.8113 19.1184 18.0413 18.7062H18.0406ZM17.3774 17.8603C17.475 17.7486 17.3186 17.5857 17.2153 17.6953C16.8465 18.0851 16.7099 18.5996 16.5223 19.0917C16.3503 19.5428 15.7309 20.2151 15.9249 20.7238C15.9539 20.8002 16.065 20.8326 16.1096 20.7483C16.2491 20.4839 16.3071 20.1805 16.4515 19.9089C16.5591 19.7057 16.6766 19.5082 16.7594 19.2928C16.9484 18.8028 17.022 18.2674 17.3781 17.861L17.3774 17.8603ZM18.6586 19.2726C18.7562 19.1479 18.5892 18.9685 18.4823 19.0932C18.1418 19.4938 17.875 19.9413 17.6414 20.4133C17.5189 20.6604 17.4071 20.9119 17.2945 21.1634C17.2054 21.3616 17.0871 21.5547 17.0992 21.7766C17.1027 21.8415 17.1756 21.8991 17.2365 21.8566C17.5713 21.6231 17.7001 21.0452 17.8615 20.6806C18.0817 20.1834 18.323 19.6999 18.6586 19.2719V19.2726ZM6.61598 7.65617C6.6358 7.68355 6.66483 7.69941 6.6988 7.69076C6.85453 7.65041 6.88355 7.49908 6.94372 7.36362C7.04494 7.13591 7.15961 6.9147 7.2764 6.6942C7.52557 6.22366 7.79667 5.7661 8.05149 5.29916C8.12228 5.16946 7.93045 5.05489 7.85542 5.18243C7.57653 5.65729 7.2757 6.11846 6.99893 6.59476C6.87859 6.80157 6.43478 7.40613 6.61598 7.65617ZM7.34648 7.92134C7.32878 7.99989 7.4201 8.05465 7.47814 7.99917C7.77968 7.71166 7.96018 7.30597 8.16192 6.94424C8.35021 6.60701 8.52221 6.26978 8.66236 5.90949C8.69493 5.82663 8.56893 5.78123 8.52575 5.85113C8.31694 6.18763 8.10671 6.52342 7.89789 6.85921C7.68837 7.19572 7.43567 7.52791 7.34648 7.92134ZM15.6063 15.0522C15.4598 14.9563 15.2467 14.9924 15.1271 15.1149C15.1038 15.1386 15.0797 15.1631 15.0563 15.1869C14.9763 15.2683 14.9417 15.3591 14.9402 15.4478C14.9155 15.4953 14.8999 15.5508 14.8971 15.6157C14.844 16.8731 13.584 17.2586 12.5385 16.9567C11.3012 16.6 10.5863 15.419 9.93861 14.3842C9.60805 13.856 9.26757 13.3386 8.87401 12.8559C8.45709 12.3442 8.00478 11.8593 7.6551 11.2951C7.33232 10.7741 7.08175 10.1638 7.31321 9.55345C7.54468 8.94312 8.18032 8.63111 8.68785 8.29749C9.20457 7.95737 9.75882 7.52935 9.8112 6.85201C9.86995 6.09324 9.40702 5.39212 8.96532 4.82719C7.99557 3.58707 7.14404 2.27274 5.74887 1.47938C4.47971 0.757364 3.03853 0.656483 1.86351 1.61557C0.823685 2.46441 0.374911 3.85152 0.13849 5.13919C-0.188534 6.9219 0.0684135 8.60301 0.858369 10.2265C1.29299 11.1193 1.80193 11.971 2.38944 12.7622C2.37599 12.7989 2.37741 12.84 2.40147 12.8775C2.60321 13.1931 2.8283 13.4936 3.05269 13.794C3.05835 13.8387 3.08737 13.8755 3.12631 13.8928C3.25089 14.0599 3.37476 14.2271 3.49439 14.3979C3.85539 14.9145 4.20789 15.4384 4.55332 15.9666C5.24701 17.0273 5.99874 18.0512 6.76746 19.0564C8.20864 20.94 9.8381 22.9266 11.8795 24.1603C13.6569 25.2339 15.7422 25.3961 17.6294 24.5162C18.4158 24.1495 19.1413 23.5658 19.5674 22.7883C20.0311 21.9431 20.0948 20.9213 19.8874 19.9881C19.3926 17.7601 17.388 16.2181 15.6049 15.05L15.6063 15.0522ZM18.9806 22.1427C18.6706 22.8791 18.0357 23.4015 17.3441 23.7474C17.2195 23.8094 17.0935 23.8656 16.9668 23.916C16.9994 23.7632 17.0171 23.6025 17.0808 23.4592C17.1431 23.3186 16.9399 23.1954 16.8755 23.3367C16.809 23.4822 16.7785 23.6343 16.746 23.7913C16.7318 23.8584 16.6978 23.9412 16.6815 24.0205C16.4692 24.0911 16.254 24.1466 16.0381 24.1869C16.0855 23.9981 16.1323 23.8094 16.1372 23.6141C16.1408 23.4628 15.9157 23.4649 15.9079 23.6141C15.8973 23.8281 15.8215 24.0277 15.7599 24.2302C15.4931 24.264 15.2248 24.2763 14.9579 24.2669C15.0252 23.9859 15.0974 23.7063 15.1611 23.4246C15.1887 23.3013 15.0082 23.2495 14.9742 23.372C14.8928 23.6681 14.7994 23.96 14.7102 24.2525C14.524 24.2374 14.3393 24.2114 14.1552 24.1754C14.1722 23.8865 14.2239 23.5817 14.4044 23.3712C14.5 23.2603 14.3449 23.0989 14.2444 23.2084C14.0307 23.4411 13.9302 23.7856 13.8898 24.1185C13.7673 24.0882 13.6456 24.0536 13.5246 24.0154C13.5097 23.9866 13.48 23.9686 13.4474 23.9902C13.4332 23.9859 13.4198 23.9809 13.4056 23.9758C13.4396 23.5651 13.5748 23.1695 13.5861 22.7494C13.5904 22.6038 13.3717 22.6053 13.3653 22.7494C13.3469 23.1356 13.1961 23.4995 13.1324 23.8735C12.947 23.7993 12.7636 23.7142 12.5845 23.6198C12.5881 23.5694 12.5392 23.5305 12.4869 23.555C12.4826 23.5572 12.4791 23.5593 12.4748 23.5608C12.4727 23.5593 12.4706 23.5586 12.4685 23.5572C12.4953 23.1493 12.5527 22.758 12.7233 22.3732C12.7813 22.2421 12.5952 22.1254 12.53 22.258C12.3573 22.6089 12.2377 22.9973 12.1881 23.3921C11.9616 23.2509 11.7401 23.0996 11.5249 22.9403C11.6084 22.5772 11.7932 22.1989 11.8618 21.907C11.888 21.7961 11.7273 21.7507 11.6941 21.8602C11.6112 22.1297 11.4364 22.4554 11.3217 22.7847C11.1002 22.6132 10.885 22.4338 10.6741 22.2464C10.7314 21.9106 10.8262 21.5813 10.834 21.2347C10.8376 21.0798 10.6075 21.082 10.599 21.2347C10.5835 21.5071 10.5028 21.7687 10.4362 22.031C10.3145 21.9186 10.1949 21.8033 10.0766 21.6865C10.1064 21.5244 10.1156 21.35 10.1375 21.2419C10.2182 20.8485 10.2968 20.4486 10.2996 20.0458C10.301 19.8952 10.0759 19.8959 10.0703 20.0458C10.0526 20.4997 9.9195 20.9285 9.81757 21.3673C9.81403 21.3817 9.81049 21.3976 9.80624 21.4134C9.53797 21.1367 9.27748 20.8521 9.02337 20.5617C9.05734 20.1668 9.24351 19.7273 9.33765 19.4275C9.38154 19.2863 9.16989 19.2301 9.12176 19.367C9.08424 19.4736 8.92993 19.9118 8.83791 20.347C8.61069 20.0818 8.38772 19.813 8.169 19.5443C8.17324 19.176 8.27942 18.8021 8.38631 18.4562C8.43161 18.3099 8.21076 18.2508 8.16263 18.3935C8.11449 18.5362 7.9892 18.8885 7.92196 19.2373C7.76269 19.0391 7.60555 18.841 7.44983 18.6443C7.37267 18.547 7.29622 18.4483 7.21907 18.3503C7.2311 18.2681 7.24597 18.186 7.26083 18.1053C7.32029 17.7839 7.42718 17.4567 7.43496 17.1274C7.4385 16.9747 7.21057 16.9761 7.20279 17.1274C7.19571 17.268 7.07608 17.6491 6.9869 18.0505C6.80356 17.812 6.62165 17.5713 6.44185 17.3299C6.49282 16.9343 6.63722 16.5308 6.78091 16.2137C6.84179 16.079 6.64925 15.9601 6.58272 16.0956C6.45813 16.3492 6.31303 16.6872 6.22384 17.0359C6.03484 16.7794 5.84656 16.5222 5.65969 16.2635C5.69932 16.1374 5.75524 16.0163 5.80479 15.9104C5.98246 15.5342 6.19057 15.1826 6.14314 14.7495C6.12899 14.6242 5.93645 14.6198 5.94707 14.7495C5.98459 15.2316 5.6703 15.6013 5.48343 16.0185C5.35744 15.8441 5.23215 15.669 5.10686 15.4939C5.01201 15.3613 4.91574 15.2266 4.81876 15.0911C4.8761 14.9174 4.9752 14.7546 5.07925 14.5896C5.15711 14.4671 4.96812 14.3575 4.88813 14.4757C4.79965 14.6076 4.72037 14.7366 4.65808 14.8692C4.50236 14.6551 4.34238 14.4411 4.17675 14.2314C4.17816 14.1594 4.18029 14.0866 4.18737 14.016C4.21851 13.6896 4.27372 13.3667 4.32894 13.0446C4.34875 12.9286 4.17887 12.8768 4.15268 12.9949C4.08119 13.3185 4.01111 13.642 3.96439 13.9699C3.77682 13.7451 3.58287 13.5274 3.37688 13.325C3.37193 13.317 3.36697 13.3091 3.36131 13.3012C3.46182 12.7701 3.64374 12.2455 3.5588 11.7051C3.54747 11.6338 3.42785 11.6496 3.43422 11.7224C3.47386 12.1764 3.31247 12.6015 3.1886 13.0346C2.95855 12.6779 2.73628 12.3161 2.52181 11.9501C2.57489 11.775 2.64709 11.6035 2.72 11.4414C2.76318 11.3441 2.62798 11.2583 2.57702 11.3563C2.55224 11.4032 2.4758 11.5559 2.40006 11.7382C2.30945 11.5797 2.22097 11.4205 2.13391 11.2598C2.13745 11.2454 2.14099 11.231 2.14452 11.2158C2.19549 10.9838 2.2231 10.7525 2.16788 10.5197C2.1516 10.4527 2.06029 10.483 2.06949 10.5471C2.09285 10.7172 2.06454 10.8836 2.01994 11.0465C1.89465 10.8101 1.77361 10.5716 1.65753 10.331C0.941895 8.84512 0.486042 7.33479 0.754316 5.66666C0.959591 4.39412 1.3213 2.9472 2.38094 2.12718C2.66196 1.90957 2.95571 1.77554 3.25372 1.70925C3.11073 2.02558 3.02579 2.36425 3.28557 2.3729C3.32804 2.37434 3.34715 2.3275 3.33087 2.29219C3.32875 2.28715 3.33937 2.16465 3.34645 2.1207C3.36343 2.00829 3.40944 1.89876 3.45121 1.79427C3.46819 1.75248 3.48731 1.71069 3.50713 1.66889C3.70886 1.64872 3.91201 1.65809 4.11375 1.69051C4.0373 1.88074 3.90635 2.05873 3.80867 2.2259C3.72019 2.37866 3.51067 2.64023 3.65577 2.80813C3.67347 2.82902 3.70603 2.83551 3.73081 2.8283C3.86176 2.79083 3.86884 2.67842 3.92334 2.56241C3.99554 2.40893 4.08473 2.26409 4.15905 2.11133C4.21993 1.98667 4.27585 1.85913 4.30699 1.72798C4.4337 1.75753 4.55969 1.79644 4.68357 1.84255C4.4705 2.1769 4.2086 2.48026 4.01536 2.82686C3.89219 3.04808 3.69895 3.41846 3.86034 3.65336C3.88441 3.68867 3.94104 3.70741 3.9736 3.6685C4.05995 3.56401 4.05712 3.48835 4.08968 3.3536C4.13428 3.16553 4.21568 2.98827 4.3077 2.81966C4.47404 2.51485 4.68286 2.23743 4.85699 1.93767C4.86124 1.93046 4.86407 1.92326 4.8669 1.91677C5.02616 1.98595 5.18189 2.06737 5.33408 2.15745C5.32275 2.17186 5.31496 2.18987 5.31284 2.21149C5.27816 2.55953 5.00139 2.85785 4.84566 3.15617C4.75435 3.33055 4.64393 3.49412 4.55969 3.67282C4.5066 3.78523 4.40609 3.97834 4.49811 4.09796C4.56323 4.18227 4.67507 4.18371 4.72462 4.08355C4.73382 4.06553 4.73453 4.0432 4.72816 4.02374C4.72958 4.0187 4.73099 4.01221 4.73241 4.00573C4.74161 3.97114 4.75293 3.93655 4.76638 3.9034C4.79328 3.83063 4.82301 3.76001 4.8577 3.69083C4.92777 3.55176 5.0028 3.43071 5.0658 3.28731C5.21162 2.95368 5.46007 2.63303 5.50184 2.26121C5.73684 2.41397 5.95981 2.58763 6.16509 2.7721C5.75029 3.3536 5.04315 4.51373 5.39212 4.65425C5.42326 4.6665 5.46857 4.64056 5.47352 4.60741C5.47211 4.61606 5.59032 4.42582 5.61438 4.36818C5.70711 4.14336 5.814 3.92574 5.9223 3.70813C6.04829 3.45593 6.17004 3.17274 6.32081 2.91838C6.4638 3.05529 6.60112 3.19724 6.73349 3.34352C6.34205 3.86089 6.13465 4.51229 5.75666 5.0412C5.65473 5.18459 5.42468 5.45697 5.48131 5.65441C5.52519 5.80861 5.67667 5.82807 5.78073 5.7243C5.80904 5.6962 5.80762 5.65657 5.7878 5.62775C5.79488 5.60613 5.79913 5.58091 5.80904 5.56361C5.85576 5.47859 5.89752 5.3914 5.94849 5.30925C6.03484 5.16946 6.14314 5.04552 6.22313 4.90285C6.47583 4.45465 6.60891 3.9452 6.88426 3.51285C7.21553 3.89548 7.5192 4.30261 7.81437 4.71333C8.21501 5.27034 8.81738 5.83671 8.94621 6.54216C9.06584 7.195 8.27376 7.53872 7.83277 7.84064C7.29552 8.20813 6.78728 8.64552 6.56219 9.28323C6.10917 10.5666 6.94442 11.7591 7.71456 12.698C8.10034 13.1679 8.49815 13.6204 8.8372 14.1277C9.18971 14.6544 9.5047 15.2064 9.86712 15.7274C10.662 16.8695 11.7472 17.8199 13.1876 17.8552C13.8303 17.8711 14.42 17.6837 14.8596 17.3278C14.609 17.6513 14.374 17.9835 14.3188 18.3928C14.2777 18.5448 14.5198 18.6089 14.5488 18.4569C14.7137 17.5908 15.7224 16.9603 15.6651 16.0495C15.8647 16.1864 16.065 16.3276 16.2632 16.4746C16.0721 16.8543 15.7798 17.1772 15.5617 17.5411C15.4081 17.7983 15.108 18.3128 15.3366 18.5866C15.3628 18.6176 15.4152 18.614 15.4421 18.5866C15.5716 18.454 15.5539 18.2667 15.612 18.0945C15.6934 17.8559 15.8236 17.6376 15.956 17.4258C16.1252 17.1563 16.3 16.8889 16.4267 16.5971C17.468 17.389 18.4313 18.3387 18.9141 19.5493C18.9842 19.7251 19.0422 19.9096 19.0889 20.0977C18.8107 20.4659 18.534 20.8384 18.3308 21.2563C18.2346 21.4552 18.1744 21.6649 18.0852 21.8667C17.9904 22.0814 17.8629 22.2781 17.7617 22.49C17.7277 22.5613 17.7985 22.6442 17.8714 22.6017C18.2586 22.3761 18.3606 22 18.5085 21.5993C18.6614 21.185 18.9056 20.8125 19.159 20.4536C19.2447 21.0236 19.2057 21.6152 18.9849 22.1398L18.9806 22.1427Z" fill="#51483F"/>
</svg>
