<svg width="65" height="52" viewBox="0 0 65 52" fill="none" xmlns="http://www.w3.org/2000/svg">
<g clip-path="url(#clip0_1146_3184)">
<path d="M24.2101 18.3834C26.863 14.2438 29.35 9.93857 31.8371 5.79896C32.5003 4.80545 32.9977 3.64636 33.6609 2.65285C33.8267 2.32168 34.1583 1.99052 34.4899 1.82493C34.9873 1.65935 35.1531 1.99052 35.3189 2.48727C36.3137 4.63987 37.3086 6.95805 38.3034 9.11065C39.464 11.5944 40.4588 14.2438 41.6194 16.7275C41.6194 16.7275 41.9511 17.0587 42.1169 17.0587C47.92 16.5619 53.7231 15.8996 59.5262 15.2373C60.1894 15.2373 61.0184 15.2373 61.6816 15.0717C62.179 15.0717 62.8422 14.9061 63.1739 15.2373C63.8371 15.8996 63.1739 17.0587 62.6764 17.5555C62.3448 18.0522 61.8474 18.549 61.35 18.8801C60.8526 19.3769 60.3552 19.8736 59.8578 20.2048C58.863 21.1983 57.8682 22.0262 56.8733 23.0197C54.5521 25.1723 52.2308 27.1593 49.7438 28.9808C49.578 28.9808 49.578 29.4775 49.7438 29.6431C50.7386 31.6301 51.8992 33.7827 52.8941 35.7697L54.3863 38.9158C54.8837 39.9094 55.3811 40.9029 55.7127 41.8964C55.8785 42.7243 55.8785 43.7178 55.2153 44.2146C54.5521 44.7113 53.7231 44.7113 53.0599 44.7113C52.065 44.7113 51.236 44.049 50.407 43.5522C49.578 43.0555 48.5832 42.5587 47.5884 41.8964C45.7645 40.9029 43.7749 39.9094 41.7852 39.0814C40.7904 38.7503 39.7956 38.2535 38.8008 37.9223C37.806 37.5912 36.6453 37.26 35.6505 37.7568C34.8215 38.0879 34.1583 38.7503 33.4951 39.4126C32.8319 40.0749 32.0029 40.7373 31.3397 41.3996C29.8474 42.7243 28.3552 43.7178 26.6972 44.8769C23.0495 47.1951 19.0702 49.0165 14.9251 50.3412C15.0909 50.5068 15.4226 50.8379 15.5884 51.0035C16.749 45.5392 18.9044 40.2405 22.0547 35.4386C22.3863 34.7762 21.3915 34.2795 21.0599 34.9418C17.9096 39.7438 15.7542 45.0425 14.4277 50.6723C14.4277 51.1691 14.7593 51.5003 15.0909 51.3347C18.9044 50.1756 22.7179 48.5197 26.034 46.5327C27.692 45.5392 29.35 44.3801 30.8422 43.0555C31.6713 42.3931 32.3345 41.7308 33.1635 41.0684C33.8267 40.4061 34.4899 39.7438 35.3189 39.0814C36.3137 38.4191 37.1428 38.5847 38.1376 39.0814C39.1324 39.4126 40.293 39.9094 41.2878 40.2405C43.2775 41.0684 45.2671 42.0619 47.2568 43.0555C49.0806 44.049 50.7386 45.3736 52.8941 45.5392C54.5521 45.7048 56.5417 44.7113 56.7075 42.8899C56.7075 41.7308 56.3759 40.5717 55.8785 39.5782C55.2153 38.4191 54.7179 37.26 54.0547 36.1009C52.8941 33.7827 51.7334 31.299 50.407 28.8152C50.407 28.9808 50.407 29.3119 50.407 29.4775C52.7283 27.6561 54.8837 25.8347 57.0391 23.8477C58.1998 22.8542 59.1946 21.8606 60.3552 20.8671C61.35 19.8736 62.3448 19.0457 63.3397 17.8866C64.0029 17.0587 64.6661 15.8996 64.3345 14.9061C64.0029 13.5814 62.6764 13.4158 61.6816 13.5814C58.5314 13.9126 55.5469 14.2438 52.3966 14.5749C48.9148 14.9061 45.4329 15.2373 41.9511 15.5684L42.4485 15.8996L39.2982 8.61389C38.8008 7.4548 38.1376 6.13013 37.6402 4.97104C37.1428 3.81194 36.6454 2.65285 36.1479 1.49376C35.6505 0.500256 34.6557 0.00350249 33.8267 0.66584C32.8319 1.32818 32.3345 2.48727 31.8371 3.31519C30.5106 5.63337 29.1842 7.78597 27.8578 10.1042C26.3656 12.5879 24.8733 15.2373 23.5469 17.721C23.2153 18.2178 24.0443 18.549 24.3759 18.2178L24.2101 18.3834Z" fill="#51483F"/>
<path d="M22.8833 17.7206C22.8833 17.7206 22.3859 17.555 22.0543 17.7206C21.7227 17.7206 21.2253 17.7206 20.8937 17.8862C20.0647 18.0517 19.2356 18.2173 18.4066 18.3829C16.7486 18.7141 15.2564 19.0452 13.5983 19.3764C10.4481 20.0387 7.13202 20.8667 3.98176 21.6946C2.82114 22.0258 1.32891 22.1913 0.665697 23.1849C0.334091 23.6816 0.334091 24.1784 0.665697 24.6751C0.997303 25.1719 1.49471 25.503 1.99212 25.8342C4.97658 27.1589 7.96103 28.4836 11.1113 29.9738C12.7693 30.8017 14.4274 31.4641 16.0854 32.292C17.7434 33.1199 19.5673 33.9478 21.2253 34.6102C21.7227 34.7758 22.0543 33.9478 21.5569 33.7823C20.2305 33.1199 18.7382 32.4576 17.246 31.7952C15.9196 31.1329 14.4274 30.4706 13.1009 29.9738C10.2823 28.6491 7.46362 27.49 4.64497 26.1654C3.98176 25.8342 3.31855 25.503 2.48953 25.1719C2.15792 25.0063 1.32891 24.6751 1.49471 24.1784C1.49471 23.6816 1.99212 23.516 2.48953 23.3504C2.98694 23.0193 3.65015 23.0193 4.31337 22.8537C7.29782 22.0258 10.2823 21.3634 13.2667 20.7011C14.9248 20.3699 16.5828 19.8732 18.4066 19.542C19.2356 19.3764 20.0647 19.2108 20.8937 19.0452C21.3911 19.0452 21.7227 18.8797 22.2201 18.7141C22.7175 18.7141 22.8833 18.7141 23.2149 18.2173C23.2149 18.2173 23.2149 18.2173 23.2149 18.0517L22.8833 17.7206Z" fill="#51483F"/>
<path d="M3.15332 25.5032C5.14296 24.1785 6.96679 22.8538 9.12223 21.5292C6.96679 22.5227 4.97715 23.8473 3.15332 25.5032Z" fill="#51483F"/>
<path d="M5.14258 26.1658C5.14258 26.1658 6.63481 24.8411 7.46382 24.1788C8.29284 23.5164 8.95605 22.8541 9.78507 22.1918C8.95605 22.8541 8.12703 23.5164 7.46382 24.1788C6.63481 24.8411 5.80579 25.5034 5.14258 26.1658C5.14258 26.1658 5.14258 26.497 5.14258 26.3314V26.1658Z" fill="#51483F"/>
<path d="M6.96616 26C6.96616 26 6.63455 26.4967 6.46875 26.8279C6.46875 26.8279 6.46875 27.1591 6.63455 26.9935C7.29777 26.4967 7.96098 25.8344 8.78999 25.172C9.45321 24.5097 10.2822 24.013 10.9454 23.3506C10.9454 23.3506 10.9454 23.0195 10.9454 23.185C10.1164 23.6818 9.45321 24.3441 8.78999 24.8409C8.12678 25.5032 7.29777 26 6.63455 26.8279C6.63455 26.8279 6.63455 26.8279 6.80036 26.8279C6.80036 26.4967 7.13196 26.3311 7.13196 26C7.13196 26 7.13196 25.8344 6.96616 26Z" fill="#51483F"/>
<path d="M9.28757 26.3313C9.28757 26.3313 8.45856 27.1593 8.12695 27.656C8.12695 27.656 8.12695 27.656 8.29276 27.656C8.62436 27.1593 9.12177 26.8281 9.45338 26.3313H9.28757Z" fill="#51483F"/>
<path d="M10.1163 27.987L9.45312 28.8149C9.45312 28.8149 9.45312 29.146 9.61893 28.9805C10.4479 28.3181 11.277 27.6558 12.106 26.9935C12.935 26.3311 13.764 25.6688 14.593 24.8409C14.593 24.8409 14.593 24.5097 14.4272 24.6753C13.5982 25.3376 12.7692 25.9999 11.9402 26.6623C11.1112 27.3246 10.2821 28.1525 9.45312 28.8149C9.45312 28.8149 9.45312 28.8149 9.61893 28.9805L10.2821 28.1525C10.2821 28.1525 10.2821 27.8214 10.1163 28.1525V27.987Z" fill="#51483F"/>
<path d="M13.2664 27.9872C13.2664 27.9872 11.94 28.9807 11.6084 29.8086C11.6084 29.8086 11.6084 30.1398 11.94 29.8086C12.6032 28.9807 13.2664 28.1527 14.0954 27.4904C14.9245 26.8281 15.9193 26.1657 16.7483 25.669C16.7483 25.669 16.7483 25.3378 16.7483 25.5034C14.7587 26.3313 12.9348 27.9872 11.7742 29.643C11.7742 29.643 11.94 29.643 12.1058 29.643C12.2716 28.9807 12.769 28.3183 13.4322 27.9872V27.8216L13.2664 27.9872Z" fill="#51483F"/>
<path d="M15.2563 28.6493C15.2563 28.6493 14.4273 29.4773 14.0957 29.974C14.0957 29.974 14.0957 30.3052 14.2615 30.1396C15.7537 28.6493 17.4118 27.3247 19.0698 26.1656C19.0698 26.1656 19.0698 25.8344 19.0698 26C17.246 26.9935 15.5879 28.4837 14.2615 29.974C14.2615 29.974 14.2615 29.974 14.4273 30.1396C14.7589 29.6428 15.2563 29.1461 15.5879 28.8149C15.5879 28.8149 15.5879 28.4837 15.4221 28.6493H15.2563Z" fill="#51483F"/>
<path d="M16.9145 29.8085C16.9145 29.8085 16.0855 30.3053 15.7539 30.6364C15.7539 30.6364 15.7539 30.802 15.9197 30.9676C16.5829 30.4708 17.2461 29.8085 18.0751 29.1462C18.4068 28.815 18.7384 28.6494 19.07 28.3182C19.4016 27.9871 19.899 27.6559 20.2306 27.3247C20.2306 27.3247 20.2306 26.9936 20.0648 27.1592C19.7332 27.3247 19.4016 27.6559 19.07 27.9871C18.7384 28.3182 18.4068 28.6494 17.9093 28.9806C17.2461 29.6429 16.4171 30.1397 15.7539 30.802C15.7539 30.802 15.7539 31.1332 15.9197 31.1332C16.2513 30.802 16.7487 30.4708 17.0803 30.3053C17.0803 30.3053 17.0803 29.9741 17.0803 30.1397L16.9145 29.8085Z" fill="#51483F"/>
<path d="M19.07 29.9739C19.07 29.9739 18.4068 30.4706 18.0752 30.8018C18.0752 30.8018 18.0752 31.133 18.241 30.9674C18.5726 30.6362 18.9042 30.4706 19.2358 30.1395C19.5674 29.8083 19.899 29.6427 20.2306 29.3116C20.2306 29.3116 20.2306 28.9804 20.0648 29.146C19.7332 29.3116 19.4016 29.6427 19.07 29.8083C18.7384 30.1395 18.4068 30.3051 18.0752 30.6362C18.0752 30.6362 18.0752 30.6362 18.241 30.8018C18.5726 30.4706 18.9042 30.1395 19.07 29.9739C19.07 29.9739 19.07 29.6427 18.9042 29.8083L19.07 29.9739Z" fill="#51483F"/>
<path d="M20.3965 30.9678C20.3965 30.9678 19.7333 31.4645 19.4017 31.7957C19.2359 31.7957 19.4017 32.2924 19.5675 32.1269C19.8991 31.7957 20.2307 31.6301 20.5623 31.2989C20.5623 31.2989 20.5623 30.9678 20.5623 31.1334C20.2307 31.2989 19.7333 31.6301 19.4017 31.9613C19.4017 31.9613 19.4017 31.9613 19.5675 32.1269C19.8991 31.7957 20.2307 31.4645 20.5623 31.2989L20.3965 30.9678Z" fill="#51483F"/>
<path d="M20.3962 37.9223C20.3962 37.9223 19.733 38.5846 19.4014 38.7502C19.4014 38.7502 19.4014 38.7502 19.5672 38.9158C20.562 38.0879 21.391 37.0944 22.3858 36.2665C23.3806 35.4385 24.3755 34.7762 25.3703 33.9483C25.3703 33.9483 25.3703 33.6171 25.3703 33.7827C24.2097 34.445 23.2148 35.273 22.3858 36.1009C21.391 36.9288 20.3962 37.7567 19.5672 38.7502C19.5672 38.7502 19.5672 39.0814 19.733 38.9158C20.0646 38.5846 20.3962 38.2535 20.7278 38.0879L20.3962 37.9223Z" fill="#51483F"/>
<path d="M21.2251 39.2466C20.3961 39.9089 19.5671 40.7369 18.5723 41.3992C18.5723 41.3992 18.5723 41.3992 18.7381 41.5648C19.7329 40.7369 20.7277 39.7434 21.7225 38.9154C22.7173 38.0875 23.878 37.2596 24.8728 36.4317C24.8728 36.4317 24.8728 36.1005 24.8728 36.2661C23.7122 37.094 22.7173 37.7563 21.7225 38.7499C20.7277 39.5778 19.5671 40.5713 18.7381 41.5648C18.7381 41.5648 18.7381 41.896 18.9039 41.7304C19.7329 40.9025 20.5619 40.2401 21.3909 39.4122L21.2251 39.2466Z" fill="#51483F"/>
<path d="M19.2361 42.5586C18.2413 43.2209 17.578 43.8833 16.749 44.8768C16.749 44.8768 16.749 45.0424 16.9148 44.8768C18.2413 43.7177 19.5677 42.5586 20.8941 41.3995C22.2205 40.2404 23.547 39.0813 24.8734 37.9222C23.547 38.9157 22.2205 40.2404 20.8941 41.2339C19.5677 42.393 18.2413 43.5521 16.9148 44.7112C16.9148 44.7112 16.9148 44.7112 17.0806 44.7112C17.7438 43.8833 18.5729 43.0553 19.4019 42.5586C19.4019 42.5586 19.4019 42.2274 19.4019 42.393L19.2361 42.5586Z" fill="#51483F"/>
<path d="M20.8933 42.2274C19.4011 43.5521 18.0747 44.8767 16.9141 46.367C16.9141 46.367 16.9141 46.6982 17.0799 46.5326C18.2405 45.3735 19.4011 44.2144 20.7275 43.0553C22.054 41.8962 23.3804 40.9027 24.541 39.9092C24.541 39.9092 24.541 39.578 24.541 39.7436C23.2146 40.5716 21.8882 41.7306 20.5617 42.7241C19.2353 43.8832 18.0747 45.0423 16.9141 46.2014C16.9141 46.2014 16.9141 46.2014 17.0799 46.367C18.2405 44.8767 19.5669 43.3865 20.8933 42.2274Z" fill="#51483F"/>
<path d="M20.065 44.711C18.7386 46.0356 17.2463 47.1947 15.9199 48.5194C15.9199 48.5194 15.9199 48.8506 16.0857 48.685C17.9096 47.0291 19.8992 45.5389 21.723 43.883C23.5469 42.2272 25.5365 40.7369 27.3603 39.0811C27.3603 39.0811 27.3603 38.7499 27.3603 38.9155C25.3707 40.4058 23.5469 42.0616 21.723 43.5519C19.8992 45.2077 17.9096 46.698 16.0857 48.3538C16.0857 48.3538 16.0857 48.3538 16.2515 48.5194C17.578 47.1947 18.9044 46.0356 20.3966 44.711C20.3966 44.711 20.3966 44.3798 20.2308 44.5454L20.065 44.711Z" fill="#51483F"/>
<path d="M18.9045 47.526C18.0754 48.1883 17.2464 49.0162 16.749 50.0097C16.749 50.0097 16.749 50.1753 16.9148 50.0097C19.5677 47.8571 22.0547 45.7045 24.5418 43.5519C27.0288 41.3994 29.6817 39.2468 32.1687 36.9286C29.5159 38.9156 27.0288 41.2338 24.5418 43.3864C22.0547 45.539 19.4019 47.6916 16.9148 50.0097C16.9148 50.0097 16.9148 50.0097 17.0806 50.0097C17.578 49.0162 18.2413 48.1883 19.0703 47.526H18.9045Z" fill="#51483F"/>
<path d="M20.5625 48.5197C24.8734 45.208 29.1843 41.7307 33.4951 38.419C34.6558 37.4255 35.9822 36.432 37.1428 35.4385C37.1428 35.4385 37.1428 35.1073 37.1428 35.2729C35.9822 36.1008 34.9874 36.9288 33.9926 37.7567C32.9977 38.5846 31.8371 39.4125 30.8423 40.2405C28.6869 41.8963 26.5314 43.7177 24.376 45.3736C23.2154 46.3671 21.8889 47.3606 20.7283 48.3541L20.5625 48.5197Z" fill="#51483F"/>
<path d="M36.4795 39.0811C37.6401 38.0876 38.6349 37.0941 39.7956 36.1006C40.9562 35.1071 42.2826 34.2791 43.609 33.4512C43.609 33.4512 43.609 33.12 43.609 33.2856C40.9562 34.7759 38.4691 36.9285 36.4795 39.0811C36.4795 39.0811 36.4795 39.4122 36.6453 39.2467L36.4795 39.0811Z" fill="#51483F"/>
<path d="M38.4685 39.081C39.6292 38.253 40.7898 37.4251 41.9504 36.4316C43.111 35.6037 44.2716 34.7758 45.2665 33.7823C45.2665 33.7823 45.2665 33.4511 45.1007 33.6167C43.94 34.4446 42.7794 35.2725 41.6188 36.266C40.4582 37.094 39.4634 37.9219 38.3027 38.9154C38.3027 38.9154 38.3027 39.2465 38.4685 39.081Z" fill="#51483F"/>
<path d="M42.6143 37.5909C42.6143 37.5909 41.6195 38.4188 41.1221 38.9156C41.1221 38.9156 41.1221 38.9156 41.2879 39.0812C42.1169 38.2533 43.1117 37.5909 43.9407 36.763C44.7697 36.1007 45.7646 35.2727 46.7594 34.6104V34.4448C44.7697 35.6039 42.9459 37.2598 41.2879 38.9156C41.2879 38.9156 41.2879 39.2468 41.4537 39.0812C41.9511 38.5844 42.4485 38.0877 42.9459 37.5909H42.6143Z" fill="#51483F"/>
<path d="M44.2722 38.5843C44.2722 38.5843 43.6089 39.4122 43.2773 39.7434C43.2773 39.7434 43.2773 40.0745 43.4431 39.9089C44.1064 39.2466 44.7696 38.5843 45.4328 37.9219C46.096 37.2596 46.7592 36.7628 47.2566 35.9349C46.5934 36.4317 45.9302 37.094 45.267 37.7563C44.6038 38.4187 43.9406 39.081 43.2773 39.7434C43.2773 39.7434 43.2773 39.7434 43.4431 39.9089C43.7748 39.5778 44.1064 39.081 44.438 38.7499L44.2722 38.5843Z" fill="#51483F"/>
<path d="M45.9297 39.5777C45.9297 39.5777 46.9245 38.5842 47.4219 38.0874C47.9193 37.5907 48.5825 37.2595 49.0799 36.7627C49.0799 36.7627 49.0799 36.4316 49.0799 36.5971C47.9193 37.2595 46.7587 38.4186 45.9297 39.4121C45.9297 39.5777 45.9297 39.9088 46.0955 39.5777H45.9297Z" fill="#51483F"/>
<path d="M47.7539 40.4059C48.5829 39.7436 49.5777 38.9157 50.4068 38.0878C49.4119 38.7501 48.5829 39.578 47.7539 40.4059C47.7539 40.4059 47.7539 40.7371 47.9197 40.5715L47.7539 40.4059Z" fill="#51483F"/>
<path d="M49.909 40.9026C49.909 40.9026 50.4064 40.4059 50.5722 40.2403C50.5722 40.2403 50.5722 39.9091 50.4064 40.0747C50.0748 40.2403 49.909 40.4059 49.7432 40.737C49.7432 40.737 49.7432 41.0682 49.909 40.9026Z" fill="#51483F"/>
<path d="M51.2357 41.3995C51.2357 41.3995 51.4015 41.0684 51.2357 41.0684C51.0699 41.0684 51.0699 41.3995 51.2357 41.3995Z" fill="#51483F"/>
<path d="M45.4326 30.3054C47.9197 28.4839 50.2409 26.6625 52.5622 24.6755C53.7228 23.682 54.8834 22.6885 56.044 21.695C56.7072 21.1982 57.2046 20.7015 57.8679 20.2047C58.3653 19.708 59.0285 19.2112 59.5259 18.5489C59.5259 18.5489 59.5259 18.2177 59.5259 18.3833C58.8627 18.7144 58.3653 19.3768 57.8679 19.8735C57.3704 20.3703 56.7072 20.867 56.044 21.3638C54.8834 22.3573 53.7228 23.3508 52.5622 24.3443C50.2409 26.3313 47.7539 28.3183 45.4326 30.1398V30.3054Z" fill="#51483F"/>
<path d="M46.5938 27.9869C48.5834 26.1655 50.7388 24.3441 52.8943 22.5226C54.0549 21.6947 55.0497 20.7012 56.2103 19.8733C56.7077 19.3765 57.371 19.0454 57.8684 18.5486C58.3658 18.2174 59.029 17.8863 59.3606 17.3895C59.029 17.3895 58.8632 17.7207 58.5316 17.8863C58.2 18.0518 57.8684 18.383 57.7026 18.5486C57.2052 19.0454 56.5419 19.3765 56.0445 19.8733C55.0497 20.7012 53.8891 21.5291 52.8943 22.357C50.7388 24.1785 48.5834 25.9999 46.5938 27.9869Z" fill="#51483F"/>
<path d="M48.749 24.1784C50.2413 22.6881 51.8993 21.3634 53.5573 20.0388C54.3863 19.3764 55.2153 18.7141 56.0444 18.0518C56.5418 17.7206 56.8734 17.3894 57.3708 17.0583C57.7024 16.7271 58.1998 16.5615 58.3656 16.2303C57.8682 16.2303 57.5366 16.7271 57.205 17.0583C56.8734 17.3894 56.376 17.7206 56.0444 18.0518C55.2153 18.7141 54.3863 19.3764 53.5573 20.0388C51.8993 21.3634 50.4071 22.8537 48.9148 24.344L48.749 24.1784Z" fill="#51483F"/>
<path d="M49.2464 21.695C50.0754 20.8671 51.0703 20.0391 51.8993 19.3768C52.3967 19.0456 52.7283 18.5489 53.2257 18.2177C53.7231 17.8866 54.2205 17.3898 54.5521 17.0586C54.5521 17.0586 54.5521 16.7275 54.3863 16.893C53.8889 17.2242 53.5573 17.5554 53.0599 18.0521C52.5625 18.5489 52.0651 18.8801 51.5677 19.3768C50.5729 20.2047 49.7438 21.0327 48.749 21.8606C48.749 21.8606 48.749 22.1917 48.9148 22.0262L49.2464 21.695Z" fill="#51483F"/>
<path d="M48.583 20.2046C49.7436 19.2111 50.7384 18.2176 51.8991 17.2241C50.7384 18.2176 49.5778 19.2111 48.583 20.2046C48.583 20.2046 48.583 20.5358 48.7488 20.3702L48.583 20.2046Z" fill="#51483F"/>
<path d="M26.1997 18.0521C26.1997 18.0521 25.3707 18.5488 25.0391 18.7144C25.0391 18.7144 25.0391 19.0456 25.0391 18.88C26.0339 18.3833 27.0287 17.7209 28.0235 17.0586C29.0183 16.3962 29.8474 15.8995 30.8422 15.2372C31.837 14.5748 32.666 14.0781 33.6608 13.4157C34.6556 12.919 35.6505 12.2566 36.4795 11.5943V11.4287C35.4847 11.9255 34.4898 12.5878 33.6608 13.0846C32.666 13.7469 31.837 14.2436 30.8422 14.906C29.8474 15.5683 29.0183 16.0651 28.0235 16.7274C27.0287 17.3897 26.0339 17.8865 25.2049 18.5488C25.2049 18.5488 25.8681 18.2177 26.3655 17.8865L26.1997 18.0521Z" fill="#51483F"/>
<path d="M27.028 16.3962C27.028 16.3962 26.3648 16.7274 26.0332 16.893C26.0332 16.893 26.0332 16.893 26.0332 17.0586C26.8622 16.5618 27.6912 15.7339 28.5203 15.2372C29.3493 14.5748 30.1783 14.0781 31.0073 13.4157C31.8363 12.7534 32.6653 12.2566 33.4943 11.7599C33.9918 11.4287 34.3234 11.2631 34.8208 10.932C35.3182 10.6008 35.6498 10.4352 35.9814 10.104C35.9814 10.104 35.9814 9.77287 35.9814 9.93845C35.1524 10.2696 34.3234 10.932 33.4943 11.4287C32.6653 12.0911 31.8363 12.5878 30.8415 13.2501C30.0125 13.7469 29.1835 14.4092 28.5203 15.0716C27.6912 15.7339 26.8622 16.3962 26.0332 17.0586C26.0332 17.0586 26.0332 17.3898 26.0332 17.2242C26.3648 17.0586 26.6964 16.893 26.8622 16.5618L27.028 16.3962Z" fill="#51483F"/>
<path d="M27.5264 14.5746C29.0186 13.5811 30.5108 12.422 32.0031 11.2629C32.6663 10.7661 33.4953 10.1038 34.1585 9.60705C34.8217 9.1103 35.6507 8.61354 36.3139 7.95121C36.3139 7.95121 36.3139 7.62004 36.3139 7.78562C35.4849 8.11679 34.8217 8.77913 34.1585 9.27588C33.4953 9.77263 32.6663 10.435 32.0031 10.9317C30.5108 11.9252 29.1844 13.0843 27.6922 14.2434C27.6922 14.2434 27.6922 14.5746 27.6922 14.409L27.5264 14.5746Z" fill="#51483F"/>
<path d="M29.3494 11.5941C30.3442 10.6006 31.339 9.60708 32.4997 8.61357C32.9971 8.11682 33.6603 7.78565 34.1577 7.45448C34.6551 7.12331 35.4841 6.79214 35.9815 6.46097C35.9815 6.46097 35.9815 6.1298 35.9815 6.29539C35.3183 6.29539 34.6551 6.95772 34.1577 7.28889C33.4945 7.62006 32.9971 8.11682 32.3339 8.44798C31.1732 9.27591 30.1784 10.2694 29.1836 11.4285C29.1836 11.4285 29.1836 11.7597 29.3494 11.5941Z" fill="#51483F"/>
<path d="M30.8418 8.11693C30.8418 8.11693 31.8366 7.45459 32.4998 7.12342C32.9972 6.79225 33.4946 6.62667 33.9921 6.12992C33.9921 6.12992 33.9921 5.79875 33.9921 5.96433C33.4946 6.12992 32.9972 6.62667 32.4998 6.79225C32.0024 7.12342 31.505 7.45459 31.0076 7.78576C30.8418 7.78576 31.0076 8.11693 31.0076 8.11693H30.8418Z" fill="#51483F"/>
<path d="M25.5361 21.5292C26.531 20.7013 27.36 20.0389 28.5206 19.3766C29.018 19.0454 29.5154 18.7142 30.0128 18.5487C30.5102 18.2175 31.1734 18.0519 31.6708 17.7207C31.6708 17.7207 31.6708 17.3896 31.6708 17.5552C31.1734 17.5552 30.5102 18.0519 30.0128 18.2175C29.5154 18.5487 28.8522 18.8798 28.3548 19.211C27.36 19.8733 26.3651 20.5357 25.5361 21.5292C25.5361 21.5292 25.5361 21.8603 25.7019 21.6948L25.5361 21.5292Z" fill="#51483F"/>
<path d="M24.8728 24.1784C25.7018 23.6817 26.5309 23.0194 27.3599 22.5226C27.6915 22.1914 28.1889 22.0258 28.5205 21.6947C28.8521 21.3635 29.3495 21.1979 29.6811 20.8668V20.7012C29.1837 20.7012 28.8521 21.1979 28.5205 21.3635C28.0231 21.6947 27.6915 21.8603 27.1941 22.1914C26.3651 22.6882 25.536 23.3505 24.707 24.0129C24.707 24.0129 24.707 24.344 24.707 24.1784H24.8728Z" fill="#51483F"/>
<path d="M38.137 20.8667L39.1319 20.2044C39.1319 20.2044 39.7951 19.8732 39.9609 19.542C39.9609 19.542 39.9609 19.2109 39.7951 19.3764C39.4635 19.3764 39.1319 19.7076 38.9661 19.8732C38.6344 20.0388 38.4686 20.2044 38.137 20.5355C37.9712 20.5355 38.137 20.8667 38.3028 20.8667H38.137Z" fill="#51483F"/>
<path d="M21.0594 34.279C23.7122 32.6231 26.3651 30.9673 28.8521 29.3115C30.1785 28.4835 31.3392 27.6556 32.6656 26.6621C33.8262 25.8342 35.1526 25.0063 36.3132 24.0128V23.8472C34.9868 24.6751 33.8262 25.6686 32.4998 26.4965C31.1733 27.3244 30.0127 28.3179 28.6863 29.1459C26.1993 30.8017 23.5464 32.4576 20.8936 34.1134L21.0594 34.279Z" fill="#51483F"/>
<path d="M22.3857 35.7693C26.365 32.9544 30.5101 30.305 34.4894 27.4901C30.3443 29.9739 26.1992 32.9544 22.3857 35.7693Z" fill="#51483F"/>
<path d="M21.8885 32.7891C24.7071 30.471 27.6916 28.4839 30.676 26.4969C27.5258 28.3184 24.5413 30.471 21.7227 32.7891C21.7227 32.7891 21.7227 33.1203 21.8885 32.9547V32.7891Z" fill="#51483F"/>
<path d="M20.5625 31.4641C21.8889 30.1394 23.2153 29.1459 24.8734 28.1524C24.8734 28.1524 24.8734 27.8212 24.8734 27.9868C23.2153 28.8147 21.7231 29.9738 20.5625 31.2985C20.5625 31.2985 20.5625 31.6297 20.7283 31.4641H20.5625Z" fill="#51483F"/>
</g>
<defs>
<clipPath id="clip0_1146_3184">
<rect width="64" height="51" fill="white" transform="translate(0.5 0.5)"/>
</clipPath>
</defs>
</svg>
