<svg width="233" height="307" viewBox="0 0 233 307" fill="none" xmlns="http://www.w3.org/2000/svg">
<g clip-path="url(#clip0_844_315)">
<path d="M82.3461 165.712C86.7744 167.178 91.3404 166.993 95.8849 166.171C101.085 165.226 106.291 163.957 111.429 162.718C122.501 160.055 133.897 155.022 143.051 148.224C143.77 147.693 143.155 146.554 142.333 146.999C132.443 152.358 122.765 157.419 111.817 160.33C107.235 161.546 102.577 162.587 97.9716 163.718C92.9564 164.947 87.7177 165.92 82.5883 164.838C82.0174 164.721 81.7969 165.527 82.3515 165.711L82.3461 165.712Z" fill="#978D84"/>
<path d="M163.685 140.238C164.637 138.778 164.561 137.38 163.917 135.814C163.488 134.769 162.017 135.364 162.483 136.416C162.981 137.545 163.176 138.681 162.806 139.871C162.636 140.416 163.397 140.683 163.69 140.237L163.685 140.238Z" fill="#978D84"/>
<path d="M22.0819 68.4243C21.2003 73.9182 22.9304 79.3035 24.3273 84.5599C26.1993 91.5889 27.8877 98.6614 30.1974 105.567C32.4153 112.217 34.9372 118.779 37.6096 125.26C40.4812 132.228 41.9585 139.541 44.4834 146.607C44.8532 147.645 46.3261 147.25 46.1331 146.165C43.6641 132.259 37.8389 119.689 33.0805 106.494C30.65 99.758 28.7725 92.8797 26.6979 86.0369C24.9721 80.3463 22.2616 74.5579 22.5981 68.4869C22.6121 68.1962 22.1319 68.1182 22.0858 68.4175L22.0819 68.4243Z" fill="#978D84"/>
<path d="M83.9393 54.8515C84.5025 58.7529 87.598 62.3144 89.2523 65.8316C91.6335 70.9047 93.9707 76.0067 96.4133 81.0519C101.36 91.2635 106.513 101.603 110 112.435C110.418 113.736 112.382 113.226 112.057 111.884C110.748 106.398 108.033 101.345 105.974 96.1227C103.977 91.0499 101.517 86.2162 99.0346 81.3654C96.4062 76.2266 93.8699 71.0459 91.2522 65.9042C89.2535 61.9799 86.2261 58.6297 84.4188 54.6485C84.2834 54.3576 83.9026 54.5859 83.9393 54.8515Z" fill="#978D84"/>
<path d="M45.1667 58.7316C51.0344 58.6919 55.5134 55.8903 60.192 52.6335C61.213 51.9237 60.2081 50.23 59.2117 50.9676C54.8807 54.1715 50.7348 57.188 45.1736 57.622C44.4657 57.6796 44.4352 58.7439 45.1681 58.737L45.1667 58.7316Z" fill="#978D84"/>
<path d="M81.8577 126.204C79.0302 130.434 75.3935 134.858 74.3736 139.965C74.1144 141.268 76.0324 141.828 76.387 140.516C77.7313 135.506 80.3556 131.267 82.9429 126.826C83.3521 126.125 82.3038 125.534 81.8563 126.199L81.8577 126.204Z" fill="#978D84"/>
<path d="M78.463 124.094C74.8759 129.389 71.9496 135.264 69.0294 140.949C68.5358 141.913 69.8926 142.692 70.4827 141.788C73.9997 136.403 75.8996 130.039 79.0077 124.413C79.2049 124.056 78.6848 123.765 78.4645 124.1L78.463 124.094Z" fill="#978D84"/>
<path d="M70.3738 126.474C69.1665 129.553 67.6123 132.472 66.2545 135.481C65.0447 138.165 64.2815 141.015 63.1284 143.718C62.6094 144.93 64.3997 145.977 64.9212 144.753C66.1156 141.947 66.6665 138.947 67.7268 136.091C68.8955 132.954 70.2135 129.903 71.1398 126.676C71.2861 126.172 70.5515 126.002 70.3709 126.463L70.3738 126.474Z" fill="#978D84"/>
<path d="M63.8543 125.454C60.8989 132.485 58.8768 139.829 56.7601 147.14C56.3659 148.497 58.4968 149.08 58.8735 147.722C60.8981 140.452 62.5094 133.075 65.0829 125.969C65.3414 125.262 64.1478 124.75 63.8543 125.454Z" fill="#978D84"/>
<path d="M58.2082 123.983C56.8225 129.652 54.9408 135.184 53.6294 140.874C53.0789 143.254 52.7531 145.637 52.4023 148.056C52.0812 150.243 51.2065 152.377 51.0318 154.553C50.9691 155.305 52.0265 155.716 52.5177 155.171C53.7802 153.776 54.0025 151.8 54.2572 149.987C54.6381 147.273 54.7981 144.55 55.3029 141.849C56.4115 135.938 58.0696 130.15 59.0689 124.217C59.1619 123.664 58.3493 123.417 58.2136 123.981L58.2082 123.983Z" fill="#978D84"/>
<path d="M51.2611 120.294C45.8589 130.598 46.4696 143.182 47.1603 154.437C47.2262 155.561 48.9579 155.597 48.9266 154.451C48.6103 142.901 47.8114 131.607 51.8625 120.546C51.9925 120.195 51.4304 119.962 51.2557 120.295L51.2611 120.294Z" fill="#978D84"/>
<path d="M44.4855 116.111C42.633 121.538 41.5981 127.509 40.8771 133.195C40.744 134.241 42.3522 134.373 42.6419 133.44C44.3468 127.955 44.1216 121.994 45.6625 116.433C45.8769 115.669 44.7354 115.372 44.4855 116.111Z" fill="#978D84"/>
<path d="M39.951 110.565C39.0063 114.945 37.6793 119.226 36.7658 123.615C36.5516 124.637 38.1512 125.058 38.3264 124.041C39.0867 119.572 40.1156 115.164 40.7087 110.671C40.766 110.243 40.0462 110.149 39.9578 110.568L39.951 110.565Z" fill="#978D84"/>
<path d="M120.071 132.667C117.367 132.473 112.481 132.813 110.768 135.355C109.286 137.56 113.054 137.974 114.393 138.023C116.891 138.111 120.535 138.128 122.596 136.456C123.294 135.89 124.016 134.945 123.607 134.016C123.106 132.876 121.196 132.624 120.184 132.275C119.425 132.014 119.121 133.192 119.856 133.471C120.634 133.762 122.707 134.044 122.044 135.232C121.715 135.826 120.564 136.094 119.975 136.252C118.368 136.682 116.668 136.787 115.014 136.783C114.427 136.779 113.83 136.779 113.243 136.707C112.796 136.648 111.854 136.493 112 135.777C112.055 135.51 113.129 134.998 113.473 134.825C115.47 133.837 117.852 133.428 120.067 133.426C120.556 133.427 120.553 132.71 120.072 132.673L120.071 132.667Z" fill="#978D84"/>
<path d="M125.411 166.8C125.046 169.079 123.712 171.084 123.027 173.265C122.702 174.299 124.296 174.722 124.645 173.71C125.09 172.414 125.604 171.163 125.935 169.828C126.176 168.84 126.488 167.671 125.949 166.731C125.832 166.527 125.458 166.547 125.416 166.799L125.411 166.8Z" fill="#978D84"/>
<path d="M129.236 166.315C127.478 170.701 125.499 175.186 124.413 179.787C124.215 180.632 125.521 181.287 125.894 180.406C127.757 176.004 129.06 171.207 129.919 166.505C130.004 166.052 129.405 165.897 129.238 166.32L129.236 166.315Z" fill="#978D84"/>
<path d="M130.484 172.105C128.643 176.978 127.811 182.034 127.241 187.191C127.095 188.511 129.149 188.505 129.301 187.208C129.866 182.246 130.406 177.28 131.823 172.475C132.082 171.602 130.793 171.288 130.485 172.111L130.484 172.105Z" fill="#978D84"/>
<path d="M132.63 183.911C131.979 187.156 131.545 190.423 131.019 193.687C130.859 194.676 132.328 195.121 132.549 194.103C133.247 190.863 133.569 187.585 134.098 184.309C134.25 183.356 132.822 182.935 132.623 183.907L132.63 183.911Z" fill="#978D84"/>
<path d="M135.071 193.02C134.604 196.589 134.213 200.184 134.097 203.779C134.073 204.589 135.355 204.791 135.522 203.977C136.267 200.374 136.175 196.69 136.446 193.031C136.515 192.128 135.182 192.17 135.071 193.02Z" fill="#978D84"/>
<path d="M96.144 182.799C99.7987 181.291 100.38 176.607 103.341 174.287C104.285 173.546 102.912 172.106 101.988 172.944C99.1716 175.501 98.8223 179.854 95.8018 182.207C95.531 182.418 95.8288 182.929 96.144 182.799Z" fill="#978D84"/>
<path d="M99.6493 191.468C102.117 187.328 104.269 182.935 105.829 178.367C106.18 177.343 104.567 176.914 104.212 177.922C102.643 182.395 101.077 186.832 99.1046 191.149C98.9385 191.515 99.4386 191.817 99.6479 191.462L99.6493 191.468Z" fill="#978D84"/>
<path d="M104.079 197.221C105.329 194.194 106.763 191.255 107.783 188.141C108.251 186.718 105.957 186.082 105.535 187.526C104.627 190.651 103.36 193.659 102.296 196.734C101.902 197.879 103.636 198.286 104.074 197.222L104.079 197.221Z" fill="#978D84"/>
<path d="M96.5852 176.516C97.3069 175.76 97.8875 174.928 98.4633 174.056C98.8555 173.463 97.955 172.78 97.4755 173.305C96.8163 174.015 96.1406 174.707 95.4828 175.423C94.8064 176.155 95.8967 177.246 96.5906 176.515L96.5852 176.516Z" fill="#978D84"/>
<path d="M163.506 149.986C162.232 152.985 159.889 156.563 160.9 159.925C161.132 160.707 162.327 160.582 162.337 159.741C162.385 156.405 163.543 153.489 164.166 150.263C164.239 149.893 163.674 149.585 163.506 149.986Z" fill="#978D84"/>
<path d="M165.724 152.13C164.861 155.978 163.916 159.824 163.301 163.719C163.072 165.158 165.091 165.45 165.292 163.995C165.831 160.091 166.413 156.181 166.48 152.232C166.487 151.805 165.82 151.697 165.729 152.129L165.724 152.13Z" fill="#978D84"/>
<path d="M169.05 158.873C168.054 162.141 167.433 166.142 167.738 169.55C167.806 170.318 168.876 170.542 169.116 169.743C170.124 166.374 169.217 162.559 169.801 159.084C169.883 158.598 169.195 158.386 169.046 158.879L169.05 158.873Z" fill="#978D84"/>
<path d="M172.077 166.654C171.584 169.013 171.404 171.403 171.109 173.795C170.993 174.756 172.565 174.794 172.633 173.806C172.802 171.459 172.689 169.107 172.877 166.767C172.915 166.309 172.176 166.208 172.079 166.659L172.077 166.654Z" fill="#978D84"/>
<path d="M57.5733 182.245C59.0711 179.973 61.061 177.522 61.4775 174.77C61.6119 173.879 60.5186 173.334 59.9848 174.149C58.5055 176.405 57.4756 179.074 56.264 181.494C55.8254 182.363 57.0342 183.061 57.5747 182.251L57.5733 182.245Z" fill="#978D84"/>
<path d="M56.0034 177.518C57.3486 176.004 58.6747 174.397 59.3987 172.493C59.7092 171.68 58.4679 170.968 57.9182 171.638C56.6752 173.148 55.8293 174.918 54.6682 176.498C54.1001 177.27 55.3685 178.233 56.0034 177.518Z" fill="#978D84"/>
<path d="M63.7964 279.899C71.6055 274.443 79.6215 269.287 87.4665 263.879C88.1114 263.437 87.5004 262.378 86.8448 262.823C78.9852 268.241 71.0784 273.568 63.431 279.285C63.0723 279.553 63.412 280.157 63.7896 279.895L63.7964 279.899Z" fill="#978D84"/>
<path d="M67.5405 281.123C73.5123 277.187 79.5131 273.294 85.5014 269.377C86.1559 268.949 85.545 267.89 84.8797 268.321C78.8511 272.238 72.7213 276.056 67.1914 280.677C66.942 280.882 67.2718 281.298 67.5405 281.123Z" fill="#978D84"/>
<path d="M121.809 292.807C128.522 287.972 135.091 282.946 141.86 278.193C142.948 277.431 141.883 275.621 140.813 276.407C134.111 281.303 127.648 286.49 121.078 291.556C120.359 292.11 121.045 293.362 121.809 292.807Z" fill="#978D84"/>
<path d="M114.432 292.723C118.816 289.418 123.164 286.061 127.529 282.727C128.416 282.054 127.472 280.803 126.583 281.512C122.277 284.938 118.071 288.459 113.967 292.124C113.648 292.411 114.084 292.988 114.432 292.723Z" fill="#978D84"/>
<path d="M143.138 241.231C148.723 236.922 154.406 232.742 160.008 228.457C160.875 227.794 160.02 226.295 159.133 226.969C153.461 231.296 147.781 235.59 142.272 240.12C141.66 240.622 142.495 241.725 143.138 241.231Z" fill="#978D84"/>
<path d="M157.416 235.901C158.749 234.832 160.066 233.75 161.347 232.615C162.196 231.865 160.925 230.593 160.09 231.374C158.845 232.534 157.555 233.654 156.254 234.755C155.445 235.442 156.608 236.548 157.411 235.902L157.416 235.901Z" fill="#978D84"/>
<path d="M135.115 241.642C138.645 239.559 141.926 237.108 145.347 234.859C148.222 232.969 151.493 231.571 153.921 229.084C154.609 228.377 153.67 227.033 152.817 227.663C146.763 232.172 140.592 236.351 134.74 241.162C134.467 241.385 134.818 241.819 135.115 241.642Z" fill="#978D84"/>
<path d="M196.429 251.576C204.371 247.261 211.421 241.543 218.866 236.46C219.662 235.92 218.918 234.621 218.103 235.155C210.55 240.135 203.679 246.069 196.12 251.044C195.787 251.26 196.083 251.766 196.434 251.574L196.429 251.576Z" fill="#978D84"/>
<path d="M208.889 248.42C213.962 244.065 219.36 240.127 224.793 236.238C225.799 235.515 224.858 233.844 223.808 234.556C218.137 238.394 212.821 242.677 207.81 247.349C207.084 248.026 208.157 249.052 208.896 248.424L208.889 248.42Z" fill="#978D84"/>
<path d="M193.601 247.753C198.758 245.768 203.106 242.456 207.634 239.366C208.542 238.75 207.637 237.259 206.778 237.908C202.441 241.177 198.264 244.781 193.374 247.205C193.075 247.354 193.284 247.878 193.601 247.753Z" fill="#978D84"/>
<path d="M39.7075 154.878C41.1413 156.48 41.6641 158.538 42.7585 160.351C43.6771 161.873 44.7839 163.304 45.9153 164.677C48.0696 167.297 50.7246 169.771 53.7154 171.421C60.5009 175.17 68.8594 175.599 76.4277 175.822C94.5313 176.349 112.017 171.847 128.849 165.529C137.392 162.322 145.669 158.697 153.848 154.641C159.726 151.728 167.26 149.101 171.451 143.765C174.369 140.045 174.399 135.25 170.306 132.466C166.213 129.683 160.834 129.276 156.094 128.445C150.889 127.532 145.663 126.665 140.497 125.553C135.27 124.428 127.679 123.288 123.845 119.155C122.738 117.959 120.545 119.586 121.546 120.942C124.04 124.315 128.384 125.705 132.244 126.869C137.396 128.421 142.708 129.414 147.994 130.351C151.814 131.027 155.637 131.69 159.458 132.388C162.506 132.943 170.417 133.929 170.264 138.332C170.066 143.998 161.184 147.291 156.95 149.378C149.044 153.276 141.214 157.194 132.998 160.405C117.175 166.591 100.99 171.829 83.9085 172.761C75.1335 173.241 65.9077 173.153 57.5253 170.342C53.8352 169.104 50.7373 166.605 48.1156 163.783C45.3186 160.779 43.3918 156.973 40.4218 154.159C39.9447 153.707 39.2798 154.396 39.7129 154.877L39.7075 154.878Z" fill="#978D84"/>
<path d="M157.456 151.826C157.362 151.432 157.436 151.067 157.679 150.732C157.364 150.691 157.043 150.65 156.728 150.609C158.101 155.435 161.554 160.181 164.021 164.502C167.707 170.953 171.443 177.374 175.189 183.791C182.985 197.142 190.946 210.398 198.683 223.782C201.42 228.513 204.214 233.24 206.651 238.137C207.584 240.011 210.395 238.357 209.459 236.49C204.192 225.962 197.842 215.908 191.803 205.817C183.735 192.333 175.563 178.91 167.362 165.507C165.535 162.524 163.705 159.553 161.869 156.578C160.54 154.426 159.312 151.983 157.592 150.107C157.332 149.821 156.815 149.971 156.725 150.34C156.556 151.039 156.71 151.291 157.007 151.951C157.105 152.166 157.466 152.058 157.452 151.832L157.456 151.826Z" fill="#978D84"/>
<path d="M50.0785 173.17C50.3138 181.975 52.1464 190.828 53.6341 199.487C55.1887 208.524 56.8143 217.547 58.3422 226.591C59.7581 234.982 60.907 243.405 62.119 251.827C62.6901 255.801 63.2909 259.779 64.0163 263.728C64.7089 267.492 65.196 271.666 66.7881 275.166C67.3467 276.393 69.4984 275.811 69.3804 274.471C69.0532 270.765 67.8263 267.064 67.1473 263.395C66.3896 259.281 65.7486 255.154 65.1399 251.018C63.9269 242.785 62.8162 234.547 61.3229 226.361C59.71 217.535 57.955 208.735 56.2374 199.926C54.4951 191.002 53.1968 181.851 50.7403 173.09C50.6441 172.731 50.0666 172.783 50.0746 173.176L50.0785 173.17Z" fill="#978D84"/>
<path d="M60.2563 176.94C60.7465 176.499 60.8933 176.425 61.0168 175.772C60.5463 175.709 60.0812 175.644 59.6107 175.58C59.5226 184.593 61.2757 193.835 62.2344 202.79C63.2029 211.846 64.1981 220.895 65.1773 229.949C66.1536 238.991 66.9082 248.042 67.7502 257.097C68.0331 260.167 68.5299 263.242 68.5871 266.326C68.604 267.332 68.835 272.843 67.6115 273.034C65.952 273.289 66.3608 275.929 67.9828 275.919C72.5636 275.897 71.8149 267.189 71.5919 264.322C70.8385 254.697 69.9214 245.019 68.8269 235.428C67.6732 225.273 66.4899 215.115 65.214 204.976C64.6073 200.163 63.9991 195.343 63.371 190.535C62.7137 185.511 62.3022 180.312 61.0146 175.399C60.7602 174.429 59.2789 174.963 59.7083 175.945C59.7961 176.208 59.8275 176.475 59.7971 176.747C59.7945 176.995 60.0907 177.093 60.2563 176.94Z" fill="#978D84"/>
<path d="M90.2887 175.775C91.6362 185.774 94.7734 195.661 97.4235 205.38C100.144 215.362 102.927 225.321 105.632 235.306C108.123 244.517 110.409 253.777 112.738 263.026C113.886 267.591 115.063 272.154 116.346 276.684C117.526 280.833 118.505 285.472 120.515 289.308C121.28 290.773 123.333 289.712 123.059 288.241C122.251 283.918 120.449 279.637 119.253 275.388C117.98 270.85 116.796 266.283 115.636 261.715C113.281 252.456 110.983 243.194 108.37 233.999C105.59 224.223 102.686 214.48 99.8202 204.727C96.9768 195.036 94.5946 185.01 90.9339 175.59C90.7724 175.18 90.2221 175.333 90.2805 175.765L90.2887 175.775Z" fill="#978D84"/>
<path d="M104.424 175.265C104.97 174.625 105.104 174.549 105.156 173.691C104.678 173.687 104.201 173.683 103.723 173.679C104.106 178.834 105.287 183.97 106.222 189.046C107.212 194.412 108.195 199.773 109.174 205.142C111.063 215.513 112.972 225.872 114.867 236.241C116.766 246.65 118.439 257.073 120.147 267.515C120.793 271.492 121.77 275.46 122.079 279.481C122.173 280.69 122.809 286.879 121.333 287.177C119.728 287.504 120.043 290.18 121.705 290.062C126.07 289.748 125.407 282.734 125.196 279.805C124.697 272.713 122.938 265.636 121.844 258.617C119.015 240.474 115.367 222.447 111.783 204.443C110.755 199.277 109.716 194.114 108.666 188.954C107.614 183.806 106.77 178.493 105.133 173.496C104.814 172.52 103.381 173.088 103.826 174.042C103.961 174.373 104.006 174.711 103.963 175.067C103.96 175.291 104.265 175.445 104.422 175.259L104.424 175.265Z" fill="#978D84"/>
<path d="M119.358 167.515C121.532 175.778 124.765 183.837 127.677 191.856C129.273 196.249 130.792 200.675 132.368 205.08C134.326 210.542 136.284 216.01 138.284 221.46C139.678 225.248 140.898 229.307 142.787 232.887C143.629 234.487 146.422 233.383 145.776 231.638C142.317 222.285 138.643 213.007 135.184 203.654C133.617 199.413 132.039 195.175 130.384 190.969C127.259 183.013 124.523 174.58 120.309 167.123C120.017 166.61 119.207 166.953 119.359 167.52L119.358 167.515Z" fill="#978D84"/>
<path d="M129.568 162.925C129.505 168.177 131.43 173.475 132.604 178.585C133.589 182.861 134.574 187.137 135.571 191.416C138.076 202.133 140.668 212.837 143.113 223.57C143.552 225.507 143.986 227.446 144.404 229.394C144.531 229.974 144.675 230.556 144.77 231.145C144.793 231.293 144.795 231.517 144.859 231.649C144.24 230.368 144.878 231.483 144.827 231.422C145.098 231.728 144.263 232.382 145.14 231.263L146.833 230.81C147.447 231.024 147.422 230.824 146.764 230.209C145.797 228.809 143.344 229.615 143.873 231.419C144.2 232.531 144.651 233.851 145.915 234.155C146.473 234.287 147.221 234.184 147.608 233.702C149.103 231.826 147.799 228.502 147.326 226.436C146.233 221.695 145.065 216.969 143.901 212.241C141.245 201.473 138.508 190.721 135.653 180.001C134.124 174.252 132.75 168.352 130.658 162.794C130.452 162.241 129.582 162.273 129.576 162.935L129.568 162.925Z" fill="#978D84"/>
<path d="M166.617 145.118C172.225 158.142 178.806 170.941 185.184 183.622C191.598 196.379 198.065 209.07 204.014 222.061C205.469 225.241 206.908 228.426 208.312 231.631C208.74 232.607 209.178 233.58 209.576 234.57C209.772 235.068 210.503 237.668 209.727 237.02C208.508 236.004 206.202 237.402 207.332 238.879C209.931 242.281 213.559 240.585 213.49 236.431C213.46 234.539 212.439 232.701 211.708 231.002C208.651 223.9 205.314 216.908 201.981 209.932C194.994 195.319 187.24 181.119 179.99 166.64C176.188 159.049 172.261 151.635 167.93 144.341C167.417 143.474 166.238 144.238 166.616 145.112L166.617 145.118Z" fill="#978D84"/>
<path d="M125.31 122.436C122.122 115.381 119.539 108.054 116.359 100.985C113.116 93.767 109.718 86.6131 106.27 79.4896C102.892 72.5142 99.4696 65.5275 95.5589 58.8381C91.5068 51.8996 85.9655 45.5094 79.8342 40.3449C71.7329 33.5271 61.3982 30.1145 50.8104 30.6211C40.8867 31.0991 31.2291 36.2123 24.6426 43.5964C10.9707 58.9231 16.6051 80.3151 21.3081 98.1455C23.6081 106.879 26.1131 115.564 28.6703 124.229C31.8051 134.857 34.4587 145.981 39.2069 156.011C39.9878 157.661 42.9175 156.469 42.2108 154.753C38.4043 145.538 35.7385 135.846 32.8307 126.323C30.636 119.139 28.547 111.921 26.5184 104.693C24.6171 97.9189 22.9269 91.1397 21.4288 84.263C19.1212 73.6371 17.3741 62.1894 22.6323 52.1191C27.0929 43.5713 36.2757 36.5361 45.7351 34.518C56.303 32.2661 68.1087 35.1697 76.5477 41.8339C88.8336 51.5425 95.5474 64.9655 102.338 78.6548C106.107 86.249 109.706 93.9173 113.321 101.581C114.519 104.124 115.724 106.671 116.936 109.205C119.207 113.952 120.879 119.14 124.407 123.137C124.876 123.666 125.566 122.987 125.313 122.429L125.31 122.436Z" fill="#978D84"/>
<path d="M51.8264 159.316C49.0396 156.843 59.4723 150.144 60.9774 149.184C67.1121 145.256 73.938 142.601 80.6029 139.73C87.9315 136.572 95.4566 134.149 103.163 132.101C109.445 130.435 116.083 127.916 122.664 128.201C123.924 128.254 124.141 126.388 122.96 126.05C119.372 125.02 115.928 125.621 112.345 126.518C108.159 127.565 103.998 128.789 99.8523 129.986C90.9296 132.572 82.453 136.008 73.9446 139.712C66.5043 142.945 59.3659 146.534 53.2576 151.953C51.4764 153.532 45.5303 159.878 51.441 160.235C51.8961 160.262 52.1664 159.621 51.821 159.318L51.8264 159.316Z" fill="#978D84"/>
<path d="M54.59 41.5532C50.5824 38.1443 44.0427 41.5037 40.6409 44.2979C36.4298 47.7566 35.7124 54.2913 42.1748 55.464C47.6901 56.4658 56.0231 53.6074 59.5977 49.2516C63.6046 44.3667 58.1395 39.8674 53.128 40.5961C52.0613 40.7499 52.3058 42.4982 53.3652 42.4669C55.2796 42.4131 58.2353 43.0101 58.7241 45.2841C59.1942 47.4885 56.5534 49.2235 54.97 50.1701C51.6927 52.1216 47.1955 53.7629 43.3097 53.4437C40.0287 53.1749 38.3103 50.7253 40.1679 47.8455C41.0842 46.4234 42.533 45.3177 43.9411 44.4238C46.7504 42.6321 50.8094 40.7697 54.1242 42.1716C54.4941 42.3308 54.9679 41.871 54.5968 41.5571L54.59 41.5532Z" fill="#978D84"/>
</g>
<defs>
<clipPath id="clip0_844_315">
<rect width="167.897" height="272.437" fill="white" transform="translate(0 43.4551) rotate(-15)"/>
</clipPath>
</defs>
</svg>
