<svg width="137" height="82" viewBox="0 0 137 82" fill="none" xmlns="http://www.w3.org/2000/svg">
<g clip-path="url(#clip0_844_370)">
<path d="M38.9134 43.1155C38.259 43.9796 37.8236 44.9973 37.2957 45.939C36.7658 46.8846 36.1049 47.6974 35.5027 48.5886C35.1182 49.1575 35.9491 49.6677 36.4132 49.2677C37.2406 48.5557 37.7243 47.3973 38.1622 46.427C38.6196 45.415 39.0927 44.3812 39.428 43.3231C39.5321 42.9982 39.0882 42.8826 38.9134 43.1155Z" fill="#978D84"/>
<path d="M42.4419 43.2387C41.8593 43.7427 41.5082 44.6271 41.0866 45.2675C40.5592 46.071 39.9935 46.8433 39.6225 47.7339C39.3778 48.323 40.1101 48.7493 40.4931 48.2258C41.0902 47.4117 41.5448 46.5143 41.9894 45.6111C42.3073 44.9659 42.8461 44.109 42.7643 43.3695C42.7465 43.2038 42.5683 43.1288 42.4399 43.2407L42.4419 43.2387Z" fill="#978D84"/>
<path d="M46.0985 44.3065C45.7246 44.9346 45.4227 45.5855 45.0088 46.1962C44.5811 46.8268 44.1831 47.4333 43.9298 48.1548C43.7076 48.793 44.7211 49.0465 44.9495 48.422C45.2417 47.6172 45.698 46.8757 46.0523 46.0959C46.2976 45.5601 46.5718 44.9332 46.3959 44.3428C46.3565 44.2089 46.1689 44.1873 46.0985 44.3065Z" fill="#978D84"/>
<path d="M50.036 45.7008C49.6068 46.7421 48.9874 47.7045 48.458 48.6956C48.2783 49.0312 48.7612 49.4406 49.0188 49.1139C49.7974 48.128 50.2741 47.0566 50.4858 45.8183C50.5364 45.5216 50.1486 45.4291 50.036 45.7008Z" fill="#978D84"/>
<path d="M33.4963 44.6023C32.5363 46.5004 31.1742 48.2706 30.5187 50.3016C30.3644 50.7811 31.1295 51.1005 31.3516 50.638C32.2716 48.7245 33.167 46.7561 33.9228 44.7733C34.0158 44.5295 33.6134 44.37 33.4963 44.6003L33.4963 44.6023Z" fill="#978D84"/>
<path d="M27.9125 48.9285C27.5769 49.953 27.2432 50.9754 26.8635 51.9846C26.6524 52.5437 27.5519 52.7668 27.7652 52.2195C28.1568 51.2142 28.4885 50.1898 28.8241 49.1653C29.0112 48.5926 28.0996 48.3578 27.9145 48.9265L27.9125 48.9285Z" fill="#978D84"/>
<path d="M16.7005 72.3085C16.1902 72.8531 15.8089 73.5306 15.3749 74.1356C14.9175 74.7764 14.2165 75.3863 13.8954 76.1045C13.7105 76.5172 14.1333 77.0793 14.5885 76.7761C15.2594 76.3285 15.653 75.5008 16.0383 74.8174C16.4391 74.1042 16.8929 73.3134 17.0475 72.5022C17.0833 72.3122 16.8483 72.1489 16.7005 72.3065L16.7005 72.3085Z" fill="#978D84"/>
<path d="M19.5277 73.3119C18.982 73.9102 18.5856 74.6629 18.1525 75.3449C17.6998 76.0527 17.1571 76.7379 16.9588 77.5614C16.8615 77.9653 17.363 78.252 17.6628 77.9565C18.2683 77.3635 18.5963 76.5523 18.9589 75.7981C19.3077 75.0696 19.7238 74.2891 19.8406 73.4862C19.8647 73.322 19.6656 73.1623 19.5297 73.3119L19.5277 73.3119Z" fill="#978D84"/>
<path d="M22.7085 73.7017C22.299 74.5295 21.8091 75.3049 21.3152 76.0824C20.8567 76.8041 20.316 77.4932 20.1239 78.3384C20.0441 78.6947 20.5162 79.0212 20.7839 78.7103C21.3764 78.0265 21.7357 77.1617 22.1296 76.3538C22.5214 75.5479 22.8593 74.7228 23.079 73.8536C23.1325 73.6398 22.8119 73.4952 22.7085 73.7037L22.7085 73.7017Z" fill="#978D84"/>
<path d="M26.6206 74.109C25.9943 75.7172 25.2058 77.256 24.4774 78.8199C24.2612 79.2843 24.9473 79.6855 25.1814 79.2169C25.9892 77.6186 26.6749 75.9743 27.0284 74.2151C27.0813 73.946 26.7175 73.8612 26.6206 74.109Z" fill="#978D84"/>
<path d="M31.5037 76.35C31.177 77.2816 30.8563 78.2131 30.4835 79.1274C30.2545 79.6906 31.1901 79.937 31.4112 79.3699C31.7679 78.4519 32.0766 77.5165 32.3893 76.5812C32.5746 76.0243 31.695 75.8029 31.5037 76.35Z" fill="#978D84"/>
<path d="M43.5987 69.0441C46.6044 68.0852 49.6045 66.9881 52.2731 65.2845C55.0426 63.5166 57.3591 61.1515 60.1103 59.3543C65.6703 55.7235 71.6596 52.3428 78.3955 51.6095C78.8555 51.5591 78.8657 50.8561 78.3876 50.883C71.7793 51.2654 66.1113 54.1253 60.6435 57.6227C57.7751 59.4588 55.34 61.7285 52.607 63.7349C49.8008 65.7953 46.5849 67.2186 43.4291 68.6649C43.2109 68.7641 43.3703 69.1157 43.5947 69.0442L43.5987 69.0441Z" fill="#978D84"/>
<path d="M49.4569 36.905C48.1613 35.6437 44.7862 35.4576 43.8489 37.2369C43.7259 37.4732 43.8103 37.7172 44.0212 37.8629C45.3248 38.7648 49.8721 39.6864 50.3457 37.4185C50.4461 36.9415 49.7223 36.7461 49.602 37.2252C49.2392 38.6883 45.394 37.7985 44.5734 37.1362C44.5993 37.3215 44.6253 37.5068 44.6513 37.6921C45.4113 36.4656 48.0658 36.7524 49.2112 37.2216C49.4094 37.3024 49.6282 37.0769 49.4529 36.905L49.4569 36.905Z" fill="#978D84"/>
<path d="M70.7974 36.7876C70.1976 38.4448 68.9037 40.4314 69.1747 42.245C69.2457 42.7181 70.0468 42.6915 70.1235 42.2346C70.2884 41.2751 70.388 40.354 70.6687 39.413C70.9226 38.5671 71.1865 37.7271 71.2286 36.8421C71.2418 36.5833 70.8768 36.5715 70.7975 36.7895L70.7974 36.7876Z" fill="#978D84"/>
<path d="M74.5224 33.704C73.6296 35.9074 72.2409 37.98 71.9442 40.3723C71.8947 40.7737 72.5352 40.8239 72.6388 40.4575C73.278 38.2056 74.2031 36.0374 74.7863 33.7722C74.8303 33.598 74.5845 33.5454 74.5224 33.702L74.5224 33.704Z" fill="#978D84"/>
<path d="M79.1594 30.4627C78.4082 31.9498 77.8073 33.5103 76.9418 34.9394C76.7127 35.3171 77.3265 35.6638 77.5416 35.2784C78.3725 33.7884 78.8932 32.1874 79.4978 30.6012C79.5714 30.4069 79.2511 30.2801 79.1594 30.4647L79.1594 30.4627Z" fill="#978D84"/>
<path d="M13.2575 71.5266C12.8178 72.1455 12.3036 72.704 11.8658 73.3248C11.5891 73.7188 12.2307 74.0573 12.5097 73.6889C12.9853 73.0618 13.387 72.4295 13.628 71.6766C13.7012 71.4467 13.3812 71.3535 13.2575 71.5266Z" fill="#978D84"/>
<path d="M5.1678 66.0434C5.5682 69.2909 6.74643 72.5734 8.24353 75.4831C8.50425 75.9897 9.38933 75.6226 9.17805 75.08C7.9924 72.0306 6.58495 69.1159 5.61564 65.9793C5.54332 65.7471 5.13704 65.7831 5.1678 66.0434Z" fill="#978D84"/>
<path d="M14.8973 61.9722C11.8856 63.105 8.46145 64.0764 5.70486 65.7513C5.18007 66.0691 5.65068 66.8102 6.18808 66.5516C9.05558 65.1736 12.5437 64.2193 15.0577 62.241C15.1842 62.1408 15.0442 61.9173 14.8953 61.9722L14.8973 61.9722Z" fill="#978D84"/>
<path d="M14.1931 50.3089C10.9573 52.8262 6.78831 56.2265 5.81345 60.4072C5.67255 61.011 6.6004 61.4549 6.87672 60.8378C7.8049 58.7644 8.67401 56.9403 10.1557 55.1728C11.4958 53.5746 13.0312 52.1578 14.4639 50.6455C14.6275 50.4739 14.3967 50.1487 14.1951 50.3069L14.1931 50.3089Z" fill="#978D84"/>
<path d="M23.005 66.235C22.1363 65.9148 21.133 65.3157 20.1665 65.5217C19.4863 65.6674 19.1359 66.4393 19.5727 67.0051C20.0358 67.6062 21.0275 67.696 21.726 67.7634C22.5223 67.8416 23.3658 67.8639 24.1576 67.717C24.635 67.6269 24.42 66.9224 23.9504 67.0026C22.9495 67.1735 21.6496 67.1561 20.6835 66.8607C20.5195 66.8111 20.1237 66.7128 20.0756 66.504C19.9707 66.0333 20.7752 66.137 21.0068 66.168C21.6497 66.2558 22.2663 66.4978 22.9016 66.6231C23.1594 66.6736 23.2472 66.3251 23.0051 66.237L23.005 66.235Z" fill="#978D84"/>
<path d="M36.7311 78.0261C40.0151 79.9093 44.8295 78.2829 48.1635 77.271C52.5346 75.9436 56.5588 73.8817 60.4544 71.5407C67.681 67.1947 74.5779 62.0448 82.5329 59.0375C87.2281 57.2623 92.1097 56.4941 97.1297 56.7135C97.5226 56.7309 97.5023 56.1507 97.1232 56.1153C79.7348 54.5585 67.4401 68.1274 52.7518 74.6579C50.2244 75.7814 47.6104 76.6393 44.9285 77.3143C42.366 77.9584 39.4611 78.8334 36.913 77.7082C36.7007 77.6138 36.5205 77.906 36.7311 78.0261Z" fill="#978D84"/>
<path d="M56.2531 78.9811C54.4131 78.4385 52.4717 77.5515 50.5166 77.958C50.0611 78.0538 50.1652 78.8207 50.6371 78.7721C52.5248 78.5737 54.2933 79.1407 56.144 79.3929C56.4115 79.4295 56.5271 79.061 56.2531 78.9811Z" fill="#978D84"/>
<path d="M63.0625 75.8224C60.7627 75.5257 58.4395 75.0911 56.1202 75.0099C55.7533 74.9982 55.6662 75.5974 56.0396 75.6565C58.3341 76.0223 60.6959 76.1603 63.0168 76.198C63.2281 76.2016 63.2841 75.8496 63.0645 75.8223L63.0625 75.8224Z" fill="#978D84"/>
<path d="M70.2353 72.9954C68.0244 72.2653 65.6164 72.2779 63.3195 72.0563C62.9583 72.0207 62.8831 72.6218 63.2407 72.687C65.5178 73.1023 67.84 73.0789 70.1357 73.3676C70.3772 73.3986 70.4774 73.0776 70.2353 72.9973L70.2353 72.9954Z" fill="#978D84"/>
<path d="M75.2556 70.1781C72.9609 69.6208 70.6276 69.5338 68.2993 69.1803C67.858 69.112 67.6658 69.7677 68.1193 69.8575C70.4488 70.3177 72.8289 70.1218 75.1637 70.5247C75.3894 70.5637 75.4834 70.2349 75.2556 70.1801L75.2556 70.1781Z" fill="#978D84"/>
<path d="M80.3891 66.8067C78.5822 66.5501 76.7884 66.2183 75.006 65.835C74.5604 65.7392 74.3806 66.4303 74.826 66.5123C76.6538 66.8516 78.4935 67.0091 80.347 67.1507C80.5426 67.1663 80.5868 66.8361 80.3892 66.8087L80.3891 66.8067Z" fill="#978D84"/>
<path d="M78.0549 41.4586C75.9935 41.2679 73.9812 40.4587 71.9346 40.3469C71.4798 40.3222 71.4628 40.9523 71.8411 41.0863C73.7002 41.7432 76.0916 41.8513 78.0574 41.8672C78.3285 41.8702 78.3123 41.4834 78.0529 41.4586L78.0549 41.4586Z" fill="#978D84"/>
<path d="M79.7979 38.8114C77.8293 38.1696 75.7295 38.1097 73.6757 38.069C73.0955 38.0576 73.1091 38.94 73.6855 38.9594C75.6897 39.0243 77.6944 38.9609 79.6888 39.2233C79.9583 39.2579 80.068 38.8993 79.7979 38.8114Z" fill="#978D84"/>
<path d="M84.4383 34.0676C82.6935 34.2012 80.9453 34.2125 79.1986 34.3619C78.8342 34.3935 78.8282 34.9425 79.2049 34.9344C80.9926 34.8931 82.7359 34.8029 84.4986 34.4776C84.7314 34.4355 84.6754 34.0511 84.4383 34.0676Z" fill="#978D84"/>
<path d="M89.4369 29.9412C88.3393 30.0125 87.2798 30.2867 86.1995 30.4841C85.7678 30.5639 85.9526 31.2411 86.3901 31.1415C87.4301 30.9031 88.4575 30.6075 89.4995 30.3769C89.7441 30.3229 89.688 29.9266 89.435 29.9432L89.4369 29.9412Z" fill="#978D84"/>
<path d="M30.417 56.3604C28.4997 56.5769 26.6397 55.847 24.7346 56.2726C24.3846 56.3515 24.4665 56.9094 24.8271 56.8916C26.7159 56.7978 28.6162 57.2055 30.4751 56.7507C30.6918 56.697 30.646 56.3322 30.417 56.3584L30.417 56.3604Z" fill="#978D84"/>
<path d="M26.7689 59.2338C25.1491 59.3147 23.5339 59.2712 21.9661 59.7326C21.513 59.8659 21.5872 60.6332 22.091 60.5803C23.6521 60.4171 25.2173 60.2656 26.7784 60.0985C27.326 60.0392 27.3388 59.2058 26.7689 59.2358L26.7689 59.2338Z" fill="#978D84"/>
<path d="M24.1672 61.3415C22.8966 61.6338 21.6047 61.8059 20.3321 62.0963C19.7773 62.2228 20.0262 63.1125 20.5785 62.9426C21.8203 62.5617 23.0787 62.2458 24.2998 61.8001C24.5897 61.6942 24.4715 61.271 24.1672 61.3415Z" fill="#978D84"/>
<path d="M14.3178 79.555C12.9021 78.8064 11.4514 77.7659 9.7744 77.9008C9.27846 77.9418 9.29191 78.6228 9.78272 78.6609C11.3669 78.7817 12.701 79.3673 14.1605 79.9378C14.3847 80.0261 14.5263 79.6652 14.3178 79.555Z" fill="#978D84"/>
<path d="M83.8407 54.3141C82.9103 55.4596 82.1864 56.8931 81.6532 58.2613C81.4516 58.7808 82.2234 58.9935 82.5022 58.6054C83.3347 57.4393 83.6249 55.9138 84.2788 54.641C84.4135 54.3789 84.0492 54.0611 83.8427 54.3141L83.8407 54.3141Z" fill="#978D84"/>
<path d="M80.9855 54.308C80.3049 56.2306 79.1919 57.8145 78.2365 59.5862C77.9904 60.045 78.616 60.5574 78.9883 60.1486C80.3258 58.6827 81.0475 56.3232 81.4094 54.4198C81.4622 54.1428 81.0783 54.0443 80.9855 54.3099L80.9855 54.308Z" fill="#978D84"/>
<path d="M77.5861 55.4072C76.7161 57.326 75.6336 59.1405 74.7274 61.042C74.517 61.4846 75.161 61.8626 75.4014 61.4236C76.4334 59.5425 77.3453 57.6232 78.0507 55.5956C78.1435 55.33 77.7029 55.1453 77.5841 55.4072L77.5861 55.4072Z" fill="#978D84"/>
<path d="M129.469 52.1615C128.151 51.4415 126.323 50.7033 124.928 51.613C124.787 51.7034 124.666 51.914 124.74 52.085C125.507 53.8615 129.494 55.196 130.753 53.2986C130.942 53.0141 130.493 52.6716 130.269 52.9366C129.271 54.1144 126.101 52.9606 125.503 51.7548C125.456 51.9449 125.408 52.1349 125.358 52.325C126.488 51.5031 128.11 52.1863 129.3 52.5681C129.542 52.6464 129.688 52.2815 129.467 52.1615L129.469 52.1615Z" fill="#978D84"/>
<path d="M2.53085 63.1007C3.07885 62.3543 3.40015 61.4761 3.92599 60.7082C4.52444 59.8348 5.22567 59.063 5.79796 58.1683C7.14837 56.0586 8.67957 54.0752 10.3475 52.199C13.4766 48.6759 16.9902 45.5059 20.7345 42.6355C26.4457 38.2607 33.7331 35.9971 40.9218 35.8354C45.8346 35.7243 50.6025 35.4963 55.3962 34.3381C59.8856 33.2523 64.1636 31.6121 68.1347 29.2585C76.2831 24.4305 83.4708 17.8025 90.5454 11.5864C93.432 9.0492 96.1302 6.22776 99.3968 4.15828C101.351 2.91864 105.703 0.266641 107.175 3.37608C107.591 4.25607 108.886 3.47382 108.48 2.60161C105.991 -2.74953 98.2974 2.79413 95.5433 5.05939C91.9752 7.99501 88.6499 11.2518 85.1364 14.2579C81.1667 17.654 77.1914 21.0857 72.9873 24.1981C68.8742 27.2424 64.5037 29.9044 59.6299 31.567C54.5436 33.303 49.3299 34.1519 43.961 34.2956C40.2662 34.3953 36.8004 34.4826 33.1997 35.3494C29.4359 36.2535 25.6249 37.5727 22.3545 39.6659C17.9875 42.4622 13.9117 46.1793 10.4289 49.9847C8.72493 51.8476 7.1299 53.8276 5.72952 55.9241C4.9744 57.0538 4.35565 58.2571 3.61258 59.3946C2.89106 60.4984 2.60486 61.6684 2.04346 62.8296C1.88557 63.1571 2.3207 63.3893 2.53089 63.1046L2.53085 63.1007Z" fill="#978D84"/>
<path d="M14.8215 59.7436C16.209 57.0253 18.1986 54.6678 20.2492 52.4161C22.3647 50.0908 24.543 47.8476 27.3249 46.3047C31.0599 44.2321 35.4539 42.9815 39.7435 42.9503C42.0279 42.9331 44.156 43.3955 46.2935 44.1678C47.6385 44.6526 50.8462 45.583 51.5019 47.0211C51.9472 47.9975 53.3949 47.1326 52.9497 46.1621C52.2472 44.6317 49.8862 43.8382 48.4402 43.2321C46.3394 42.3508 44.1646 41.6323 41.8837 41.4164C37.1083 40.9652 32.1321 42.2024 27.8692 44.3045C24.4508 45.9907 21.8667 48.4851 19.3898 51.3041C18.1493 52.7136 16.9652 54.1699 15.9258 55.7332C15.1707 56.8689 14.3142 58.2031 14.2697 59.6035C14.2609 59.8919 14.6928 60.0056 14.8255 59.7455L14.8215 59.7436Z" fill="#978D84"/>
<path d="M20.0778 62.4936C22.1282 60.4038 23.7397 57.9319 25.8663 55.8848C28.0718 53.7638 30.6805 52.2346 33.5533 51.1666C36.3309 50.1351 39.2581 49.4732 42.2318 49.4169C45.622 49.3501 48.8163 50.3241 51.8327 51.8074C52.8028 52.2845 53.6421 50.83 52.668 50.3549C49.6517 48.8834 46.4146 47.8231 43.0272 47.7832C39.6598 47.7451 36.2508 48.4636 33.1223 49.6747C30.2658 50.7801 27.5572 52.2866 25.3458 54.4136C23.1522 56.5227 20.5389 59.2741 19.5783 62.2108C19.4858 62.4961 19.8787 62.6952 20.0778 62.4916L20.0778 62.4936Z" fill="#978D84"/>
<path d="M16.8968 63.587C19.0848 64.0586 21.1708 64.8571 23.3415 65.3842C25.6201 65.9377 28.0282 66.2963 30.3738 66.4108C34.7299 66.6218 38.9115 65.4623 42.7674 63.5049C46.0702 61.8279 49.3036 59.818 51.3886 56.7091C53.099 54.1572 54.5982 50.3458 52.9454 47.42C52.5002 46.6312 51.3023 47.1952 51.5128 48.036C53.2949 55.1225 45.9758 60.127 40.3777 62.6347C36.6006 64.3267 32.6568 64.9919 28.525 64.6936C26.4601 64.5444 24.3918 64.265 22.3753 63.8073C20.5807 63.4005 18.7896 62.9522 16.9444 63.2093C16.7474 63.2371 16.663 63.5362 16.8967 63.585L16.8968 63.587Z" fill="#978D84"/>
<path d="M7.08436 67.5901C7.54616 68.436 8.63979 69.0914 9.43247 69.5704C11.3931 70.7553 13.5283 71.6796 15.6973 72.42C22.8008 74.8457 30.5545 75.1162 37.8969 73.6892C41.8813 72.915 45.7333 71.692 49.3229 69.8086C52.6925 68.0401 55.9479 66.0398 59.1489 63.9888C62.6884 61.7209 66.0838 59.2176 69.7551 57.1555C74.2527 54.6283 78.9915 53.1943 84.1774 53.0881C87.2088 53.0252 90.2296 53.2666 93.2533 53.4072C96.3527 53.551 99.4552 53.6058 102.555 53.7732C108.914 54.1182 115.268 54.5698 121.635 54.7449C122.01 54.7546 121.996 54.198 121.629 54.1724C116.195 53.8133 110.784 53.2211 105.359 52.7632C100.013 52.3124 94.6577 52.0433 89.3088 51.6478C84.3769 51.2832 79.4429 51.2741 74.7225 52.9271C70.5084 54.4028 66.7392 56.8134 63.0604 59.2823C60.0405 61.3096 57.0124 63.3093 53.8972 65.1896C50.891 67.0035 47.808 68.911 44.4819 70.1005C36.5271 72.942 27.8783 73.7594 19.5972 71.9231C16.6656 71.2741 13.7945 70.3222 11.0832 69.037C10.0532 68.5487 8.41869 68.0157 7.60821 67.1855C7.33602 66.9061 6.90742 67.2702 7.08441 67.594L7.08436 67.5901Z" fill="#978D84"/>
<path d="M6.56172 67.5305C6.7853 68.1046 7.21839 68.5145 7.54309 69.0381C7.96519 69.7186 8.31601 70.4433 8.65488 71.1682C9.3428 72.6395 9.99494 74.1191 10.8851 75.4856C11.321 76.1521 12.3787 75.7121 12.1747 74.9304C11.9562 74.0858 11.4315 73.5032 10.961 72.7778C10.4581 71.9994 10.0403 71.1649 9.579 70.3624C8.98358 69.3283 8.07895 67.5474 6.78057 67.3089C6.65872 67.2866 6.50838 67.3929 6.56172 67.5305Z" fill="#978D84"/>
<path d="M11.1407 75.3563C13.003 76.2955 14.5554 77.706 16.5019 78.5041C18.7126 79.4118 21.0416 80.0082 23.3944 80.4148C28.082 81.2243 32.8459 81.1761 37.5871 81.059C42.1012 80.9463 46.6632 80.302 50.9203 78.7588C55.3542 77.1523 59.5691 74.8434 63.6806 72.5673C72.092 67.9102 80.1928 62.751 89.8927 61.2488C99.489 59.7615 109.319 60.9017 118.979 60.8235C123.338 60.7876 127.89 61.1444 132.107 59.8109C133.774 59.2832 135.611 58.5029 136.332 56.799C137.034 55.1347 136.267 53.5537 135.046 52.3824C134.331 51.6972 133.401 52.7203 133.993 53.4483C137.64 57.9239 128.646 58.8853 125.933 59.0196C122.115 59.2076 118.241 59.1316 114.421 59.0747C105.694 58.9452 96.8943 58.1966 88.2456 59.7505C79.6625 61.2938 72.2893 65.7223 64.824 69.9425C60.923 72.1493 56.9796 74.3071 52.877 76.1251C48.822 77.9209 44.5231 78.9276 40.0995 79.29C35.1262 79.6979 29.8846 79.8165 24.9297 79.1758C22.4323 78.8537 19.9229 78.3402 17.5416 77.5173C15.4045 76.7786 13.5629 75.3594 11.3544 74.8426C11.0506 74.7709 10.8441 75.2095 11.1408 75.3602L11.1407 75.3563Z" fill="#978D84"/>
<path d="M67.8487 42.7214C69.0847 43.2726 70.1563 44.0941 71.318 44.7783C72.4496 45.4451 73.6484 45.8664 74.9005 46.2554C77.817 47.1633 80.8457 47.762 83.8741 48.1553C90.0009 48.9529 96.1891 48.9878 102.358 49.092C108.577 49.1976 114.833 49.0817 121.026 49.7483C123.587 50.0243 126.151 50.4503 128.656 51.0449C130.68 51.5262 132.663 52.158 134.007 53.8196C134.445 54.3637 135.362 53.7573 135.156 53.1396C134.234 50.3894 130.118 49.6842 127.647 49.194C123.1 48.2921 118.522 47.8566 113.891 47.7119C103.546 47.3869 93.0488 48.0251 82.7778 46.5285C80.0564 46.1318 77.3376 45.6167 74.6919 44.8618C72.4082 44.2096 70.2981 42.667 67.9214 42.4442C67.7757 42.43 67.7165 42.6636 67.8487 42.7214Z" fill="#978D84"/>
<path d="M70.7443 42.6877C72.7723 41.8402 74.2008 39.9389 75.6529 38.377C77.4419 36.454 79.545 34.8119 81.5437 33.1078C86.0587 29.2595 90.5192 25.3565 94.9151 21.3752C98.5136 18.1174 102.298 14.9287 105.655 11.4208C107.852 9.12413 110.566 5.36466 108.142 2.28935C107.582 1.57876 106.536 2.18058 106.926 3.01151C108.633 6.66726 105.121 9.8234 102.634 12.1134C99.0896 15.3785 95.5673 18.671 92.0106 21.9224C88.1599 25.4435 84.2547 28.9021 80.3394 32.3529C78.5111 33.9663 76.5968 35.5531 74.9841 37.3813C73.5034 39.062 72.1605 40.7649 70.5127 42.2953C70.3489 42.4472 70.526 42.777 70.7462 42.6837L70.7443 42.6877Z" fill="#978D84"/>
<path d="M106.476 4.31567C105.54 3.27947 103.192 5.34283 102.53 5.85357C99.8673 7.91248 97.439 10.261 95.0326 12.6015C90.4762 17.0327 86.2707 21.8352 81.4783 26.0222C75.9199 30.8791 70.0368 35.4058 64.9141 40.7318C64.2144 41.4581 65.3447 42.5554 66.0384 41.8212C72.5122 34.9937 80.3475 29.6163 86.8719 22.8534C91.4114 18.1518 95.9044 13.3896 100.694 8.93606C101.13 8.53047 105.371 4.28039 106.003 4.79078C106.337 5.06157 106.765 4.63632 106.474 4.31372L106.476 4.31567Z" fill="#978D84"/>
<path d="M63.745 38.2171C62.213 34.8595 57.0494 36.2686 54.7086 37.8679C51.8732 39.8063 50.7228 44.3404 53.4021 46.8956C56.3131 49.6733 61.7045 47.9419 64.0411 45.235C66.0057 42.9606 66.5135 38.1769 63.1546 36.9204C62.44 36.6538 62.0414 37.752 62.6614 38.1144C65.0108 39.4925 64.0499 43.1222 62.3663 44.659C60.3984 46.4556 56.2642 47.9364 54.1572 45.5862C52.2339 43.4412 53.6842 40.0787 55.8002 38.701C58.0745 37.2229 61.217 36.5645 63.4227 38.4655C63.6079 38.6253 63.8389 38.4234 63.7449 38.2151L63.745 38.2171Z" fill="#978D84"/>
<path d="M58.9551 40.7258C58.3979 40.0862 57.5279 40.5598 57.0892 41.0917C56.562 41.7333 56.3236 42.7172 56.9429 43.3837C58.1371 44.6659 60.1608 43.4215 60.506 42.0001C60.7483 41.0003 60.0446 40.2775 59.0537 40.2607C58.3937 40.2482 58.2495 41.2765 58.9088 41.4134C59.0047 41.4341 59.2088 41.5049 59.1667 41.4816C59.1788 41.4894 59.3074 41.5808 59.243 41.5341C59.1928 41.4972 59.2956 41.6027 59.2387 41.5026C59.2591 41.5399 59.2666 41.68 59.2611 41.5477C59.2638 41.605 59.2664 41.6642 59.2611 41.7235C59.2719 41.6246 59.2149 41.876 59.1955 41.9256C59.1955 41.9216 59.0802 42.1381 59.0272 42.2117C58.9761 42.2834 58.9131 42.3532 58.8362 42.4291C58.6725 42.5888 58.4746 42.7233 58.2539 42.7691C57.8501 42.8545 57.486 42.5564 57.5843 42.0696C57.694 41.5294 58.1688 40.8272 58.8123 40.9761C58.9642 41.012 59.052 40.8353 58.9551 40.7258Z" fill="#978D84"/>
<path d="M53.0051 48.5961C53.6716 48.4782 54.2873 48.0864 54.9146 47.8466C55.3831 47.6677 55.1938 46.9471 54.695 47.0908C53.9955 47.292 53.2641 47.6771 52.7918 48.241C52.6502 48.4104 52.7921 48.632 53.005 48.5941L53.0051 48.5961Z" fill="#978D84"/>
<path d="M7.07578 77.4367C7.36117 78.0121 8.75663 77.4676 9.15201 77.3468C10.1037 77.054 11.2065 76.73 11.989 76.0955C12.647 75.5611 11.6009 74.5162 11.038 75.174C10.5754 75.7141 9.72975 76.0393 9.10521 76.3502C8.70866 76.5461 8.30402 76.7322 7.89724 76.9044C7.75241 76.9672 7.37817 77.1984 7.21656 77.1863C7.0789 77.176 7.02482 77.3346 7.07578 77.4367Z" fill="#978D84"/>
<path d="M1.30098 66.2967C6.51367 63.7221 12.1658 62.1399 17.5506 59.988C17.2357 59.8157 16.9209 59.6434 16.606 59.4711C16.7783 59.9095 16.9145 60.3345 17.0351 60.7913C17.2888 61.7481 18.6855 61.3162 18.5057 60.3724C18.4147 59.8916 18.257 59.5083 18.0706 59.0543C17.9293 58.7103 17.5388 58.3671 17.126 58.5374C13.9568 59.8496 10.7034 60.9377 7.54653 62.2872C5.43732 63.189 2.4193 64.1106 1.09148 66.0976C1.00124 66.2309 1.17608 66.3593 1.29901 66.2987L1.30098 66.2967Z" fill="#978D84"/>
<path d="M7.37938 66.9254C9.16662 67.5692 11.5845 65.9059 13.1994 65.1971C15.3857 64.2393 17.8684 63.9415 19.9985 62.9468C20.7164 62.6112 20.1671 61.6003 19.473 61.7481C15.2665 62.6334 11.1455 64.7793 7.34478 66.6789C7.22978 66.7355 7.27933 66.8909 7.3794 66.9273L7.37938 66.9254Z" fill="#978D84"/>
<path d="M1.19412 66.8688C3.76383 69.7885 5.18368 73.6527 7.51824 76.7626C8.06243 77.4871 9.15995 76.8591 8.74227 76.0364C7.65227 73.8942 6.04876 71.8248 4.61816 69.8897C3.77839 68.7517 2.82001 66.9773 1.37408 66.5548C1.18009 66.4977 1.07706 66.7378 1.19412 66.8688Z" fill="#978D84"/>
<path d="M0.920046 64.6682C2.58255 63.3883 4.75616 62.9064 6.68116 62.1133C9.3186 61.0261 12.2264 59.3219 15.0832 58.9687C15.9153 58.8648 15.9331 57.5753 15.0687 57.65C13.6666 57.7719 12.445 58.354 11.1733 58.9109C9.43138 59.6743 7.70362 60.4574 5.98419 61.2719C4.46306 61.9915 1.28329 62.7055 0.696956 64.5028C0.658346 64.6177 0.815269 64.7483 0.920046 64.6682Z" fill="#978D84"/>
<path d="M0.8083 64.5232C0.622337 64.8352 0.878592 65.2984 0.969713 65.6093C1.04634 65.8711 1.34084 66.0041 1.59085 65.8967C1.821 65.7975 1.96697 65.474 1.80305 65.2507C1.68571 65.0941 1.56441 64.9394 1.44313 64.7867C1.32992 64.6438 1.2086 64.4872 1.02661 64.4339C0.944602 64.4091 0.851373 64.4516 0.808322 64.5252L0.8083 64.5232Z" fill="#978D84"/>
</g>
<defs>
<clipPath id="clip0_844_370">
<rect width="136" height="80" fill="white" transform="translate(0 1.48999) rotate(-0.627756)"/>
</clipPath>
</defs>
</svg>
